<svg width="1920" height="1080" viewBox="0 0 1920 1080" xmlns="http://www.w3.org/2000/svg"><rect width="1920" height="1080" fill="#ffffff"/><path d="M 0,1080 C 0,1080 0,360 0,360 C 57.007510106473845,368.1892112205584 114.01502021294769,376.3784224411167 172,408 C 229.9849797870523,439.6215775588833 288.94742925468313,494.6755214560915 343,478 C 397.05257074531687,461.3244785439085 446.1952627683198,372.91949173451763 499,372 C 551.8047372316802,371.08050826548237 608.2715196720377,457.64651160583804 678,482 C 747.7284803279623,506.35348839416196 830.718658543529,468.49446184213025 900,438 C 969.281341456471,407.50553815786975 1024.8538461538465,384.375641025641 1066,399 C 1107.1461538461535,413.624358974359 1133.8659568410862,466.00297405530563 1197,483 C 1260.1340431589138,499.99702594469437 1359.6823264818083,481.61246275313636 1425,445 C 1490.3176735181917,408.38753724686364 1521.4047372316802,353.54717493214895 1570,351 C 1618.5952627683198,348.45282506785105 1684.6987245914709,398.1988375182676 1757,423 C 1829.3012754085291,447.8011624817324 1907.800364402437,447.65747499478067 1936,433 C 1964.199635597563,418.34252500521933 1942.0998177987815,389.1712625026097 1920,360 C 1920,360 1920,1080 1920,1080 Z" fill="#008080" opacity="0.19999999999999998"/><path d="M 0,1080 C 0,1080 0,720 0,720 C 56.766447455825684,753.2154415532655 113.53289491165137,786.4308831065308 170,782 C 226.46710508834863,777.5691168934692 282.6348678092201,735.4919091271422 349,741 C 415.3651321907799,746.5080908728578 491.92763385146804,799.6014803849002 545,806 C 598.072366148532,812.3985196150998 627.6545967849075,772.1021693332574 673,725 C 718.3454032150925,677.8978306667426 779.4539790089015,623.9898422820703 846,630 C 912.5460209910985,636.0101577179297 984.529487179487,701.9384615384615 1041,731 C 1097.470512820513,760.0615384615385 1138.42807227315,752.2563115640836 1194,744 C 1249.57192772685,735.7436884359164 1319.7582237279128,727.0362922052042 1382,716 C 1444.2417762720872,704.9637077947958 1498.5390328151987,691.5985196150999 1563,730 C 1627.4609671848013,768.4014803849001 1702.0856450112926,858.5696293343962 1768,825 C 1833.9143549887074,791.4303706656038 1891.1183871396308,634.1229630473155 1915,596 C 1938.8816128603692,557.8770369526845 1929.4408064301847,638.9385184763423 1920,720 C 1920,720 1920,1080 1920,1080 Z" fill="#008080" opacity="0.39999999999999997"/></svg>