<svg xmlns="http://www.w3.org/2000/svg" xmlns:xlink="http://www.w3.org/1999/xlink" width="500" zoomAndPan="magnify" viewBox="0 0 375 374.999991" height="500" preserveAspectRatio="xMidYMid meet" version="1.0"><defs><clipPath id="c51ec49136"><path d="M 22.648438 25 L 344 25 L 344 347 L 22.648438 347 Z M 22.648438 25 " clip-rule="nonzero"/></clipPath><clipPath id="1bc43231c4"><path d="M 256 23.058594 L 309 23.058594 L 309 109 L 256 109 Z M 256 23.058594 " clip-rule="nonzero"/></clipPath></defs><g clip-path="url(#c51ec49136)"><path fill="#ffffff" d="M 324.917969 224.367188 C 304.636719 205.824219 284.292969 187.410156 264.074219 168.871094 C 262.785156 167.707031 261.816406 166.09375 260.652344 164.605469 C 267.757812 154.722656 280.222656 149.617188 281.707031 135.988281 C 279.835938 135.148438 278.21875 134.308594 276.542969 133.53125 C 268.078125 129.851562 260.910156 125.070312 255.742188 116.800781 C 253.222656 112.792969 247.539062 110.792969 243.148438 107.882812 C 234.171875 114.472656 226.289062 120.289062 217.636719 126.621094 C 205.363281 114.472656 193.285156 102.910156 181.59375 90.957031 C 170.679688 79.78125 158.277344 72.804688 142 74.550781 C 136.703125 75.128906 131.277344 74.550781 126.046875 75.195312 C 115.710938 76.359375 107.960938 72.871094 100.984375 64.988281 C 90.328125 53.035156 78.765625 41.925781 67.59375 30.425781 C 63.910156 26.613281 59.90625 23.511719 54.675781 27.128906 C 42.078125 35.722656 29.679688 44.636719 22.765625 59.949219 C 25.222656 62.792969 27.546875 65.761719 30.128906 68.476562 C 38.851562 77.519531 46.792969 87.726562 56.675781 95.285156 C 71.855469 106.851562 76.246094 121.453125 73.535156 139.28125 C 70.949219 156.144531 76.765625 170.035156 88.132812 182.050781 C 90.78125 184.828125 93.300781 187.671875 95.882812 190.511719 C 103.050781 198.332031 110.15625 206.148438 118.039062 214.804688 C 87.226562 241.355469 56.742188 267.003906 29.484375 295.816406 C 36.332031 310.933594 46.019531 322.304688 55.644531 333.546875 C 60.421875 339.101562 67.074219 338.84375 72.890625 333.804688 C 89.101562 319.851562 105.121094 305.765625 121.265625 291.8125 C 133.601562 281.152344 146.070312 270.558594 158.46875 259.898438 C 160.667969 261.449219 162.085938 262.160156 163.054688 263.191406 C 182.5625 284.640625 202.003906 306.152344 221.445312 327.667969 C 224.03125 330.511719 226.355469 333.546875 229.066406 336.195312 C 241.082031 348.015625 254.0625 349.308594 268.273438 340.007812 C 271.117188 338.132812 273.894531 336 276.28125 333.609375 C 293.785156 316.101562 311.484375 298.660156 328.535156 280.699219 C 333.703125 275.273438 337.707031 268.488281 341.132812 261.835938 C 345.523438 253.308594 344.296875 244.652344 337.902344 237.351562 C 333.960938 232.636719 329.441406 228.5 324.917969 224.367188 Z M 50.476562 302.019531 C 48.410156 301.4375 46.792969 299.175781 43.953125 296.785156 C 47.054688 294.976562 49.378906 292.78125 50.476562 293.234375 C 52.414062 294.136719 53.640625 296.722656 55.125 298.53125 C 53.578125 299.824219 51.640625 302.34375 50.476562 302.019531 Z M 44.339844 59.949219 C 42.335938 58.527344 40.335938 57.042969 36.847656 54.523438 C 42.015625 50 46.40625 46.058594 50.929688 42.246094 C 54.285156 39.40625 57.195312 40.113281 59.648438 44.183594 C 58.808594 45.605469 58.550781 46.316406 58.03125 46.832031 C 53.640625 51.097656 49.25 55.296875 44.339844 59.949219 Z M 116.9375 182.308594 C 102.792969 169.710938 89.683594 157.5 91.621094 136.308594 C 93.492188 115.636719 87.808594 98.257812 69.917969 85.53125 C 62.683594 80.363281 57.195312 72.738281 50.539062 65.828125 C 55.386719 61.304688 60.035156 56.910156 65.332031 51.9375 C 67.59375 53.941406 69.917969 55.683594 71.921875 57.75 C 79.863281 66.019531 87.9375 74.160156 95.496094 82.6875 C 102.082031 90.117188 109.835938 93.285156 119.78125 92.765625 C 129.277344 92.316406 138.835938 92.636719 148.328125 93.414062 C 152.207031 93.738281 156.664062 95.351562 159.570312 97.9375 C 166.933594 104.460938 173.519531 111.824219 180.949219 119.449219 C 159.828125 140.25 138.640625 160.988281 116.9375 182.308594 Z M 72.757812 310.933594 C 72.179688 313.261719 69.53125 315.003906 67.785156 317.070312 C 66.042969 315.457031 63.007812 313.84375 62.941406 312.164062 C 62.878906 309.964844 65.265625 307.703125 67.527344 303.894531 C 70.242188 307.382812 73.082031 309.578125 72.757812 310.933594 Z M 72.308594 289.355469 C 70.046875 288.453125 67.980469 286.0625 66.753906 283.738281 C 66.363281 283.027344 69.335938 279.34375 70.433594 279.472656 C 72.890625 279.796875 75.148438 281.667969 79.152344 283.800781 C 75.730469 286.707031 73.339844 289.808594 72.308594 289.355469 Z M 90.457031 268.359375 C 89.164062 266.875 86.96875 265.453125 86.90625 263.839844 C 86.839844 262.417969 89.035156 260.867188 90.972656 258.476562 C 92.71875 261.191406 94.847656 262.933594 94.589844 264.421875 C 94.398438 265.90625 91.941406 267.070312 90.457031 268.359375 Z M 100.921875 289.746094 C 100.015625 289.808594 97.886719 286.386719 98.207031 284.898438 C 98.53125 283.414062 101.050781 281.410156 102.664062 281.347656 C 104.019531 281.28125 105.507812 283.671875 108.15625 286.0625 C 104.925781 287.871094 102.988281 289.617188 100.921875 289.746094 Z M 119.457031 259.25 C 119.328125 260.929688 117.390625 262.480469 115.453125 265.195312 C 113.128906 262.742188 110.414062 261.125 110.285156 259.382812 C 110.222656 257.570312 112.417969 254.40625 114.097656 254.019531 C 117.585938 253.179688 119.78125 255.828125 119.457031 259.25 Z M 151.238281 246.589844 C 147.878906 249.5625 144.390625 252.402344 140.320312 255.761719 C 133.34375 247.621094 126.949219 240.195312 119.523438 231.472656 C 156.855469 194.648438 198.324219 162.992188 237.851562 128.816406 C 247.476562 131.464844 256.839844 134.050781 268.402344 137.28125 C 264.914062 141.800781 263.105469 144.902344 260.523438 147.292969 C 240.113281 166.222656 219.636719 185.152344 199.03125 203.820312 C 183.207031 218.292969 167.191406 232.441406 151.238281 246.589844 Z M 315.167969 260.027344 C 294.753906 280.441406 273.699219 300.273438 252.902344 320.300781 C 248.507812 324.5 243.921875 324.242188 239.917969 319.785156 C 229.324219 307.898438 218.925781 295.882812 207.558594 282.898438 C 216.988281 273.269531 224.871094 265.066406 232.941406 257.121094 C 246.183594 244.003906 259.554688 230.957031 272.988281 218.035156 C 278.996094 212.21875 281.386719 211.832031 287.585938 216.9375 C 296.953125 224.6875 306.058594 232.828125 314.714844 241.355469 C 321.691406 248.203125 322.140625 252.984375 315.167969 260.027344 Z M 315.167969 260.027344 " fill-opacity="1" fill-rule="nonzero"/></g><g clip-path="url(#1bc43231c4)"><path fill="#ffffff" d="M 270.921875 108.917969 C 271.246094 107.367188 271.761719 106.335938 271.695312 105.363281 C 270.46875 92.960938 275.960938 84.238281 286.035156 77.585938 C 290.816406 74.417969 295.335938 70.800781 299.210938 66.667969 C 312.324219 52.777344 310.839844 35.011719 295.660156 23.058594 C 295.207031 24.09375 294.5625 24.996094 294.304688 26.03125 C 290.945312 41.859375 283.515625 55.167969 270.597656 65.246094 C 266.722656 68.28125 263.234375 71.964844 260.328125 75.90625 C 255.292969 82.6875 256.261719 90.246094 258.90625 97.742188 C 261.039062 103.425781 264.140625 107.820312 270.921875 108.917969 Z M 270.921875 108.917969 " fill-opacity="1" fill-rule="nonzero"/></g><path fill="#ffffff" d="M 299.40625 87.277344 C 287.199219 93.15625 279.835938 102.585938 278.351562 116.28125 C 277.703125 121.902344 279.1875 126.101562 287.132812 126.492188 C 288.621094 123.90625 290.167969 121.773438 291.269531 119.382812 C 296.886719 107.238281 305.476562 99.164062 319.105469 96.515625 C 324.597656 95.480469 329.957031 92.960938 334.800781 90.117188 C 348.496094 82.171875 349.527344 66.667969 336.867188 55.167969 C 330.796875 69.574219 321.109375 80.234375 305.929688 84.949219 C 303.667969 85.597656 301.472656 86.242188 299.40625 87.277344 Z M 299.40625 87.277344 " fill-opacity="1" fill-rule="nonzero"/></svg>