<svg xmlns="http://www.w3.org/2000/svg" xmlns:xlink="http://www.w3.org/1999/xlink" width="500" zoomAndPan="magnify" viewBox="0 0 375 374.999991" height="500" preserveAspectRatio="xMidYMid meet" version="1.0"><defs><clipPath id="a4d29ef7ad"><path d="M 40 218 L 338 218 L 338 375 L 40 375 Z M 40 218 " clip-rule="nonzero"/></clipPath><clipPath id="fac5feaf74"><path d="M 3.253906 281.023438 L 175.207031 92.722656 L 375.695312 275.800781 L 203.742188 464.101562 Z M 3.253906 281.023438 " clip-rule="nonzero"/></clipPath><clipPath id="83df3dd7bc"><path d="M 3.253906 281.023438 L 175.207031 92.722656 L 375.695312 275.800781 L 203.742188 464.101562 Z M 3.253906 281.023438 " clip-rule="nonzero"/></clipPath></defs><g clip-path="url(#a4d29ef7ad)"><g clip-path="url(#fac5feaf74)"><g clip-path="url(#83df3dd7bc)"><path fill="#c5f9c9" d="M 322.183594 228.945312 C 304.75 214.839844 283.40625 217.929688 264.453125 228.339844 C 246.226562 238.28125 231.304688 247.089844 209.789062 243.832031 C 192.132812 241.148438 176.03125 232.789062 159.417969 227.0625 C 134.699219 218.535156 106.835938 214.695312 81.546875 225.585938 C 35.921875 245.253906 26.882812 301.421875 61.863281 333.972656 C 80.550781 351.335938 106.941406 357.535156 132.261719 356.792969 C 150.445312 356.25 165.988281 354.128906 182.394531 363.148438 C 194.023438 369.535156 204.464844 378.464844 217.398438 382.347656 C 243.625 390.210938 274.683594 371.515625 295.523438 355.730469 C 318.957031 337.929688 325.765625 311.519531 332.71875 284.785156 C 332.753906 284.746094 332.753906 284.746094 332.753906 284.746094 C 341.539062 265.277344 338.914062 242.488281 322.183594 228.945312 Z M 322.183594 228.945312 " fill-opacity="1" fill-rule="nonzero"/></g></g></g><path fill="#ffa664" d="M 150.734375 314.175781 C 150.734375 314.175781 145.460938 316.136719 143.351562 312.914062 C 137.988281 304.691406 132.539062 304.050781 127.132812 308.242188 C 121.105469 312.972656 123.917969 316.53125 118.71875 318.382812 C 113.523438 320.234375 101.082031 324.46875 98.398438 325.5 C 95.714844 326.535156 92.027344 329.023438 93.460938 331.707031 C 94.730469 334.085938 98.230469 332.945312 98.230469 332.945312 C 98.230469 332.945312 96.136719 335.8125 99.257812 336.710938 C 99.257812 336.710938 98.140625 340.179688 101.515625 340.089844 C 101.515625 340.089844 100.664062 343.628906 104.097656 342.796875 C 104.097656 342.796875 103.675781 345.730469 108.285156 343.550781 C 109.507812 342.976562 133.175781 331.503906 137.703125 330.105469 C 142.980469 328.46875 150.699219 328.21875 150.699219 328.21875 Z M 150.734375 314.175781 " fill-opacity="1" fill-rule="nonzero"/><path fill="#2e294e" d="M 153.957031 27.589844 C 171.1875 15.480469 183.875 23.128906 183.875 23.128906 C 183.875 23.128906 200.539062 16.402344 212.933594 25.875 C 230.625 39.394531 233.695312 102.824219 187.929688 107.484375 C 142.164062 112.140625 131.585938 43.308594 153.957031 27.589844 Z M 153.957031 27.589844 " fill-opacity="1" fill-rule="nonzero"/><path fill="#ffa664" d="M 169.878906 93.402344 L 169.878906 114.894531 C 169.878906 123.316406 135.414062 132.816406 135.414062 132.816406 C 135.414062 132.816406 186.308594 156.871094 232.46875 128.5625 C 232.46875 128.5625 199.03125 121.507812 199.03125 113.960938 C 199.03125 106.414062 198.578125 93.402344 198.578125 93.402344 Z M 169.878906 93.402344 " fill-opacity="1" fill-rule="nonzero"/><path fill="#2e294e" d="M 168.390625 30.875 C 165.503906 27.132812 162.84375 22.914062 162.472656 18.195312 C 162.027344 12.554688 165.175781 6.921875 169.859375 3.804688 C 174.542969 0.691406 180.691406 0 186.160156 1.351562 C 188.714844 1.921875 191.003906 3.035156 193.03125 4.691406 C 196.6875 7.835938 198.234375 12.84375 198.511719 17.667969 C 198.863281 23.804688 197.300781 30.234375 193.261719 34.867188 C 190.1875 38.382812 184.230469 41.734375 179.339844 40.566406 C 174.972656 39.558594 171.011719 34.269531 168.390625 30.875 Z M 168.390625 30.875 " fill-opacity="1" fill-rule="nonzero"/><path fill="#ffa664" d="M 149.394531 64.871094 L 220.375 64.871094 C 220.996094 64.871094 221.613281 64.929688 222.226562 65.054688 C 222.835938 65.175781 223.429688 65.355469 224.007812 65.59375 C 224.582031 65.832031 225.128906 66.125 225.648438 66.472656 C 226.167969 66.816406 226.648438 67.210938 227.085938 67.652344 C 227.527344 68.09375 227.921875 68.574219 228.269531 69.09375 C 228.613281 69.609375 228.90625 70.15625 229.144531 70.734375 C 229.382812 71.308594 229.566406 71.90625 229.6875 72.515625 C 229.808594 73.128906 229.867188 73.746094 229.867188 74.371094 L 229.867188 74.375 C 229.867188 75 229.808594 75.617188 229.6875 76.230469 C 229.566406 76.839844 229.382812 77.433594 229.144531 78.011719 C 228.90625 78.585938 228.613281 79.136719 228.269531 79.652344 C 227.921875 80.171875 227.527344 80.652344 227.085938 81.09375 C 226.648438 81.535156 226.167969 81.925781 225.648438 82.273438 C 225.128906 82.621094 224.582031 82.914062 224.007812 83.152344 C 223.429688 83.390625 222.835938 83.570312 222.226562 83.691406 C 221.613281 83.8125 220.996094 83.875 220.375 83.875 L 149.394531 83.875 C 148.769531 83.875 148.152344 83.8125 147.542969 83.691406 C 146.929688 83.570312 146.335938 83.390625 145.761719 83.152344 C 145.183594 82.914062 144.636719 82.621094 144.121094 82.273438 C 143.601562 81.925781 143.121094 81.535156 142.679688 81.09375 C 142.238281 80.652344 141.847656 80.171875 141.5 79.652344 C 141.152344 79.136719 140.859375 78.585938 140.621094 78.011719 C 140.382812 77.433594 140.203125 76.839844 140.082031 76.230469 C 139.960938 75.617188 139.898438 75 139.898438 74.375 L 139.898438 74.371094 C 139.898438 73.746094 139.960938 73.128906 140.082031 72.515625 C 140.203125 71.90625 140.382812 71.308594 140.621094 70.734375 C 140.859375 70.15625 141.152344 69.609375 141.5 69.09375 C 141.847656 68.574219 142.238281 68.09375 142.679688 67.652344 C 143.121094 67.210938 143.601562 66.816406 144.121094 66.472656 C 144.636719 66.125 145.183594 65.832031 145.761719 65.59375 C 146.335938 65.355469 146.929688 65.175781 147.542969 65.054688 C 148.152344 64.929688 148.769531 64.871094 149.394531 64.871094 Z M 149.394531 64.871094 " fill-opacity="1" fill-rule="nonzero"/><path fill="#ffa664" d="M 339.308594 219.050781 L 334.929688 202.792969 L 275.300781 217.914062 L 256.050781 159.359375 C 255.761719 158.425781 255.382812 157.527344 254.914062 156.664062 C 254.449219 155.804688 253.902344 155 253.273438 154.246094 C 252.644531 153.496094 251.949219 152.8125 251.183594 152.203125 C 250.421875 151.589844 249.605469 151.058594 248.734375 150.609375 C 247.863281 150.160156 246.960938 149.800781 246.019531 149.53125 C 245.078125 149.261719 244.117188 149.085938 243.140625 149.007812 C 242.167969 148.933594 241.191406 148.949219 240.21875 149.066406 C 239.25 149.183594 238.296875 149.394531 237.367188 149.699219 C 236.4375 150.007812 235.546875 150.402344 234.695312 150.886719 C 233.84375 151.367188 233.050781 151.933594 232.308594 152.574219 C 231.570312 153.214844 230.902344 153.925781 230.304688 154.699219 C 229.707031 155.476562 229.191406 156.304688 228.757812 157.179688 C 228.324219 158.058594 227.984375 158.972656 227.730469 159.917969 C 227.480469 160.867188 227.324219 161.828125 227.265625 162.804688 C 227.207031 163.78125 227.242188 164.757812 227.378906 165.726562 C 227.511719 166.695312 227.742188 167.644531 228.0625 168.566406 L 251.574219 240.089844 C 251.75 240.628906 251.953125 241.15625 252.183594 241.671875 C 252.417969 242.183594 252.679688 242.683594 252.972656 243.167969 C 253.261719 243.652344 253.582031 244.121094 253.925781 244.566406 C 254.269531 245.015625 254.636719 245.441406 255.03125 245.847656 C 255.425781 246.253906 255.839844 246.632812 256.277344 246.992188 C 256.714844 247.347656 257.171875 247.679688 257.648438 247.984375 C 258.125 248.289062 258.617188 248.566406 259.125 248.816406 C 259.628906 249.0625 260.152344 249.28125 260.683594 249.46875 C 261.214844 249.660156 261.757812 249.816406 262.308594 249.941406 C 262.859375 250.070312 263.414062 250.164062 263.976562 250.222656 C 264.539062 250.285156 265.101562 250.316406 265.667969 250.3125 C 266.230469 250.3125 266.792969 250.277344 267.355469 250.207031 C 267.914062 250.140625 268.472656 250.039062 269.019531 249.910156 C 269.570312 249.777344 270.109375 249.617188 270.640625 249.421875 C 271.171875 249.226562 271.6875 249.003906 272.195312 248.75 C 272.699219 248.496094 273.1875 248.214844 273.660156 247.90625 Z M 339.308594 219.050781 " fill-opacity="1" fill-rule="nonzero"/><path fill="#ffa664" d="M 339.308594 219.050781 C 339.308594 219.050781 367.941406 214.625 372.597656 210.898438 C 377.253906 207.171875 357.6875 209.382812 357.6875 209.382812 C 357.6875 209.382812 377.496094 204.15625 377.03125 200.648438 C 376.5625 197.140625 356.527344 202.796875 356.527344 202.796875 C 356.527344 202.796875 378.691406 194.183594 377.039062 190.554688 C 375.542969 187.289062 355.980469 197.214844 355.980469 197.214844 C 355.980469 197.214844 359.054688 191.304688 360.082031 185.679688 C 361.015625 180.554688 358.832031 177.179688 354.492188 176.480469 C 345.171875 174.964844 343.734375 179.617188 349.308594 181.425781 C 352.480469 182.460938 354.085938 182.78125 354.085938 184.132812 C 354.085938 185.484375 351.640625 194.792969 348.148438 195.023438 C 344.652344 195.253906 341.625 188.382812 346.519531 182.441406 C 349.121094 179.277344 344.539062 178.386719 341.042969 181.625 C 337.550781 184.863281 334.960938 202.765625 334.960938 202.765625 Z M 339.308594 219.050781 " fill-opacity="1" fill-rule="nonzero"/><path fill="#ffa664" d="M 141.285156 149.921875 C 140.367188 149.621094 139.425781 149.410156 138.46875 149.292969 C 137.507812 149.175781 136.546875 149.15625 135.582031 149.226562 C 134.617188 149.300781 133.671875 149.464844 132.738281 149.726562 C 131.808594 149.984375 130.910156 150.332031 130.046875 150.765625 C 129.183594 151.203125 128.371094 151.71875 127.609375 152.316406 C 126.847656 152.910156 126.152344 153.574219 125.519531 154.308594 C 124.890625 155.042969 124.335938 155.828125 123.863281 156.671875 C 123.386719 157.511719 122.996094 158.394531 122.695312 159.3125 L 103.441406 217.867188 L 43.808594 202.746094 L 39.449219 219.003906 L 105.097656 247.859375 C 105.570312 248.167969 106.058594 248.449219 106.5625 248.703125 C 107.066406 248.957031 107.585938 249.179688 108.117188 249.375 C 108.648438 249.566406 109.1875 249.730469 109.738281 249.863281 C 110.285156 249.992188 110.839844 250.09375 111.402344 250.160156 C 111.960938 250.226562 112.527344 250.261719 113.089844 250.265625 C 113.65625 250.269531 114.21875 250.238281 114.78125 250.175781 C 115.339844 250.113281 115.898438 250.019531 116.449219 249.894531 C 117 249.769531 117.539062 249.613281 118.074219 249.421875 C 118.605469 249.234375 119.125 249.015625 119.632812 248.769531 C 120.140625 248.519531 120.632812 248.242188 121.109375 247.9375 C 121.582031 247.632812 122.039062 247.300781 122.476562 246.945312 C 122.914062 246.585938 123.332031 246.207031 123.722656 245.800781 C 124.117188 245.394531 124.488281 244.96875 124.832031 244.519531 C 125.175781 244.070312 125.496094 243.605469 125.785156 243.121094 C 126.074219 242.636719 126.339844 242.136719 126.570312 241.621094 C 126.804688 241.109375 127.007812 240.582031 127.179688 240.042969 L 150.691406 168.519531 C 150.992188 167.601562 151.203125 166.660156 151.320312 165.699219 C 151.4375 164.738281 151.457031 163.777344 151.382812 162.8125 C 151.3125 161.847656 151.144531 160.898438 150.882812 159.964844 C 150.625 159.035156 150.277344 158.136719 149.839844 157.273438 C 149.402344 156.410156 148.886719 155.597656 148.289062 154.835938 C 147.691406 154.074219 147.027344 153.375 146.292969 152.746094 C 145.558594 152.117188 144.769531 151.5625 143.929688 151.085938 C 143.085938 150.613281 142.203125 150.222656 141.285156 149.921875 Z M 141.285156 149.921875 " fill-opacity="1" fill-rule="nonzero"/><path fill="#ffa664" d="M 128.054688 149.21875 L 148.210938 202.792969 L 141.71875 259.617188 C 141.71875 259.617188 183.617188 282.433594 236.75 259.617188 L 231.34375 197.652344 L 241.683594 149.183594 Z M 128.054688 149.21875 " fill-opacity="1" fill-rule="nonzero"/><path fill="#ffa664" d="M 217.839844 59.855469 C 217.839844 60.964844 217.785156 62.078125 217.675781 63.183594 C 217.566406 64.292969 217.402344 65.390625 217.1875 66.480469 C 216.96875 67.574219 216.699219 68.652344 216.378906 69.714844 C 216.054688 70.78125 215.679688 71.828125 215.253906 72.855469 C 214.828125 73.882812 214.355469 74.886719 213.828125 75.867188 C 213.304688 76.851562 212.734375 77.804688 212.117188 78.726562 C 211.5 79.652344 210.835938 80.546875 210.132812 81.40625 C 209.425781 82.265625 208.679688 83.089844 207.894531 83.875 C 207.105469 84.664062 206.285156 85.410156 205.425781 86.117188 C 204.5625 86.820312 203.671875 87.484375 202.746094 88.101562 C 201.824219 88.71875 200.871094 89.292969 199.890625 89.816406 C 198.90625 90.339844 197.902344 90.816406 196.875 91.242188 C 195.847656 91.667969 194.804688 92.042969 193.738281 92.363281 C 192.675781 92.6875 191.597656 92.957031 190.503906 93.175781 C 189.414062 93.390625 188.316406 93.554688 187.210938 93.664062 C 186.101562 93.773438 184.992188 93.828125 183.878906 93.828125 C 182.769531 93.828125 181.660156 93.773438 180.550781 93.664062 C 179.445312 93.554688 178.347656 93.390625 177.253906 93.175781 C 176.164062 92.957031 175.085938 92.6875 174.023438 92.363281 C 172.957031 92.042969 171.914062 91.667969 170.886719 91.242188 C 169.859375 90.816406 168.855469 90.339844 167.871094 89.816406 C 166.890625 89.292969 165.9375 88.71875 165.015625 88.101562 C 164.089844 87.484375 163.195312 86.820312 162.335938 86.117188 C 161.476562 85.410156 160.65625 84.664062 159.867188 83.875 C 159.082031 83.089844 158.335938 82.265625 157.628906 81.40625 C 156.925781 80.546875 156.261719 79.652344 155.644531 78.726562 C 155.027344 77.804688 154.457031 76.851562 153.933594 75.867188 C 153.40625 74.886719 152.933594 73.882812 152.507812 72.855469 C 152.082031 71.828125 151.707031 70.78125 151.382812 69.714844 C 151.0625 68.652344 150.792969 67.574219 150.574219 66.480469 C 150.359375 65.390625 150.195312 64.292969 150.085938 63.183594 C 149.976562 62.078125 149.921875 60.964844 149.921875 59.855469 C 149.921875 58.742188 149.976562 57.632812 150.085938 56.523438 C 150.195312 55.417969 150.359375 54.316406 150.574219 53.226562 C 150.792969 52.132812 151.0625 51.058594 151.382812 49.992188 C 151.707031 48.925781 152.082031 47.878906 152.507812 46.851562 C 152.933594 45.824219 153.40625 44.820312 153.933594 43.839844 C 154.457031 42.859375 155.027344 41.90625 155.644531 40.980469 C 156.261719 40.054688 156.925781 39.160156 157.628906 38.300781 C 158.335938 37.441406 159.082031 36.617188 159.867188 35.832031 C 160.65625 35.042969 161.476562 34.296875 162.335938 33.59375 C 163.195312 32.886719 164.089844 32.222656 165.015625 31.605469 C 165.9375 30.988281 166.890625 30.417969 167.871094 29.890625 C 168.855469 29.367188 169.859375 28.890625 170.886719 28.464844 C 171.914062 28.039062 172.957031 27.667969 174.023438 27.34375 C 175.085938 27.019531 176.164062 26.75 177.253906 26.535156 C 178.347656 26.316406 179.445312 26.152344 180.550781 26.042969 C 181.660156 25.933594 182.769531 25.878906 183.878906 25.878906 C 184.992188 25.878906 186.101562 25.933594 187.210938 26.042969 C 188.316406 26.152344 189.414062 26.316406 190.503906 26.535156 C 191.597656 26.75 192.675781 27.019531 193.738281 27.34375 C 194.804688 27.667969 195.847656 28.039062 196.875 28.464844 C 197.902344 28.890625 198.90625 29.367188 199.890625 29.890625 C 200.871094 30.417969 201.824219 30.988281 202.746094 31.605469 C 203.671875 32.222656 204.5625 32.886719 205.425781 33.59375 C 206.285156 34.296875 207.105469 35.042969 207.894531 35.832031 C 208.679688 36.617188 209.425781 37.441406 210.132812 38.300781 C 210.835938 39.160156 211.5 40.054688 212.117188 40.980469 C 212.734375 41.90625 213.304688 42.859375 213.828125 43.839844 C 214.355469 44.820312 214.828125 45.824219 215.253906 46.851562 C 215.679688 47.878906 216.054688 48.925781 216.378906 49.992188 C 216.699219 51.058594 216.96875 52.132812 217.1875 53.226562 C 217.402344 54.316406 217.566406 55.417969 217.675781 56.523438 C 217.785156 57.632812 217.839844 58.742188 217.839844 59.855469 Z M 217.839844 59.855469 " fill-opacity="1" fill-rule="nonzero"/><path fill="#ffa664" d="M 149.914062 59.855469 C 149.914062 59.855469 151.089844 107.894531 183.875 107.894531 C 216.65625 107.894531 217.859375 59.855469 217.859375 59.855469 Z M 149.914062 59.855469 " fill-opacity="1" fill-rule="nonzero"/><path fill="#52b69a" d="M 272.597656 192.71875 C 272.597656 192.71875 258.589844 142.6875 249.304688 133.535156 C 240.019531 124.378906 212.667969 122.816406 212.667969 122.816406 C 212.667969 122.816406 205.359375 132.917969 186.882812 133.066406 C 168.269531 133.222656 159.972656 122.863281 159.972656 122.863281 C 163.242188 121.972656 140.785156 127.367188 129.25 136.636719 C 118.042969 145.636719 103.292969 195.863281 103.292969 195.863281 L 140.941406 212.59375 L 136.683594 246.0625 C 193.449219 262.679688 241.722656 248.523438 241.722656 248.523438 L 238.925781 209.5 Z M 272.597656 192.71875 " fill-opacity="1" fill-rule="nonzero"/><path fill="#168aa6" d="M 141.097656 258.515625 C 141.097656 258.515625 185.8125 274.066406 236.75 258.515625 L 250.414062 282.125 C 250.414062 282.125 233.023438 321.269531 195.753906 321.269531 C 158.484375 321.269531 134.316406 280.878906 134.316406 280.878906 Z M 141.097656 258.515625 " fill-opacity="1" fill-rule="nonzero"/><path fill="#168aa6" d="M 135.082031 309.4375 C 135.082031 309.4375 243.5 266.101562 278.257812 261.367188 C 313.011719 256.636719 318.648438 283.183594 306.050781 302.101562 C 293.453125 321.019531 141.542969 329.144531 141.542969 329.144531 Z M 135.082031 309.4375 " fill-opacity="1" fill-rule="nonzero"/><path fill="#ffa664" d="M 233.671875 309.113281 C 233.671875 309.113281 238.945312 311.074219 241.046875 307.847656 C 246.414062 299.632812 253.285156 299.964844 258.617188 304.15625 C 264.644531 308.890625 262.808594 311.871094 268.003906 313.71875 C 273.199219 315.5625 283.257812 319.417969 285.941406 320.425781 C 288.621094 321.429688 292.3125 323.945312 290.878906 326.628906 C 289.636719 329.011719 286.117188 327.902344 286.117188 327.902344 C 286.117188 327.902344 288.210938 330.769531 285.089844 331.667969 C 285.089844 331.667969 286.203125 335.136719 282.832031 335.046875 C 282.832031 335.046875 283.683594 338.578125 280.25 337.75 C 280.25 337.75 280.667969 340.6875 276.058594 338.507812 C 274.835938 337.933594 252.230469 326.765625 247.507812 326.339844 C 243.453125 326.125 239.398438 326.125 235.34375 326.339844 Z M 233.671875 309.113281 " fill-opacity="1" fill-rule="nonzero"/><path fill="#ffa664" d="M 39.449219 219.003906 C 39.449219 219.003906 10.796875 214.574219 6.132812 210.851562 C 1.46875 207.125 21.039062 209.335938 21.039062 209.335938 C 21.039062 209.335938 1.234375 204.109375 1.699219 200.601562 C 2.164062 197.09375 22.203125 202.75 22.203125 202.75 C 22.203125 202.75 0.0351562 194.132812 1.691406 190.5 C 3.1875 187.234375 22.75 197.160156 22.75 197.160156 C 22.75 197.160156 19.675781 191.25 18.648438 185.625 C 17.722656 180.515625 19.90625 177.132812 24.242188 176.425781 C 33.5625 174.910156 35.003906 179.5625 29.425781 181.375 C 26.257812 182.40625 24.648438 182.726562 24.648438 184.078125 C 24.648438 185.429688 27.097656 194.738281 30.589844 194.96875 C 34.082031 195.199219 37.109375 188.332031 32.21875 182.386719 C 29.617188 179.222656 34.199219 178.332031 37.691406 181.570312 C 41.1875 184.808594 43.773438 202.710938 43.773438 202.710938 Z M 39.449219 219.003906 " fill-opacity="1" fill-rule="nonzero"/><path fill="#2e294e" d="M 149.402344 64.871094 C 149.402344 64.871094 182.480469 60.136719 191.691406 32.25 C 191.691406 32.25 196.789062 61.136719 217.839844 64.871094 C 217.839844 64.871094 227.515625 20.75 183.617188 20.75 C 141.378906 20.75 149.402344 64.871094 149.402344 64.871094 Z M 149.402344 64.871094 " fill-opacity="1" fill-rule="nonzero"/><path fill="#2e294e" d="M 193.984375 26.679688 C 187.265625 40.699219 199.871094 69.007812 218.265625 61.117188 C 218.859375 60.859375 218.347656 59.988281 217.75 60.238281 C 200.34375 67.675781 188.605469 40.226562 194.855469 27.191406 C 195.140625 26.605469 194.261719 26.089844 193.976562 26.679688 Z M 193.984375 26.679688 " fill-opacity="1" fill-rule="nonzero"/><path fill="#2e294e" d="M 189.886719 32.585938 C 189.75 33.738281 189.550781 34.882812 189.296875 36.015625 C 189.039062 37.148438 188.726562 38.265625 188.355469 39.363281 C 187.984375 40.464844 187.5625 41.542969 187.078125 42.597656 C 186.597656 43.65625 186.066406 44.6875 185.480469 45.6875 C 184.894531 46.691406 184.257812 47.660156 183.574219 48.597656 C 182.886719 49.53125 182.15625 50.433594 181.378906 51.292969 C 180.601562 52.15625 179.78125 52.976562 178.921875 53.753906 C 178.058594 54.53125 177.160156 55.265625 176.222656 55.949219 C 175.285156 56.636719 174.316406 57.273438 173.316406 57.859375 C 172.316406 58.445312 171.285156 58.980469 170.230469 59.460938 C 169.175781 59.941406 168.097656 60.367188 166.996094 60.738281 C 165.898438 61.109375 164.78125 61.421875 163.648438 61.679688 C 162.515625 61.9375 161.375 62.132812 160.222656 62.273438 C 159.070312 62.414062 157.914062 62.492188 156.753906 62.515625 C 155.59375 62.535156 154.4375 62.496094 153.277344 62.398438 C 152.121094 62.300781 150.972656 62.144531 149.835938 61.929688 C 149.199219 61.808594 148.921875 62.789062 149.5625 62.910156 C 150.742188 63.132812 151.929688 63.296875 153.121094 63.398438 C 154.316406 63.503906 155.515625 63.542969 156.710938 63.523438 C 157.910156 63.503906 159.105469 63.421875 160.296875 63.277344 C 161.488281 63.132812 162.667969 62.929688 163.835938 62.667969 C 165.007812 62.402344 166.160156 62.078125 167.296875 61.695312 C 168.433594 61.3125 169.546875 60.871094 170.636719 60.375 C 171.726562 59.878906 172.789062 59.328125 173.824219 58.71875 C 174.859375 58.113281 175.859375 57.457031 176.828125 56.746094 C 177.792969 56.035156 178.722656 55.28125 179.613281 54.476562 C 180.5 53.671875 181.347656 52.824219 182.148438 51.929688 C 182.949219 51.039062 183.707031 50.109375 184.414062 49.140625 C 185.117188 48.171875 185.773438 47.167969 186.378906 46.132812 C 186.980469 45.097656 187.53125 44.03125 188.027344 42.9375 C 188.519531 41.847656 188.957031 40.730469 189.335938 39.59375 C 189.71875 38.457031 190.039062 37.300781 190.300781 36.128906 C 190.5625 34.960938 190.761719 33.777344 190.902344 32.585938 C 190.984375 31.910156 189.964844 31.945312 189.886719 32.585938 Z M 189.886719 32.585938 " fill-opacity="1" fill-rule="nonzero"/><path fill="#2e294e" d="M 176.453125 1.5625 C 169.09375 2.027344 162.445312 3.664062 159.742188 11.304688 C 157.550781 17.558594 158.320312 25.339844 166.085938 26.582031 C 166.722656 26.683594 167 25.710938 166.355469 25.601562 C 158.550781 24.351562 158.660156 16.007812 161.273438 10.214844 C 164.09375 3.96875 170.257812 2.980469 176.425781 2.570312 C 177.101562 2.527344 177.101562 1.507812 176.425781 1.554688 Z M 176.453125 1.5625 " fill-opacity="1" fill-rule="nonzero"/><path fill="#168aa6" d="M 238.910156 309.4375 C 225.558594 303.648438 142.171875 266.574219 107.027344 262.152344 C 72.226562 257.777344 66.960938 284.5625 79.835938 303.292969 C 92.707031 322.019531 239.234375 327.089844 239.234375 327.089844 Z M 238.910156 309.4375 " fill-opacity="1" fill-rule="nonzero"/><path fill="#2e294e" d="M 182.21875 83.085938 C 181.964844 83.085938 181.746094 83 181.554688 82.835938 C 181.363281 82.671875 181.25 82.464844 181.214844 82.214844 C 181.179688 81.964844 181.230469 81.734375 181.367188 81.519531 C 181.503906 81.308594 181.691406 81.167969 181.933594 81.097656 C 183.078125 80.757812 184.230469 80.0625 184.304688 79.667969 C 184.304688 79.609375 184.238281 79.367188 183.746094 78.992188 C 181.980469 77.640625 182.527344 72.875 182.738281 71.457031 C 182.757812 71.320312 182.804688 71.195312 182.871094 71.078125 C 182.941406 70.960938 183.03125 70.863281 183.140625 70.78125 C 183.25 70.699219 183.371094 70.644531 183.5 70.609375 C 183.632812 70.578125 183.765625 70.570312 183.902344 70.589844 C 184.035156 70.609375 184.160156 70.65625 184.277344 70.722656 C 184.394531 70.792969 184.492188 70.882812 184.574219 70.992188 C 184.65625 71.101562 184.710938 71.222656 184.746094 71.351562 C 184.777344 71.484375 184.785156 71.617188 184.765625 71.753906 C 184.394531 74.269531 184.515625 77.007812 185.007812 77.398438 C 186.320312 78.414062 186.441406 79.425781 186.320312 80.070312 C 185.960938 81.960938 183.097656 82.894531 182.527344 83.0625 C 182.425781 83.085938 182.324219 83.09375 182.21875 83.085938 Z M 182.21875 83.085938 " fill-opacity="1" fill-rule="nonzero"/><path fill="#2e294e" d="M 200.480469 57.757812 C 201.0625 57.882812 201.613281 58.058594 202.128906 58.28125 C 202.648438 58.507812 203.089844 58.765625 203.460938 59.054688 C 203.828125 59.34375 204.097656 59.644531 204.265625 59.953125 C 204.433594 60.261719 204.484375 60.558594 204.425781 60.84375 C 204.363281 61.125 204.191406 61.375 203.914062 61.585938 C 203.632812 61.800781 203.265625 61.960938 202.808594 62.074219 C 202.351562 62.183594 201.84375 62.234375 201.28125 62.226562 C 200.714844 62.21875 200.140625 62.152344 199.558594 62.023438 C 198.972656 61.898438 198.421875 61.722656 197.90625 61.5 C 197.390625 61.273438 196.949219 61.015625 196.578125 60.726562 C 196.207031 60.4375 195.9375 60.136719 195.773438 59.828125 C 195.605469 59.519531 195.550781 59.222656 195.613281 58.9375 C 195.671875 58.65625 195.84375 58.40625 196.125 58.195312 C 196.402344 57.980469 196.773438 57.820312 197.230469 57.707031 C 197.683594 57.597656 198.195312 57.546875 198.757812 57.554688 C 199.320312 57.5625 199.894531 57.628906 200.480469 57.757812 Z M 200.480469 57.757812 " fill-opacity="1" fill-rule="nonzero"/><path fill="#2e294e" d="M 171.832031 58.914062 C 171.894531 59.199219 171.839844 59.496094 171.671875 59.804688 C 171.507812 60.113281 171.238281 60.414062 170.867188 60.703125 C 170.496094 60.992188 170.054688 61.25 169.539062 61.476562 C 169.023438 61.699219 168.472656 61.875 167.886719 62 C 167.304688 62.128906 166.730469 62.195312 166.167969 62.203125 C 165.601562 62.210938 165.09375 62.160156 164.636719 62.050781 C 164.179688 61.9375 163.8125 61.777344 163.53125 61.5625 C 163.253906 61.351562 163.082031 61.101562 163.019531 60.820312 C 162.960938 60.535156 163.011719 60.238281 163.179688 59.929688 C 163.347656 59.621094 163.617188 59.320312 163.984375 59.03125 C 164.355469 58.742188 164.796875 58.484375 165.316406 58.257812 C 165.832031 58.035156 166.382812 57.859375 166.964844 57.734375 C 167.550781 57.605469 168.125 57.539062 168.6875 57.53125 C 169.25 57.523438 169.761719 57.574219 170.214844 57.683594 C 170.671875 57.796875 171.042969 57.957031 171.320312 58.171875 C 171.601562 58.382812 171.773438 58.632812 171.832031 58.914062 Z M 171.832031 58.914062 " fill-opacity="1" fill-rule="nonzero"/><path fill="#2e294e" d="M 169.535156 72.734375 C 166.859375 72.636719 164.417969 71.828125 162.214844 70.3125 C 162.007812 70.140625 161.886719 69.921875 161.851562 69.652344 C 161.820312 69.386719 161.882812 69.144531 162.042969 68.925781 C 162.203125 68.710938 162.414062 68.578125 162.679688 68.53125 C 162.949219 68.484375 163.191406 68.535156 163.417969 68.683594 C 163.667969 68.867188 169.5625 73.105469 174.621094 68.730469 C 174.722656 68.640625 174.839844 68.574219 174.96875 68.53125 C 175.09375 68.488281 175.226562 68.46875 175.363281 68.480469 C 175.496094 68.488281 175.625 68.523438 175.746094 68.582031 C 175.867188 68.640625 175.972656 68.722656 176.0625 68.824219 C 176.152344 68.925781 176.21875 69.039062 176.265625 69.167969 C 176.308594 69.296875 176.324219 69.429688 176.316406 69.5625 C 176.308594 69.699219 176.273438 69.828125 176.214844 69.949219 C 176.15625 70.070312 176.074219 70.175781 175.972656 70.265625 C 175.089844 71.0625 174.09375 71.675781 172.984375 72.101562 C 171.875 72.527344 170.722656 72.738281 169.535156 72.734375 Z M 169.535156 72.734375 " fill-opacity="1" fill-rule="nonzero"/><path fill="#2e294e" d="M 183.90625 92.203125 C 181.234375 92.113281 178.792969 91.316406 176.582031 89.804688 C 176.375 89.632812 176.253906 89.414062 176.21875 89.144531 C 176.1875 88.878906 176.25 88.636719 176.410156 88.417969 C 176.570312 88.199219 176.78125 88.070312 177.050781 88.023438 C 177.316406 87.976562 177.558594 88.027344 177.785156 88.175781 C 178.035156 88.359375 183.929688 92.597656 188.988281 88.222656 C 189.089844 88.132812 189.207031 88.066406 189.335938 88.023438 C 189.464844 87.976562 189.59375 87.960938 189.730469 87.96875 C 189.867188 87.976562 189.992188 88.011719 190.117188 88.070312 C 190.238281 88.132812 190.34375 88.210938 190.433594 88.3125 C 190.523438 88.414062 190.589844 88.53125 190.632812 88.660156 C 190.675781 88.785156 190.695312 88.917969 190.6875 89.054688 C 190.675781 89.191406 190.644531 89.316406 190.582031 89.441406 C 190.523438 89.5625 190.441406 89.667969 190.339844 89.757812 C 189.457031 90.550781 188.460938 91.15625 187.351562 91.578125 C 186.242188 92 185.09375 92.210938 183.90625 92.203125 Z M 183.90625 92.203125 " fill-opacity="1" fill-rule="nonzero"/><path fill="#2e294e" d="M 162.445312 73.160156 C 162.242188 73.160156 162.054688 73.101562 161.886719 72.992188 C 161.714844 72.878906 161.589844 72.730469 161.511719 72.542969 C 161.433594 72.355469 161.410156 72.160156 161.449219 71.960938 C 161.484375 71.761719 161.574219 71.589844 161.714844 71.441406 L 163.289062 69.8125 C 163.382812 69.710938 163.488281 69.632812 163.613281 69.574219 C 163.738281 69.515625 163.867188 69.484375 164.003906 69.480469 C 164.144531 69.476562 164.273438 69.496094 164.402344 69.546875 C 164.53125 69.597656 164.644531 69.667969 164.742188 69.761719 C 164.84375 69.859375 164.917969 69.96875 164.972656 70.09375 C 165.027344 70.222656 165.054688 70.351562 165.054688 70.488281 C 165.054688 70.628906 165.027344 70.757812 164.976562 70.886719 C 164.921875 71.011719 164.847656 71.121094 164.75 71.21875 L 163.175781 72.847656 C 162.976562 73.054688 162.730469 73.160156 162.445312 73.160156 Z M 162.445312 73.160156 " fill-opacity="1" fill-rule="nonzero"/><path fill="#2e294e" d="M 165.207031 74.296875 C 165.003906 74.292969 164.820312 74.238281 164.648438 74.125 C 164.480469 74.015625 164.355469 73.863281 164.277344 73.675781 C 164.195312 73.492188 164.175781 73.296875 164.210938 73.097656 C 164.25 72.898438 164.335938 72.722656 164.480469 72.578125 L 166.242188 70.753906 C 166.335938 70.652344 166.441406 70.570312 166.566406 70.511719 C 166.691406 70.457031 166.820312 70.425781 166.960938 70.421875 C 167.097656 70.414062 167.226562 70.4375 167.355469 70.488281 C 167.484375 70.535156 167.597656 70.609375 167.695312 70.703125 C 167.796875 70.796875 167.871094 70.910156 167.925781 71.035156 C 167.980469 71.160156 168.007812 71.292969 168.007812 71.429688 C 168.007812 71.566406 167.980469 71.699219 167.929688 71.824219 C 167.875 71.953125 167.800781 72.0625 167.703125 72.160156 L 165.9375 73.984375 C 165.738281 74.191406 165.496094 74.292969 165.207031 74.296875 Z M 165.207031 74.296875 " fill-opacity="1" fill-rule="nonzero"/><path fill="#2e294e" d="M 198.390625 72.734375 C 197.207031 72.738281 196.066406 72.535156 194.960938 72.117188 C 193.855469 71.699219 192.859375 71.097656 191.976562 70.3125 C 191.875 70.222656 191.792969 70.117188 191.734375 69.996094 C 191.675781 69.875 191.640625 69.746094 191.632812 69.609375 C 191.625 69.476562 191.640625 69.34375 191.683594 69.214844 C 191.730469 69.085938 191.796875 68.972656 191.886719 68.871094 C 191.976562 68.769531 192.082031 68.6875 192.203125 68.628906 C 192.324219 68.566406 192.453125 68.535156 192.589844 68.523438 C 192.722656 68.515625 192.855469 68.535156 192.984375 68.578125 C 193.113281 68.621094 193.226562 68.6875 193.328125 68.777344 C 198.390625 73.152344 204.28125 68.914062 204.53125 68.730469 C 204.746094 68.644531 204.964844 68.632812 205.1875 68.699219 C 205.410156 68.761719 205.589844 68.886719 205.726562 69.070312 C 205.863281 69.257812 205.929688 69.464844 205.921875 69.699219 C 205.917969 69.929688 205.839844 70.132812 205.695312 70.3125 C 203.496094 71.828125 201.058594 72.632812 198.390625 72.734375 Z M 198.390625 72.734375 " fill-opacity="1" fill-rule="nonzero"/><path fill="#2e294e" d="M 205.457031 73.160156 C 205.171875 73.160156 204.929688 73.054688 204.730469 72.847656 L 203.15625 71.21875 C 203.054688 71.121094 202.980469 71.011719 202.929688 70.886719 C 202.875 70.757812 202.847656 70.628906 202.851562 70.488281 C 202.851562 70.351562 202.878906 70.222656 202.929688 70.09375 C 202.984375 69.96875 203.0625 69.859375 203.160156 69.761719 C 203.257812 69.667969 203.371094 69.597656 203.5 69.546875 C 203.628906 69.496094 203.761719 69.476562 203.898438 69.480469 C 204.035156 69.484375 204.164062 69.515625 204.289062 69.574219 C 204.414062 69.632812 204.523438 69.710938 204.613281 69.8125 L 206.1875 71.441406 C 206.328125 71.589844 206.417969 71.761719 206.457031 71.960938 C 206.492188 72.160156 206.472656 72.355469 206.390625 72.542969 C 206.3125 72.730469 206.1875 72.878906 206.019531 72.992188 C 205.847656 73.101562 205.664062 73.160156 205.460938 73.160156 Z M 205.457031 73.160156 " fill-opacity="1" fill-rule="nonzero"/><path fill="#2e294e" d="M 202.714844 74.296875 C 202.429688 74.292969 202.183594 74.191406 201.984375 73.984375 L 200.222656 72.160156 C 200.125 72.0625 200.046875 71.953125 199.996094 71.824219 C 199.941406 71.699219 199.917969 71.566406 199.917969 71.429688 C 199.917969 71.292969 199.945312 71.160156 200 71.035156 C 200.050781 70.910156 200.128906 70.796875 200.226562 70.703125 C 200.324219 70.609375 200.4375 70.535156 200.566406 70.488281 C 200.695312 70.4375 200.828125 70.414062 200.964844 70.421875 C 201.101562 70.425781 201.230469 70.457031 201.355469 70.511719 C 201.480469 70.570312 201.589844 70.652344 201.679688 70.753906 L 203.445312 72.578125 C 203.585938 72.722656 203.675781 72.898438 203.710938 73.097656 C 203.75 73.296875 203.726562 73.492188 203.648438 73.675781 C 203.566406 73.863281 203.445312 74.015625 203.273438 74.125 C 203.105469 74.238281 202.917969 74.292969 202.714844 74.296875 Z M 202.714844 74.296875 " fill-opacity="1" fill-rule="nonzero"/><path fill="#52b69a" d="M 118.441406 114.125 C 110.847656 112.519531 112.867188 102.949219 120.46875 104.554688 C 122.214844 96.300781 131.777344 98.316406 130.03125 106.585938 L 128.003906 116.152344 Z M 118.441406 114.125 " fill-opacity="1" fill-rule="nonzero"/><path fill="#52b69a" d="M 225.96875 105.503906 C 222.304688 98.65625 230.921875 94.007812 234.585938 100.886719 C 242.019531 96.902344 246.636719 105.523438 239.203125 109.503906 L 230.585938 114.125 Z M 225.96875 105.503906 " fill-opacity="1" fill-rule="nonzero"/><path fill="#52b69a" d="M 122.152344 79.859375 C 117.375 75.476562 122.890625 69.453125 127.667969 73.835938 C 132.398438 68.636719 138.480469 74.152344 133.6875 79.351562 L 128.175781 85.375 Z M 122.152344 79.859375 " fill-opacity="1" fill-rule="nonzero"/><path fill="#52b69a" d="M 240.835938 79.859375 C 236.058594 75.476562 241.574219 69.453125 246.351562 73.835938 C 251.082031 68.636719 257.164062 74.152344 252.371094 79.351562 L 246.859375 85.375 Z M 240.835938 79.859375 " fill-opacity="1" fill-rule="nonzero"/></svg>