<svg xmlns="http://www.w3.org/2000/svg" xmlns:xlink="http://www.w3.org/1999/xlink" width="500" zoomAndPan="magnify" viewBox="0 0 375 374.999991" height="500" preserveAspectRatio="xMidYMid meet" version="1.0"><defs><g/></defs><g fill="#76c893" fill-opacity="1"><g transform="translate(2.313737, 269.139441)"><g><path d="M 182.894531 0 L 182.894531 -178.871094 L 4.023438 -178.871094 L 4.023438 -137.839844 L 12.871094 -137.839844 L 12.871094 0 L 48.808594 0 L 48.808594 -137.839844 L 71.066406 -137.839844 L 71.066406 0 L 115.851562 0 L 115.851562 -137.839844 L 138.109375 -137.839844 L 138.109375 0 Z M 182.894531 0 "/></g></g></g><g fill="#ffffff" fill-opacity="1"><g transform="translate(192.168598, 269.139441)"><g><path d="M 182.894531 0 L 182.894531 -178.871094 L 138.109375 -178.871094 L 138.109375 -40.761719 L 115.851562 -40.761719 L 115.851562 -178.871094 L 71.066406 -178.871094 L 71.066406 -40.761719 L 48.808594 -40.761719 L 48.808594 -178.871094 L 4.023438 -178.871094 L 4.023438 -137.839844 L 12.871094 -137.839844 L 12.871094 0 Z M 182.894531 0 "/></g></g></g></svg>