<svg xmlns="http://www.w3.org/2000/svg" xmlns:xlink="http://www.w3.org/1999/xlink" width="1900" zoomAndPan="magnify" viewBox="0 0 1425 449.999984" height="600" preserveAspectRatio="xMidYMid meet" version="1.0"><defs><clipPath id="3c4b6a5071"><path d="M 287.515625 26.421875 L 1096.765625 26.421875 L 1096.765625 423.921875 L 287.515625 423.921875 Z M 287.515625 26.421875 " clip-rule="nonzero"/></clipPath></defs><g clip-path="url(#3c4b6a5071)"><path fill="#000000" d="M 1074.109375 411.039062 C 1071.535156 408.875 1068.941406 406.777344 1066.332031 404.742188 C 1063.59375 402.605469 1063.101562 398.648438 1065.234375 395.90625 C 1067.367188 393.167969 1071.324219 392.675781 1074.0625 394.8125 C 1077.355469 397.375 1080.625 400.039062 1083.863281 402.804688 L 1083.683594 390.480469 C 1083.628906 387.007812 1086.40625 384.144531 1089.878906 384.09375 C 1093.351562 384.042969 1096.210938 386.820312 1096.261719 390.296875 L 1096.753906 423.289062 L 1063.773438 423.78125 C 1060.304688 423.832031 1057.441406 421.054688 1057.390625 417.582031 C 1057.339844 414.109375 1060.117188 411.246094 1063.589844 411.195312 Z M 288.480469 36.234375 C 287.503906 34.242188 287.613281 31.789062 288.976562 29.847656 C 290.921875 27.070312 293.128906 26.769531 294.207031 26.691406 C 296.71875 26.507812 299.246094 27.359375 300.652344 30.683594 C 300.945312 31.382812 301.300781 32.730469 301.253906 34.558594 C 301.195312 36.660156 300.429688 40.804688 300.683594 42.703125 C 301.269531 47.148438 302 51.582031 302.773438 56 C 303.375 59.421875 301.085938 62.6875 297.664062 63.285156 C 294.242188 63.886719 290.980469 61.59375 290.382812 58.171875 C 289.578125 53.582031 288.820312 48.976562 288.207031 44.359375 C 287.992188 42.726562 288.269531 38.742188 288.480469 36.234375 Z M 295.839844 83.292969 C 294.949219 79.933594 296.953125 76.484375 300.308594 75.597656 C 303.667969 74.707031 307.113281 76.714844 308 80.070312 C 310.105469 88.027344 312.546875 95.890625 315.253906 103.667969 C 316.398438 106.949219 314.664062 110.542969 311.386719 111.683594 C 308.105469 112.828125 304.519531 111.09375 303.375 107.8125 C 300.5625 99.730469 298.027344 91.558594 295.839844 83.292969 Z M 312.539062 131.667969 C 311.199219 128.460938 312.714844 124.769531 315.914062 123.433594 C 319.121094 122.09375 322.808594 123.609375 324.148438 126.8125 C 326.257812 131.863281 328.453125 136.878906 330.714844 141.851562 C 331.878906 144.410156 333.066406 146.953125 334.289062 149.484375 C 335.796875 152.613281 334.484375 156.378906 331.355469 157.886719 C 328.226562 159.398438 324.460938 158.082031 322.957031 154.953125 C 321.695312 152.335938 320.464844 149.710938 319.261719 147.066406 C 316.945312 141.972656 314.699219 136.839844 312.539062 131.667969 Z M 334.820312 177.625 C 333.105469 174.601562 334.167969 170.757812 337.1875 169.042969 C 340.210938 167.332031 344.050781 168.394531 345.761719 171.417969 C 349.832031 178.601562 354.140625 185.644531 358.679688 192.519531 C 360.59375 195.417969 359.792969 199.324219 356.898438 201.242188 C 354 203.15625 350.09375 202.355469 348.179688 199.457031 C 343.484375 192.34375 339.03125 185.058594 334.820312 177.625 Z M 363.03125 220.324219 C 360.917969 217.566406 361.441406 213.613281 364.191406 211.5 C 366.949219 209.386719 370.902344 209.90625 373.015625 212.664062 C 378.03125 219.207031 383.277344 225.566406 388.746094 231.710938 C 391.058594 234.304688 390.828125 238.289062 388.234375 240.597656 C 385.640625 242.910156 381.664062 242.679688 379.351562 240.082031 C 373.679688 233.707031 368.234375 227.113281 363.03125 220.324219 Z M 397.117188 258.578125 C 394.617188 256.167969 394.546875 252.179688 396.953125 249.679688 C 399.363281 247.179688 403.351562 247.105469 405.847656 249.515625 C 411.769531 255.222656 417.910156 260.699219 424.265625 265.917969 C 426.953125 268.125 427.339844 272.09375 425.136719 274.777344 C 422.929688 277.464844 418.964844 277.855469 416.285156 275.648438 C 409.671875 270.21875 403.277344 264.519531 397.117188 258.578125 Z M 436.777344 291.125 C 433.921875 289.148438 433.207031 285.222656 435.183594 282.367188 C 437.152344 279.507812 441.078125 278.792969 443.9375 280.765625 C 450.667969 285.429688 457.613281 289.8125 464.761719 293.90625 C 467.773438 295.628906 468.824219 299.476562 467.097656 302.492188 C 465.375 305.507812 461.527344 306.558594 458.511719 304.832031 C 451.054688 300.5625 443.8125 295.984375 436.777344 291.125 Z M 481.359375 316.621094 C 478.207031 315.164062 476.828125 311.421875 478.285156 308.265625 C 479.738281 305.113281 483.480469 303.734375 486.628906 305.1875 C 488.710938 306.148438 490.804688 307.085938 492.914062 307.996094 C 498.375 310.355469 503.875 312.53125 509.414062 314.539062 C 512.679688 315.722656 514.371094 319.335938 513.1875 322.601562 C 512 325.867188 508.394531 327.558594 505.128906 326.375 C 499.351562 324.28125 493.621094 322.011719 487.929688 319.554688 C 485.726562 318.601562 483.535156 317.625 481.359375 316.621094 Z M 529.570312 334.152344 C 526.222656 333.226562 524.257812 329.757812 525.179688 326.410156 C 526.109375 323.0625 529.570312 321.09375 532.917969 322.015625 C 540.871094 324.214844 548.886719 326.109375 556.964844 327.738281 C 560.367188 328.425781 562.578125 331.746094 561.886719 335.152344 C 561.203125 338.558594 557.882812 340.765625 554.480469 340.078125 C 546.109375 338.390625 537.800781 336.425781 529.570312 334.152344 Z M 579.667969 344.339844 C 576.230469 343.863281 573.824219 340.683594 574.296875 337.242188 C 574.773438 333.800781 577.953125 331.394531 581.390625 331.867188 C 589.570312 333 597.800781 333.902344 606.074219 334.609375 C 609.535156 334.902344 612.101562 337.953125 611.808594 341.414062 C 611.515625 344.875 608.464844 347.445312 605.003906 347.152344 C 596.511719 346.425781 588.0625 345.5 579.667969 344.339844 Z M 630.386719 348.75 C 626.917969 348.601562 624.21875 345.667969 624.367188 342.195312 C 624.511719 338.726562 627.445312 336.023438 630.914062 336.171875 C 639.195312 336.519531 647.515625 336.707031 655.859375 336.769531 C 659.324219 336.796875 662.125 339.636719 662.101562 343.113281 C 662.074219 346.585938 659.230469 349.382812 655.761719 349.355469 C 647.273438 349.296875 638.8125 349.101562 630.386719 348.75 Z M 681.089844 349.203125 C 677.617188 349.265625 674.742188 346.5 674.683594 343.023438 C 674.617188 339.550781 677.382812 336.679688 680.855469 336.613281 C 689.1875 336.457031 697.535156 336.210938 705.894531 335.902344 C 709.363281 335.777344 712.285156 338.492188 712.414062 341.960938 C 712.542969 345.433594 709.828125 348.355469 706.355469 348.484375 C 697.921875 348.796875 689.496094 349.046875 681.089844 349.203125 Z M 731.566406 347.40625 C 728.097656 347.570312 725.148438 344.886719 724.984375 341.417969 C 724.820312 337.949219 727.5 334.996094 730.96875 334.832031 C 739.339844 334.433594 747.714844 334.007812 756.082031 333.585938 C 759.550781 333.410156 762.511719 336.085938 762.683594 339.554688 C 762.859375 343.023438 760.183594 345.984375 756.71875 346.160156 C 748.335938 346.582031 739.949219 347.007812 731.566406 347.40625 Z M 781.824219 344.929688 C 778.355469 345.089844 775.410156 342.402344 775.25 338.929688 C 775.089844 335.460938 777.773438 332.511719 781.246094 332.351562 C 789.667969 331.964844 798.074219 331.609375 806.460938 331.320312 C 809.933594 331.199219 812.84375 333.921875 812.964844 337.394531 C 813.082031 340.867188 810.363281 343.78125 806.890625 343.902344 C 798.558594 344.1875 790.199219 344.539062 781.824219 344.929688 Z M 831.925781 343.273438 C 828.453125 343.324219 825.59375 340.542969 825.542969 337.070312 C 825.492188 333.597656 828.273438 330.734375 831.742188 330.683594 C 840.222656 330.5625 848.671875 330.539062 857.085938 330.65625 C 860.558594 330.703125 863.335938 333.5625 863.289062 337.035156 C 863.242188 340.507812 860.386719 343.289062 856.914062 343.242188 C 848.621094 343.128906 840.285156 343.152344 831.925781 343.273438 Z M 881.828125 344.027344 C 878.359375 343.851562 875.691406 340.890625 875.863281 337.421875 C 876.039062 333.949219 879 331.277344 882.46875 331.453125 C 890.984375 331.886719 899.449219 332.496094 907.855469 333.320312 C 911.3125 333.65625 913.84375 336.738281 913.507812 340.195312 C 913.167969 343.652344 910.085938 346.1875 906.628906 345.847656 C 898.417969 345.042969 890.148438 344.449219 881.828125 344.027344 Z M 931.242188 348.941406 C 927.8125 348.40625 925.457031 345.1875 925.992188 341.753906 C 926.527344 338.324219 929.746094 335.96875 933.175781 336.503906 C 941.628906 337.820312 950.011719 339.390625 958.3125 341.261719 C 961.699219 342.023438 963.828125 345.394531 963.066406 348.78125 C 962.304688 352.175781 958.9375 354.304688 955.550781 353.542969 C 947.523438 351.734375 939.417969 350.214844 931.242188 348.941406 Z M 979.402344 359.867188 C 976.082031 358.84375 974.214844 355.320312 975.234375 352 C 976.257812 348.679688 979.777344 346.808594 983.09375 347.832031 C 991.265625 350.34375 999.339844 353.191406 1007.316406 356.410156 C 1010.535156 357.707031 1012.097656 361.382812 1010.800781 364.601562 C 1009.5 367.828125 1005.828125 369.382812 1002.609375 368.085938 C 994.964844 365 987.226562 362.269531 979.402344 359.867188 Z M 1024.96875 378.304688 C 1021.882812 376.722656 1020.660156 372.921875 1022.25 369.832031 C 1023.835938 366.742188 1027.632812 365.519531 1030.71875 367.109375 C 1038.265625 370.988281 1045.710938 375.257812 1053.042969 379.941406 C 1055.96875 381.816406 1056.824219 385.707031 1054.957031 388.640625 C 1053.085938 391.566406 1049.195312 392.425781 1046.269531 390.550781 C 1039.269531 386.078125 1032.171875 382.007812 1024.96875 378.304688 Z M 1024.96875 378.304688 " fill-opacity="1" fill-rule="evenodd"/></g></svg>