<svg xmlns="http://www.w3.org/2000/svg" xmlns:xlink="http://www.w3.org/1999/xlink" width="1900" zoomAndPan="magnify" viewBox="0 0 1425 449.999984" height="600" preserveAspectRatio="xMidYMid meet" version="1.0"><defs><g/><clipPath id="fef535c4fe"><path d="M 1143.011719 113 L 1380.15625 113 L 1380.15625 336 L 1143.011719 336 Z M 1143.011719 113 " clip-rule="nonzero"/></clipPath><clipPath id="bcf1729cb1"><path d="M 252 328.109375 L 1007.3125 328.109375 L 1007.3125 374.789062 L 252 374.789062 Z M 252 328.109375 " clip-rule="nonzero"/></clipPath></defs><rect x="-142.5" width="1710" fill="#ffffff" y="-44.999998" height="539.99998" fill-opacity="1"/><rect x="-142.5" width="1710" fill="#ffffff" y="-44.999998" height="539.99998" fill-opacity="1"/><rect x="-142.5" width="1710" fill="#ffffff" y="-44.999998" height="539.99998" fill-opacity="1"/><g clip-path="url(#fef535c4fe)"><path fill="#52b69a" d="M 1356.441406 170.105469 L 1329.761719 170.105469 L 1329.761719 146.441406 C 1329.761719 145.375 1329.707031 144.3125 1329.601562 143.253906 C 1329.496094 142.195312 1329.339844 141.140625 1329.128906 140.097656 C 1328.921875 139.050781 1328.660156 138.019531 1328.351562 137 C 1328.039062 135.980469 1327.679688 134.980469 1327.269531 133.996094 C 1326.863281 133.011719 1326.40625 132.050781 1325.902344 131.109375 C 1325.398438 130.171875 1324.851562 129.257812 1324.257812 128.375 C 1323.664062 127.488281 1323.027344 126.632812 1322.351562 125.808594 C 1321.671875 124.984375 1320.957031 124.199219 1320.203125 123.445312 C 1319.445312 122.691406 1318.65625 121.976562 1317.832031 121.300781 C 1317.007812 120.625 1316.148438 119.992188 1315.261719 119.398438 C 1314.375 118.804688 1313.460938 118.257812 1312.519531 117.757812 C 1311.578125 117.253906 1310.613281 116.800781 1309.628906 116.390625 C 1308.640625 115.984375 1307.636719 115.625 1306.617188 115.3125 C 1305.59375 115.003906 1304.5625 114.746094 1303.515625 114.535156 C 1302.46875 114.328125 1301.414062 114.171875 1300.351562 114.066406 C 1299.289062 113.960938 1298.222656 113.90625 1297.15625 113.90625 L 1226.011719 113.90625 C 1224.945312 113.90625 1223.878906 113.960938 1222.816406 114.066406 C 1221.753906 114.171875 1220.699219 114.328125 1219.652344 114.535156 C 1218.605469 114.746094 1217.570312 115.003906 1216.550781 115.3125 C 1215.527344 115.625 1214.523438 115.984375 1213.539062 116.390625 C 1212.550781 116.800781 1211.589844 117.253906 1210.648438 117.757812 C 1209.707031 118.257812 1208.789062 118.804688 1207.902344 119.398438 C 1207.015625 119.992188 1206.160156 120.625 1205.335938 121.300781 C 1204.507812 121.976562 1203.71875 122.691406 1202.964844 123.445312 C 1202.210938 124.199219 1201.492188 124.984375 1200.816406 125.808594 C 1200.136719 126.632812 1199.503906 127.488281 1198.910156 128.375 C 1198.316406 129.257812 1197.765625 130.171875 1197.265625 131.109375 C 1196.761719 132.050781 1196.304688 133.011719 1195.894531 133.996094 C 1195.484375 134.980469 1195.125 135.980469 1194.816406 137 C 1194.503906 138.019531 1194.246094 139.050781 1194.035156 140.097656 C 1193.828125 141.140625 1193.667969 142.195312 1193.5625 143.253906 C 1193.457031 144.3125 1193.40625 145.375 1193.402344 146.441406 L 1193.402344 170.105469 L 1166.726562 170.105469 C 1165.949219 170.105469 1165.171875 170.144531 1164.402344 170.21875 C 1163.628906 170.296875 1162.859375 170.410156 1162.097656 170.558594 C 1161.335938 170.710938 1160.585938 170.898438 1159.839844 171.125 C 1159.097656 171.347656 1158.367188 171.609375 1157.648438 171.90625 C 1156.933594 172.203125 1156.230469 172.535156 1155.546875 172.898438 C 1154.859375 173.265625 1154.195312 173.664062 1153.550781 174.09375 C 1152.902344 174.523438 1152.28125 174.984375 1151.679688 175.476562 C 1151.082031 175.96875 1150.503906 176.488281 1149.957031 177.035156 C 1149.40625 177.582031 1148.886719 178.15625 1148.394531 178.757812 C 1147.902344 179.355469 1147.4375 179.976562 1147.007812 180.621094 C 1146.574219 181.265625 1146.175781 181.929688 1145.8125 182.613281 C 1145.445312 183.296875 1145.113281 183.996094 1144.816406 184.710938 C 1144.519531 185.429688 1144.257812 186.15625 1144.03125 186.898438 C 1143.804688 187.640625 1143.617188 188.390625 1143.464844 189.152344 C 1143.316406 189.910156 1143.199219 190.675781 1143.125 191.449219 C 1143.046875 192.21875 1143.011719 192.992188 1143.011719 193.769531 L 1143.011719 312.085938 C 1143.011719 312.859375 1143.046875 313.632812 1143.125 314.402344 C 1143.199219 315.175781 1143.316406 315.941406 1143.464844 316.699219 C 1143.617188 317.460938 1143.804688 318.210938 1144.03125 318.953125 C 1144.257812 319.695312 1144.519531 320.421875 1144.816406 321.140625 C 1145.113281 321.855469 1145.445312 322.554688 1145.8125 323.238281 C 1146.175781 323.921875 1146.574219 324.585938 1147.007812 325.230469 C 1147.4375 325.875 1147.902344 326.496094 1148.394531 327.097656 C 1148.886719 327.695312 1149.40625 328.269531 1149.957031 328.816406 C 1150.503906 329.363281 1151.082031 329.882812 1151.679688 330.375 C 1152.28125 330.867188 1152.902344 331.328125 1153.550781 331.757812 C 1154.195312 332.191406 1154.859375 332.585938 1155.546875 332.953125 C 1156.230469 333.320312 1156.933594 333.648438 1157.648438 333.945312 C 1158.367188 334.242188 1159.097656 334.503906 1159.839844 334.726562 C 1160.585938 334.953125 1161.335938 335.140625 1162.097656 335.292969 C 1162.859375 335.445312 1163.628906 335.558594 1164.402344 335.632812 C 1165.171875 335.710938 1165.949219 335.746094 1166.726562 335.746094 L 1356.441406 335.746094 C 1357.21875 335.746094 1357.992188 335.710938 1358.765625 335.632812 C 1359.539062 335.558594 1360.304688 335.445312 1361.066406 335.292969 C 1361.828125 335.140625 1362.582031 334.953125 1363.324219 334.726562 C 1364.066406 334.503906 1364.796875 334.242188 1365.515625 333.945312 C 1366.234375 333.648438 1366.933594 333.320312 1367.621094 332.953125 C 1368.304688 332.585938 1368.96875 332.191406 1369.617188 331.757812 C 1370.261719 331.328125 1370.886719 330.867188 1371.484375 330.375 C 1372.085938 329.882812 1372.660156 329.363281 1373.210938 328.816406 C 1373.757812 328.269531 1374.28125 327.695312 1374.773438 327.097656 C 1375.265625 326.496094 1375.726562 325.875 1376.160156 325.230469 C 1376.589844 324.585938 1376.988281 323.921875 1377.355469 323.238281 C 1377.722656 322.554688 1378.054688 321.855469 1378.351562 321.140625 C 1378.648438 320.421875 1378.910156 319.695312 1379.132812 318.953125 C 1379.359375 318.210938 1379.546875 317.460938 1379.699219 316.699219 C 1379.851562 315.941406 1379.964844 315.175781 1380.042969 314.402344 C 1380.117188 313.632812 1380.15625 312.859375 1380.15625 312.085938 L 1380.15625 193.769531 C 1380.15625 192.992188 1380.117188 192.21875 1380.042969 191.449219 C 1379.964844 190.675781 1379.851562 189.910156 1379.699219 189.152344 C 1379.546875 188.390625 1379.359375 187.640625 1379.132812 186.898438 C 1378.910156 186.15625 1378.648438 185.429688 1378.351562 184.710938 C 1378.054688 183.996094 1377.722656 183.296875 1377.355469 182.613281 C 1376.988281 181.929688 1376.589844 181.265625 1376.160156 180.621094 C 1375.726562 179.976562 1375.265625 179.355469 1374.773438 178.757812 C 1374.28125 178.15625 1373.757812 177.582031 1373.210938 177.035156 C 1372.660156 176.488281 1372.085938 175.96875 1371.484375 175.476562 C 1370.886719 174.984375 1370.261719 174.523438 1369.617188 174.09375 C 1368.96875 173.664062 1368.304688 173.265625 1367.621094 172.898438 C 1366.933594 172.535156 1366.234375 172.203125 1365.515625 171.90625 C 1364.796875 171.609375 1364.066406 171.347656 1363.324219 171.125 C 1362.582031 170.898438 1361.828125 170.710938 1361.066406 170.558594 C 1360.304688 170.410156 1359.539062 170.296875 1358.765625 170.21875 C 1357.992188 170.144531 1357.21875 170.105469 1356.441406 170.105469 Z M 1199.332031 318 L 1181.546875 318 L 1181.546875 187.851562 L 1199.332031 187.851562 Z M 1297.15625 258.84375 C 1297.15625 259.230469 1297.117188 259.613281 1297.039062 259.996094 C 1296.964844 260.378906 1296.851562 260.746094 1296.703125 261.105469 C 1296.554688 261.464844 1296.371094 261.804688 1296.15625 262.128906 C 1295.9375 262.453125 1295.695312 262.75 1295.417969 263.023438 C 1295.144531 263.300781 1294.84375 263.546875 1294.519531 263.761719 C 1294.195312 263.976562 1293.855469 264.160156 1293.496094 264.308594 C 1293.136719 264.457031 1292.765625 264.566406 1292.382812 264.644531 C 1292 264.71875 1291.617188 264.757812 1291.226562 264.757812 L 1273.441406 264.757812 L 1273.441406 282.503906 C 1273.441406 282.894531 1273.402344 283.277344 1273.328125 283.660156 C 1273.25 284.039062 1273.136719 284.410156 1272.988281 284.769531 C 1272.839844 285.128906 1272.65625 285.46875 1272.441406 285.792969 C 1272.226562 286.113281 1271.980469 286.414062 1271.703125 286.6875 C 1271.429688 286.960938 1271.128906 287.207031 1270.804688 287.425781 C 1270.480469 287.640625 1270.140625 287.820312 1269.78125 287.96875 C 1269.421875 288.121094 1269.050781 288.230469 1268.667969 288.308594 C 1268.285156 288.382812 1267.902344 288.421875 1267.511719 288.421875 L 1255.65625 288.421875 C 1255.265625 288.421875 1254.878906 288.382812 1254.496094 288.308594 C 1254.117188 288.230469 1253.746094 288.121094 1253.386719 287.96875 C 1253.027344 287.820312 1252.683594 287.640625 1252.359375 287.425781 C 1252.035156 287.207031 1251.738281 286.960938 1251.460938 286.6875 C 1251.1875 286.414062 1250.941406 286.113281 1250.726562 285.792969 C 1250.507812 285.46875 1250.324219 285.128906 1250.175781 284.769531 C 1250.027344 284.410156 1249.914062 284.039062 1249.839844 283.660156 C 1249.765625 283.277344 1249.726562 282.894531 1249.726562 282.503906 L 1249.726562 264.757812 L 1231.941406 264.757812 C 1231.550781 264.757812 1231.164062 264.71875 1230.785156 264.644531 C 1230.402344 264.566406 1230.03125 264.457031 1229.671875 264.308594 C 1229.3125 264.160156 1228.96875 263.976562 1228.644531 263.761719 C 1228.324219 263.546875 1228.023438 263.300781 1227.746094 263.023438 C 1227.472656 262.75 1227.226562 262.453125 1227.011719 262.128906 C 1226.792969 261.804688 1226.613281 261.464844 1226.460938 261.105469 C 1226.3125 260.746094 1226.199219 260.378906 1226.125 259.996094 C 1226.050781 259.613281 1226.011719 259.230469 1226.011719 258.84375 L 1226.011719 247.011719 C 1226.011719 246.621094 1226.050781 246.238281 1226.125 245.855469 C 1226.199219 245.476562 1226.3125 245.105469 1226.460938 244.746094 C 1226.613281 244.386719 1226.792969 244.046875 1227.011719 243.722656 C 1227.226562 243.402344 1227.472656 243.101562 1227.746094 242.828125 C 1228.023438 242.550781 1228.324219 242.308594 1228.644531 242.089844 C 1228.96875 241.875 1229.3125 241.695312 1229.671875 241.542969 C 1230.03125 241.394531 1230.402344 241.285156 1230.785156 241.207031 C 1231.164062 241.132812 1231.550781 241.09375 1231.941406 241.09375 L 1249.726562 241.09375 L 1249.726562 223.347656 C 1249.726562 222.957031 1249.765625 222.574219 1249.839844 222.191406 C 1249.914062 221.8125 1250.027344 221.441406 1250.175781 221.082031 C 1250.324219 220.722656 1250.507812 220.382812 1250.726562 220.0625 C 1250.941406 219.738281 1251.1875 219.4375 1251.460938 219.164062 C 1251.738281 218.890625 1252.035156 218.644531 1252.359375 218.429688 C 1252.683594 218.210938 1253.027344 218.03125 1253.386719 217.882812 C 1253.746094 217.734375 1254.117188 217.621094 1254.496094 217.546875 C 1254.878906 217.46875 1255.265625 217.429688 1255.65625 217.429688 L 1267.511719 217.429688 C 1267.902344 217.429688 1268.285156 217.46875 1268.667969 217.546875 C 1269.050781 217.621094 1269.421875 217.734375 1269.78125 217.882812 C 1270.140625 218.03125 1270.480469 218.210938 1270.804688 218.429688 C 1271.128906 218.644531 1271.429688 218.890625 1271.703125 219.164062 C 1271.980469 219.4375 1272.226562 219.738281 1272.441406 220.0625 C 1272.65625 220.382812 1272.839844 220.722656 1272.988281 221.082031 C 1273.136719 221.441406 1273.25 221.8125 1273.328125 222.191406 C 1273.402344 222.574219 1273.441406 222.957031 1273.441406 223.347656 L 1273.441406 241.09375 L 1291.226562 241.09375 C 1291.617188 241.09375 1292 241.132812 1292.382812 241.207031 C 1292.765625 241.285156 1293.136719 241.394531 1293.496094 241.542969 C 1293.855469 241.695312 1294.195312 241.875 1294.519531 242.089844 C 1294.84375 242.308594 1295.144531 242.550781 1295.417969 242.828125 C 1295.695312 243.101562 1295.9375 243.402344 1296.15625 243.722656 C 1296.371094 244.046875 1296.554688 244.386719 1296.703125 244.746094 C 1296.851562 245.105469 1296.964844 245.476562 1297.039062 245.855469 C 1297.117188 246.238281 1297.15625 246.621094 1297.15625 247.011719 Z M 1311.976562 170.105469 L 1211.191406 170.105469 L 1211.191406 146.441406 C 1211.191406 145.472656 1211.285156 144.507812 1211.476562 143.558594 C 1211.667969 142.605469 1211.949219 141.679688 1212.320312 140.785156 C 1212.695312 139.886719 1213.152344 139.035156 1213.691406 138.226562 C 1214.230469 137.421875 1214.847656 136.675781 1215.535156 135.988281 C 1216.222656 135.300781 1216.972656 134.6875 1217.78125 134.148438 C 1218.589844 133.609375 1219.441406 133.152344 1220.339844 132.78125 C 1221.238281 132.410156 1222.167969 132.128906 1223.121094 131.9375 C 1224.074219 131.75 1225.039062 131.652344 1226.011719 131.652344 L 1297.15625 131.652344 C 1298.128906 131.652344 1299.089844 131.75 1300.046875 131.9375 C 1301 132.128906 1301.925781 132.410156 1302.824219 132.78125 C 1303.722656 133.152344 1304.578125 133.609375 1305.386719 134.148438 C 1306.195312 134.6875 1306.945312 135.300781 1307.632812 135.988281 C 1308.320312 136.675781 1308.933594 137.421875 1309.472656 138.226562 C 1310.015625 139.035156 1310.472656 139.886719 1310.84375 140.785156 C 1311.21875 141.679688 1311.5 142.605469 1311.6875 143.558594 C 1311.878906 144.507812 1311.976562 145.472656 1311.976562 146.441406 Z M 1341.621094 318 L 1323.832031 318 L 1323.832031 187.851562 L 1341.621094 187.851562 Z M 1341.621094 318 " fill-opacity="1" fill-rule="nonzero"/></g><g fill="#000000" fill-opacity="1"><g transform="translate(45.017778, 295.821715)"><g><path d="M 193.359375 -160.9375 L 193.359375 0 L 177.046875 0 L 177.046875 -128.75 L 113.8125 -20.46875 L 105.765625 -20.46875 L 42.53125 -128.0625 L 42.53125 0 L 26.21875 0 L 26.21875 -160.9375 L 40.234375 -160.9375 L 110.125 -41.609375 L 179.34375 -160.9375 Z M 193.359375 -160.9375 "/></g></g></g><g fill="#000000" fill-opacity="1"><g transform="translate(264.591214, 295.821715)"><g><path d="M 128.0625 -55.40625 L 26.90625 -55.40625 C 27.820312 -42.84375 32.644531 -32.6875 41.375 -24.9375 C 50.113281 -17.195312 61.15625 -13.328125 74.5 -13.328125 C 82.007812 -13.328125 88.90625 -14.664062 95.1875 -17.34375 C 101.46875 -20.03125 106.910156 -23.984375 111.515625 -29.203125 L 120.703125 -18.625 C 115.335938 -12.1875 108.628906 -7.28125 100.578125 -3.90625 C 92.535156 -0.53125 83.6875 1.15625 74.03125 1.15625 C 61.613281 1.15625 50.613281 -1.488281 41.03125 -6.78125 C 31.457031 -12.070312 23.988281 -19.390625 18.625 -28.734375 C 13.257812 -38.085938 10.578125 -48.664062 10.578125 -60.46875 C 10.578125 -72.269531 13.144531 -82.84375 18.28125 -92.1875 C 23.414062 -101.539062 30.460938 -108.820312 39.421875 -114.03125 C 48.390625 -119.25 58.472656 -121.859375 69.671875 -121.859375 C 80.859375 -121.859375 90.894531 -119.25 99.78125 -114.03125 C 108.675781 -108.820312 115.648438 -101.582031 120.703125 -92.3125 C 125.765625 -83.039062 128.296875 -72.425781 128.296875 -60.46875 Z M 69.671875 -107.828125 C 58.015625 -107.828125 48.238281 -104.109375 40.34375 -96.671875 C 32.457031 -89.242188 27.976562 -79.550781 26.90625 -67.59375 L 112.65625 -67.59375 C 111.582031 -79.550781 107.097656 -89.242188 99.203125 -96.671875 C 91.316406 -104.109375 81.472656 -107.828125 69.671875 -107.828125 Z M 69.671875 -107.828125 "/></g></g></g><g fill="#000000" fill-opacity="1"><g transform="translate(403.462814, 295.821715)"><g><path d="M 133.125 -170.609375 L 133.125 0 L 117.484375 0 L 117.484375 -23.90625 C 112.578125 -15.78125 106.097656 -9.570312 98.046875 -5.28125 C 90.003906 -0.988281 80.925781 1.15625 70.8125 1.15625 C 59.46875 1.15625 49.195312 -1.445312 40 -6.65625 C 30.8125 -11.875 23.609375 -19.15625 18.390625 -28.5 C 13.179688 -37.851562 10.578125 -48.507812 10.578125 -60.46875 C 10.578125 -72.425781 13.179688 -83.078125 18.390625 -92.421875 C 23.609375 -101.773438 30.8125 -109.019531 40 -114.15625 C 49.195312 -119.289062 59.46875 -121.859375 70.8125 -121.859375 C 80.625 -121.859375 89.476562 -119.828125 97.375 -115.765625 C 105.269531 -111.703125 111.742188 -105.765625 116.796875 -97.953125 L 116.796875 -170.609375 Z M 72.203125 -13.328125 C 80.628906 -13.328125 88.25 -15.28125 95.0625 -19.1875 C 101.882812 -23.101562 107.25 -28.660156 111.15625 -35.859375 C 115.070312 -43.066406 117.03125 -51.269531 117.03125 -60.46875 C 117.03125 -69.664062 115.070312 -77.863281 111.15625 -85.0625 C 107.25 -92.269531 101.882812 -97.828125 95.0625 -101.734375 C 88.25 -105.648438 80.628906 -107.609375 72.203125 -107.609375 C 63.609375 -107.609375 55.898438 -105.648438 49.078125 -101.734375 C 42.265625 -97.828125 36.898438 -92.269531 32.984375 -85.0625 C 29.078125 -77.863281 27.125 -69.664062 27.125 -60.46875 C 27.125 -51.269531 29.078125 -43.066406 32.984375 -35.859375 C 36.898438 -28.660156 42.265625 -23.101562 49.078125 -19.1875 C 55.898438 -15.28125 63.609375 -13.328125 72.203125 -13.328125 Z M 72.203125 -13.328125 "/></g></g></g><g fill="#000000" fill-opacity="1"><g transform="translate(559.348468, 295.821715)"><g><path d="M 200.265625 -120.9375 L 154.5 0 L 139.109375 0 L 100.9375 -99.09375 L 62.765625 0 L 47.359375 0 L 1.84375 -120.9375 L 17.46875 -120.9375 L 55.40625 -18.15625 L 94.265625 -120.9375 L 108.296875 -120.9375 L 146.921875 -18.15625 L 185.3125 -120.9375 Z M 200.265625 -120.9375 "/></g></g></g><g fill="#000000" fill-opacity="1"><g transform="translate(761.448011, 295.821715)"><g><path d="M 65.0625 -121.859375 C 80.851562 -121.859375 92.960938 -117.910156 101.390625 -110.015625 C 109.828125 -102.117188 114.046875 -90.429688 114.046875 -74.953125 L 114.046875 0 L 98.40625 0 L 98.40625 -18.859375 C 94.726562 -12.566406 89.320312 -7.65625 82.1875 -4.125 C 75.0625 -0.601562 66.597656 1.15625 56.796875 1.15625 C 43.304688 1.15625 32.570312 -2.0625 24.59375 -8.5 C 16.625 -14.9375 12.640625 -23.445312 12.640625 -34.03125 C 12.640625 -44.300781 16.359375 -52.578125 23.796875 -58.859375 C 31.234375 -65.140625 43.070312 -68.28125 59.3125 -68.28125 L 97.71875 -68.28125 L 97.71875 -75.640625 C 97.71875 -86.066406 94.804688 -94 88.984375 -99.4375 C 83.160156 -104.882812 74.648438 -107.609375 63.453125 -107.609375 C 55.796875 -107.609375 48.441406 -106.34375 41.390625 -103.8125 C 34.335938 -101.28125 28.28125 -97.789062 23.21875 -93.34375 L 15.859375 -105.53125 C 21.992188 -110.738281 29.351562 -114.757812 37.9375 -117.59375 C 46.519531 -120.4375 55.5625 -121.859375 65.0625 -121.859375 Z M 59.3125 -11.71875 C 68.507812 -11.71875 76.40625 -13.828125 83 -18.046875 C 89.59375 -22.265625 94.5 -28.359375 97.71875 -36.328125 L 97.71875 -56.09375 L 59.78125 -56.09375 C 39.082031 -56.09375 28.734375 -48.890625 28.734375 -34.484375 C 28.734375 -27.429688 31.414062 -21.875 36.78125 -17.8125 C 42.144531 -13.75 49.65625 -11.71875 59.3125 -11.71875 Z M 59.3125 -11.71875 "/></g></g></g><g fill="#000000" fill-opacity="1"><g transform="translate(897.100732, 295.821715)"><g><path d="M 38.390625 -97.25 C 42.222656 -105.375 47.929688 -111.503906 55.515625 -115.640625 C 63.109375 -119.785156 72.5 -121.859375 83.6875 -121.859375 L 83.6875 -106 L 79.78125 -106.21875 C 67.0625 -106.21875 57.097656 -102.304688 49.890625 -94.484375 C 42.691406 -86.671875 39.09375 -75.71875 39.09375 -61.625 L 39.09375 0 L 22.765625 0 L 22.765625 -120.9375 L 38.390625 -120.9375 Z M 38.390625 -97.25 "/></g></g></g><g fill="#000000" fill-opacity="1"><g transform="translate(989.298581, 295.821715)"><g><path d="M 128.0625 -55.40625 L 26.90625 -55.40625 C 27.820312 -42.84375 32.644531 -32.6875 41.375 -24.9375 C 50.113281 -17.195312 61.15625 -13.328125 74.5 -13.328125 C 82.007812 -13.328125 88.90625 -14.664062 95.1875 -17.34375 C 101.46875 -20.03125 106.910156 -23.984375 111.515625 -29.203125 L 120.703125 -18.625 C 115.335938 -12.1875 108.628906 -7.28125 100.578125 -3.90625 C 92.535156 -0.53125 83.6875 1.15625 74.03125 1.15625 C 61.613281 1.15625 50.613281 -1.488281 41.03125 -6.78125 C 31.457031 -12.070312 23.988281 -19.390625 18.625 -28.734375 C 13.257812 -38.085938 10.578125 -48.664062 10.578125 -60.46875 C 10.578125 -72.269531 13.144531 -82.84375 18.28125 -92.1875 C 23.414062 -101.539062 30.460938 -108.820312 39.421875 -114.03125 C 48.390625 -119.25 58.472656 -121.859375 69.671875 -121.859375 C 80.859375 -121.859375 90.894531 -119.25 99.78125 -114.03125 C 108.675781 -108.820312 115.648438 -101.582031 120.703125 -92.3125 C 125.765625 -83.039062 128.296875 -72.425781 128.296875 -60.46875 Z M 69.671875 -107.828125 C 58.015625 -107.828125 48.238281 -104.109375 40.34375 -96.671875 C 32.457031 -89.242188 27.976562 -79.550781 26.90625 -67.59375 L 112.65625 -67.59375 C 111.582031 -79.550781 107.097656 -89.242188 99.203125 -96.671875 C 91.316406 -104.109375 81.472656 -107.828125 69.671875 -107.828125 Z M 69.671875 -107.828125 "/></g></g></g><g clip-path="url(#bcf1729cb1)"><path fill="#52b69a" d="M 605.757812 328.488281 C 583.609375 328.742188 564.898438 329.214844 550.84375 329.910156 C 546.871094 330.09375 539.898438 330.421875 535.308594 330.640625 C 523.421875 331.1875 479.5625 334.03125 462.332031 335.382812 C 459.765625 335.5625 452.613281 336.074219 446.433594 336.476562 C 440.292969 336.875 434.511719 337.277344 433.609375 337.386719 C 432.707031 337.496094 422.554688 338.300781 411.03125 339.210938 C 399.503906 340.085938 383.828125 341.328125 376.167969 341.945312 C 368.507812 342.53125 354.308594 343.625 344.554688 344.316406 C 313.8125 346.542969 300.445312 347.78125 289.101562 349.460938 C 285.164062 350.042969 282.5625 350.59375 282.164062 350.957031 C 281.800781 351.285156 279.960938 351.6875 277.46875 352.015625 C 267.386719 353.253906 263.160156 354.128906 257.886719 356.101562 C 254.488281 357.375 254.238281 357.558594 253.40625 359.054688 C 252.71875 360.332031 252.613281 360.804688 252.902344 361.316406 C 253.1875 361.789062 253.1875 362.046875 252.792969 362.375 C 252.105469 362.957031 252.105469 364.707031 252.792969 365.292969 C 253.261719 365.691406 253.261719 365.800781 252.792969 366.167969 C 251.996094 366.789062 252.324219 367.589844 253.804688 368.9375 C 254.5625 369.597656 255.105469 370.363281 254.996094 370.617188 C 254.707031 371.417969 255.140625 372.222656 256.1875 372.734375 C 258.898438 374.15625 273.78125 374.738281 285.308594 373.898438 C 289.679688 373.570312 297.480469 373.097656 302.648438 372.769531 C 307.8125 372.476562 312.945312 372.148438 314.027344 372.078125 C 315.113281 371.96875 318.039062 371.785156 320.53125 371.675781 C 323.023438 371.566406 326.09375 371.382812 327.394531 371.308594 C 329.816406 371.164062 335.234375 370.910156 342.75 370.582031 C 345.132812 370.507812 349.359375 370.324219 352.140625 370.179688 C 357.09375 369.960938 358.71875 370.214844 354.816406 370.617188 C 347.191406 371.347656 347.589844 371.457031 357.742188 371.273438 C 380.828125 370.910156 423.492188 368.71875 449.6875 366.566406 C 455.648438 366.09375 463.957031 365.4375 468.113281 365.109375 C 472.300781 364.816406 480.429688 364.125 486.175781 363.648438 C 491.957031 363.140625 501.277344 362.410156 506.949219 362.007812 C 512.621094 361.609375 523.277344 360.769531 530.613281 360.183594 C 543.546875 359.164062 558.03125 358.140625 575.554688 357.085938 C 580.179688 356.828125 584.082031 356.5 584.1875 356.390625 C 584.371094 356.171875 574.398438 355.992188 572.085938 356.136719 C 571.4375 356.210938 570.894531 356.0625 570.894531 355.878906 C 570.894531 355.699219 571.183594 355.589844 571.542969 355.589844 C 572.121094 355.625 579.09375 355.261719 584.621094 354.894531 C 585.921875 354.824219 589.753906 354.640625 593.113281 354.53125 C 596.507812 354.421875 600.878906 354.277344 602.867188 354.167969 C 604.855469 354.09375 610.308594 353.910156 614.96875 353.800781 C 619.628906 353.691406 624.433594 353.511719 625.628906 353.4375 C 626.820312 353.363281 632.925781 353.179688 639.175781 353.070312 C 645.425781 352.960938 652.578125 352.816406 655.070312 352.707031 C 657.5625 352.597656 667.246094 352.453125 676.566406 352.34375 C 685.921875 352.234375 695.570312 352.050781 698.0625 351.976562 C 720.75 351.210938 881.988281 350.992188 904.710938 351.6875 C 912.769531 351.941406 924.402344 352.304688 930.542969 352.523438 C 944.089844 352.925781 960.746094 353.21875 959.988281 353 C 959.660156 352.925781 956.808594 352.632812 953.664062 352.378906 L 947.882812 351.90625 L 953.304688 351.832031 C 956.300781 351.757812 959.046875 351.578125 959.445312 351.394531 C 960.023438 351.140625 959.949219 351.066406 959.011719 351.175781 C 958.359375 351.25 957.820312 351.175781 957.820312 350.992188 C 957.820312 350.847656 958.832031 350.703125 960.09375 350.703125 C 961.503906 350.703125 962.152344 350.847656 961.828125 351.03125 C 961.539062 351.25 961.9375 351.285156 962.914062 351.175781 C 965.371094 350.882812 991.527344 353.253906 1001.570312 354.675781 C 1003.015625 354.859375 1003.808594 354.824219 1004.242188 354.496094 C 1004.605469 354.238281 1005.363281 354.128906 1006.085938 354.238281 C 1006.878906 354.386719 1007.3125 354.3125 1007.3125 354.019531 C 1007.3125 353.800781 1006.953125 353.621094 1006.480469 353.621094 C 1006.011719 353.621094 1005.328125 353.363281 1004.929688 353.070312 C 1004.242188 352.5625 1004.242188 352.523438 1005.074219 352.304688 C 1006.15625 351.976562 1006.085938 351.539062 1004.894531 351.285156 C 992.320312 348.585938 939.464844 343.699219 880.6875 339.757812 C 874.546875 339.355469 865.511719 338.699219 860.636719 338.300781 C 855.757812 337.898438 848.28125 337.316406 844.015625 337.023438 C 839.753906 336.695312 833.394531 336.21875 829.925781 335.929688 C 826.460938 335.636719 819.558594 335.125 814.574219 334.835938 C 809.625 334.542969 800.59375 333.957031 794.523438 333.558594 C 766.34375 331.695312 754.890625 331.222656 720.824219 330.421875 C 714.96875 330.273438 709.730469 330.128906 709.191406 330.09375 C 708.613281 330.054688 705.070312 330.019531 701.277344 329.984375 C 697.125 329.945312 694.484375 329.765625 694.628906 329.582031 C 694.738281 329.363281 694.523438 329.214844 694.195312 329.253906 C 691.34375 329.289062 686.972656 329.070312 684.875 328.777344 C 681.734375 328.304688 636.285156 328.160156 605.757812 328.488281 Z M 563.742188 343.441406 C 563.597656 343.589844 561.140625 343.808594 558.25 343.917969 C 555.359375 344.0625 552.359375 344.246094 551.566406 344.316406 C 550.769531 344.390625 547.84375 344.574219 545.0625 344.683594 C 542.28125 344.792969 539.210938 344.972656 538.199219 345.046875 C 537.222656 345.15625 534.765625 345.304688 532.78125 345.414062 C 530.792969 345.523438 528.589844 345.667969 527.902344 345.777344 C 527.214844 345.851562 524.867188 346.03125 522.664062 346.140625 C 520.496094 346.289062 518.21875 346.433594 517.605469 346.507812 C 517.027344 346.578125 514.96875 346.726562 513.089844 346.871094 C 509.765625 347.089844 507.851562 347.234375 502.972656 347.601562 C 501.675781 347.671875 499.179688 347.855469 497.375 347.964844 C 492.824219 348.257812 488.992188 348.511719 487.078125 348.695312 C 485.199219 348.878906 477.792969 349.460938 473.351562 349.789062 C 471.652344 349.898438 469.554688 350.082031 468.652344 350.152344 C 467.75 350.226562 465.65625 350.410156 463.957031 350.519531 C 462.257812 350.628906 459.984375 350.773438 458.898438 350.882812 C 457.816406 350.957031 455.613281 351.140625 454.023438 351.25 C 450.011719 351.539062 447.484375 351.722656 439.570312 352.34375 C 430.609375 353.035156 418.21875 353.875 413.199219 354.167969 C 411.03125 354.277344 407.921875 354.457031 406.332031 354.53125 C 404.742188 354.640625 402.324219 354.785156 400.914062 354.894531 C 394.195312 355.296875 388.304688 355.515625 388.449219 355.332031 C 388.667969 355.113281 391.375 354.824219 396.039062 354.53125 C 397.734375 354.421875 399.6875 354.277344 400.371094 354.167969 C 401.058594 354.09375 403.011719 353.910156 404.707031 353.800781 C 410.488281 353.402344 412.476562 353.253906 414.460938 353.070312 C 415.546875 352.960938 423.457031 352.414062 431.984375 351.796875 C 440.546875 351.210938 450.699219 350.445312 454.5625 350.152344 C 474.507812 348.621094 499.976562 346.796875 520.859375 345.414062 C 522.265625 345.339844 525.085938 345.15625 527.179688 345.046875 C 529.273438 344.9375 533.753906 344.71875 537.113281 344.5 C 544.953125 344.0625 549.179688 343.84375 555.71875 343.550781 C 558.609375 343.441406 560.996094 343.296875 561.03125 343.261719 C 561.246094 343.078125 563.957031 343.261719 563.742188 343.441406 Z M 745.75 344.5 C 767.824219 344.902344 775.085938 345.046875 801.566406 345.777344 C 832.421875 346.652344 843.726562 347.089844 848.171875 347.671875 C 849.6875 347.855469 849.832031 347.929688 849.074219 348.183594 C 848.570312 348.332031 848.390625 348.441406 848.640625 348.476562 C 848.859375 348.511719 849.074219 348.695312 849.074219 348.878906 C 849.074219 349.316406 849.796875 349.316406 727.6875 349.425781 C 677.507812 349.460938 633.71875 349.605469 630.324219 349.753906 C 625.339844 349.933594 595.75 350.117188 593.148438 350.007812 C 591.8125 349.933594 592.933594 349.460938 594.664062 349.386719 C 601.167969 349.058594 605.578125 348.878906 611.71875 348.660156 C 615.582031 348.550781 619.269531 348.402344 619.847656 348.332031 C 620.460938 348.257812 622.265625 348.183594 623.894531 348.183594 C 626.386719 348.148438 626.820312 348.074219 626.675781 347.601562 C 626.53125 347.234375 626.675781 347.054688 627.070312 347.054688 C 627.46875 347.054688 627.613281 347.234375 627.46875 347.601562 C 627.324219 348.039062 627.648438 348.148438 629.203125 348.148438 C 630.902344 348.148438 631.191406 348.039062 631.40625 347.308594 L 631.660156 346.507812 L 631.914062 347.417969 L 632.167969 348.332031 L 632.382812 347.492188 C 632.5625 346.796875 632.816406 346.652344 634.007812 346.726562 C 635.488281 346.761719 647.554688 346.433594 653.265625 346.140625 C 655.144531 346.070312 662.222656 345.886719 668.980469 345.742188 C 675.734375 345.59375 681.914062 345.449219 682.707031 345.414062 C 683.503906 345.375 687.945312 345.304688 692.570312 345.265625 C 697.414062 345.265625 700.953125 345.082031 700.953125 344.902344 C 700.953125 344.683594 693.367188 344.535156 682.09375 344.5 C 671.726562 344.5 663.164062 344.390625 663.054688 344.316406 C 662.765625 343.988281 726.386719 344.136719 745.75 344.5 Z M 629.78125 347.199219 C 629.78125 347.308594 629.636719 347.492188 629.421875 347.601562 C 629.238281 347.710938 629.058594 347.636719 629.058594 347.453125 C 629.058594 347.234375 629.238281 347.054688 629.421875 347.054688 C 629.636719 347.054688 629.78125 347.125 629.78125 347.199219 Z M 541.378906 348.402344 C 541.125 348.476562 540.621094 348.476562 540.292969 348.402344 C 539.933594 348.292969 540.148438 348.222656 540.726562 348.222656 C 541.339844 348.222656 541.59375 348.292969 541.378906 348.402344 Z M 534.296875 348.730469 C 534.1875 348.839844 533.863281 348.878906 533.609375 348.769531 C 533.320312 348.660156 533.429688 348.550781 533.828125 348.550781 C 534.226562 348.511719 534.441406 348.621094 534.296875 348.730469 Z M 850.519531 348.878906 C 850.519531 349.058594 850.375 349.242188 850.195312 349.242188 C 849.976562 349.242188 849.726562 349.058594 849.617188 348.878906 C 849.507812 348.660156 849.652344 348.511719 849.941406 348.511719 C 850.265625 348.511719 850.519531 348.660156 850.519531 348.878906 Z M 530.359375 349.132812 C 529.996094 349.207031 529.417969 349.207031 529.09375 349.132812 C 528.734375 349.023438 529.023438 348.949219 529.707031 348.949219 C 530.394531 348.949219 530.683594 349.023438 530.359375 349.132812 Z M 525.121094 349.496094 C 524.652344 349.570312 523.855469 349.570312 523.3125 349.496094 C 522.734375 349.425781 523.132812 349.351562 524.109375 349.351562 C 525.121094 349.351562 525.554688 349.425781 525.121094 349.496094 Z M 591.882812 350.082031 C 591.414062 350.554688 590.945312 350.191406 591.304688 349.644531 C 591.414062 349.425781 591.703125 349.351562 591.921875 349.460938 C 592.136719 349.605469 592.136719 349.824219 591.882812 350.082031 Z M 519.703125 349.863281 C 519.230469 349.933594 518.4375 349.933594 517.894531 349.863281 C 517.316406 349.789062 517.714844 349.714844 518.691406 349.714844 C 519.703125 349.714844 520.136719 349.789062 519.703125 349.863281 Z M 910.238281 349.863281 C 909.984375 349.933594 909.550781 349.933594 909.335938 349.863281 C 909.082031 349.753906 909.261719 349.679688 909.769531 349.679688 C 910.273438 349.679688 910.457031 349.753906 910.238281 349.863281 Z M 944.558594 349.863281 C 944.308594 349.933594 943.875 349.933594 943.65625 349.863281 C 943.402344 349.753906 943.585938 349.679688 944.089844 349.679688 C 944.597656 349.679688 944.777344 349.753906 944.558594 349.863281 Z M 514.101562 350.226562 C 513.523438 350.300781 512.65625 350.300781 512.113281 350.226562 C 511.535156 350.152344 512.007812 350.082031 513.089844 350.082031 C 514.175781 350.082031 514.644531 350.152344 514.101562 350.226562 Z M 918.910156 350.226562 C 918.257812 350.300781 917.175781 350.300781 916.5625 350.226562 C 915.910156 350.152344 916.417969 350.082031 917.71875 350.082031 C 919.019531 350.082031 919.523438 350.152344 918.910156 350.226562 Z M 950.703125 350.226562 C 950.230469 350.300781 949.4375 350.300781 948.894531 350.226562 C 948.316406 350.152344 948.714844 350.082031 949.691406 350.082031 C 950.703125 350.082031 951.136719 350.152344 950.703125 350.226562 Z M 507.78125 350.59375 C 507.527344 350.664062 507.09375 350.664062 506.875 350.59375 C 506.625 350.480469 506.804688 350.410156 507.308594 350.410156 C 507.816406 350.410156 507.996094 350.480469 507.78125 350.59375 Z M 509.367188 350.554688 C 509.261719 350.664062 508.933594 350.703125 508.683594 350.59375 C 508.394531 350.480469 508.503906 350.371094 508.898438 350.371094 C 509.296875 350.335938 509.511719 350.445312 509.367188 350.554688 Z M 925.59375 350.59375 C 925.050781 350.664062 924.074219 350.664062 923.425781 350.59375 C 922.773438 350.519531 923.207031 350.445312 924.402344 350.445312 C 925.59375 350.445312 926.136719 350.519531 925.59375 350.59375 Z M 955.757812 350.59375 C 955.289062 350.664062 954.496094 350.664062 953.953125 350.59375 C 953.375 350.519531 953.773438 350.445312 954.746094 350.445312 C 955.757812 350.445312 956.191406 350.519531 955.757812 350.59375 Z M 932.277344 350.957031 C 931.808594 351.03125 931.011719 351.03125 930.46875 350.957031 C 929.890625 350.882812 930.289062 350.8125 931.265625 350.8125 C 932.277344 350.8125 932.710938 350.882812 932.277344 350.957031 Z M 938.058594 351.320312 C 937.585938 351.394531 936.863281 351.394531 936.429688 351.320312 C 935.960938 351.25 936.324219 351.175781 937.226562 351.175781 C 938.128906 351.175781 938.492188 351.25 938.058594 351.320312 Z M 944.558594 351.6875 C 944.089844 351.757812 943.296875 351.757812 942.753906 351.6875 C 942.175781 351.613281 942.574219 351.539062 943.546875 351.539062 C 944.558594 351.539062 944.992188 351.613281 944.558594 351.6875 Z M 387.003906 355.441406 C 387.003906 355.660156 386.175781 355.769531 385.125 355.734375 L 383.210938 355.699219 L 384.835938 355.441406 C 385.742188 355.296875 386.570312 355.152344 386.753906 355.152344 C 386.898438 355.113281 387.003906 355.222656 387.003906 355.441406 Z M 388.089844 355.222656 C 388.089844 355.332031 387.945312 355.515625 387.726562 355.625 C 387.546875 355.734375 387.367188 355.660156 387.367188 355.480469 C 387.367188 355.261719 387.546875 355.078125 387.726562 355.078125 C 387.945312 355.078125 388.089844 355.152344 388.089844 355.222656 Z M 383.03125 355.589844 C 383.03125 355.699219 382.886719 355.878906 382.671875 355.992188 C 382.488281 356.101562 382.308594 356.027344 382.308594 355.84375 C 382.308594 355.625 382.488281 355.441406 382.671875 355.441406 C 382.886719 355.441406 383.03125 355.515625 383.03125 355.589844 Z M 570.097656 356.0625 C 569.738281 356.136719 569.160156 356.136719 568.835938 356.0625 C 568.472656 355.953125 568.761719 355.878906 569.449219 355.878906 C 570.136719 355.878906 570.425781 355.953125 570.097656 356.0625 Z M 338.847656 362.226562 C 338.738281 362.335938 338.414062 362.375 338.160156 362.265625 C 337.871094 362.15625 337.980469 362.046875 338.378906 362.046875 C 338.773438 362.007812 338.992188 362.117188 338.847656 362.226562 Z M 340.292969 362.226562 C 340.183594 362.335938 339.859375 362.375 339.605469 362.265625 C 339.316406 362.15625 339.425781 362.046875 339.824219 362.046875 C 340.21875 362.007812 340.4375 362.117188 340.292969 362.226562 Z M 334.875 362.628906 C 334.152344 362.703125 332.996094 362.703125 332.34375 362.628906 C 331.730469 362.554688 332.34375 362.484375 333.71875 362.484375 C 335.125 362.484375 335.632812 362.554688 334.875 362.628906 Z M 324.503906 363.320312 C 309.1875 364.527344 292.171875 366.421875 291.664062 366.96875 C 291.558594 367.117188 293.398438 367.117188 295.785156 366.96875 C 298.167969 366.859375 301.671875 366.640625 303.550781 366.566406 C 305.429688 366.457031 307.921875 366.277344 309.078125 366.167969 C 310.742188 366.019531 311.136719 366.09375 311.136719 366.53125 C 311.136719 366.824219 310.921875 367.152344 310.703125 367.261719 C 310.234375 367.445312 313.703125 367.296875 319.265625 366.898438 C 320.855469 366.75 322.085938 366.75 321.976562 366.859375 C 321.757812 367.078125 305.175781 368.5 301.5625 368.609375 C 300.589844 368.648438 299.105469 368.792969 298.3125 368.976562 C 297.519531 369.121094 295.3125 369.378906 293.433594 369.488281 C 289.425781 369.777344 289.136719 369.816406 285.125 370.324219 C 283.429688 370.542969 280.105469 370.835938 277.71875 370.945312 C 275.335938 371.054688 270.710938 371.308594 267.421875 371.527344 C 262.113281 371.929688 261.171875 371.894531 258.644531 371.308594 C 256.511719 370.835938 255.683594 370.472656 255.285156 369.816406 C 254.164062 368.101562 255.285156 367.808594 263.628906 367.664062 C 267.027344 367.589844 273.277344 367.1875 277.539062 366.789062 C 284.113281 366.167969 306.839844 364.308594 321.613281 363.175781 C 323.890625 362.992188 326.816406 362.847656 328.117188 362.847656 C 329.417969 362.847656 327.792969 363.066406 324.503906 363.320312 Z M 259.476562 364.964844 C 259.476562 365.21875 257.273438 365.65625 256.042969 365.65625 C 255.355469 365.621094 255.355469 365.621094 256.007812 365.109375 C 256.65625 364.597656 259.476562 364.488281 259.476562 364.964844 Z M 313.304688 366.457031 C 313.304688 366.640625 313.050781 366.75 312.761719 366.75 C 312.472656 366.75 312.113281 366.75 311.96875 366.789062 C 311.824219 366.789062 311.644531 366.640625 311.570312 366.457031 C 311.5 366.238281 311.859375 366.128906 312.402344 366.167969 C 312.90625 366.167969 313.304688 366.3125 313.304688 366.457031 Z M 323.3125 366.96875 C 323.203125 367.078125 322.878906 367.117188 322.625 367.007812 C 322.335938 366.898438 322.445312 366.789062 322.84375 366.789062 C 323.242188 366.75 323.457031 366.859375 323.3125 366.96875 Z M 323.3125 366.96875 " fill-opacity="1" fill-rule="nonzero"/></g><path fill="#52b69a" d="M 701.3125 344.9375 C 701.3125 345.082031 701.53125 345.230469 701.820312 345.230469 C 702.109375 345.230469 702.433594 345.082031 702.542969 344.9375 C 702.613281 344.792969 702.398438 344.644531 702 344.644531 C 701.640625 344.644531 701.3125 344.792969 701.3125 344.9375 Z M 701.3125 344.9375 " fill-opacity="1" fill-rule="nonzero"/><path fill="#52b69a" d="M 308.429688 367.480469 C 308.140625 367.953125 308.609375 367.953125 309.332031 367.480469 C 309.800781 367.1875 309.800781 367.117188 309.257812 367.117188 C 308.933594 367.117188 308.535156 367.261719 308.429688 367.480469 Z M 308.429688 367.480469 " fill-opacity="1" fill-rule="nonzero"/><path fill="#52b69a" d="M 960.347656 351.46875 C 960.347656 351.648438 960.527344 351.722656 960.707031 351.613281 C 960.925781 351.503906 961.070312 351.320312 961.070312 351.210938 C 961.070312 351.140625 960.925781 351.066406 960.707031 351.066406 C 960.527344 351.066406 960.347656 351.25 960.347656 351.46875 Z M 960.347656 351.46875 " fill-opacity="1" fill-rule="nonzero"/></svg>