<svg xmlns="http://www.w3.org/2000/svg" xmlns:xlink="http://www.w3.org/1999/xlink" width="1080" zoomAndPan="magnify" viewBox="0 0 810 809.999993" height="1080" preserveAspectRatio="xMidYMid meet" version="1.0"><rect x="-81" width="972" fill="#ffffff" y="-80.999999" height="971.999992" fill-opacity="1"/><rect x="-81" width="972" fill="#ffffff" y="-80.999999" height="971.999992" fill-opacity="1"/><rect x="-81" width="972" fill="#ffffff" y="-80.999999" height="971.999992" fill-opacity="1"/><path fill="#c5f9c9" d="M 168.300781 -35.125 C 121.1875 -13.738281 65.886719 -22.097656 15.300781 -23.246094 C -35.320312 -24.402344 -106.984375 -20.375 -121.320312 41.453125 C -126.804688 65.089844 -120.511719 91.613281 -104.972656 110.414062 C -88.59375 130.230469 -62.152344 143.042969 -55.386719 168.007812 C -50.023438 187.757812 -59.390625 208.269531 -71.355469 224.136719 C -90.550781 249.601562 -116.660156 268.609375 -136.5625 293.480469 C -156.472656 318.347656 -169.902344 353.203125 -157.679688 383.679688 C -145.378906 414.339844 -112.214844 429.582031 -81.617188 439.230469 C -16.867188 459.648438 56.105469 468.019531 114.566406 435.15625 C 149.183594 415.703125 176.613281 382.882812 214.296875 370.605469 C 263.03125 354.726562 316.527344 376.832031 367.71875 372.726562 C 428.710938 367.828125 483.78125 321.902344 501.164062 261.441406 C 518.550781 200.980469 497.1875 129.652344 449.40625 88.621094 C 427.046875 69.410156 399.984375 56.695312 378.355469 36.605469 C 361.355469 20.816406 348.125 0.679688 340.246094 -21.40625 C 331.894531 -44.792969 328.078125 -72.40625 308.710938 -87.359375 C 288.875 -102.671875 260.597656 -97.535156 239.628906 -85.085938 C 218.65625 -72.628906 201.671875 -53.988281 180.679688 -41.566406 C 176.621094 -39.167969 172.496094 -37.027344 168.300781 -35.125 " fill-opacity="1" fill-rule="nonzero"/><path fill="#d4a87f" d="M 276.261719 772.828125 C 275.347656 770.949219 274.308594 768.839844 272.742188 767.335938 C 269.8125 764.542969 265.425781 764.078125 261.132812 763.628906 C 260.046875 763.519531 258.960938 763.398438 257.890625 763.242188 C 247.566406 761.753906 237.988281 755.640625 232.265625 746.894531 L 231.738281 746.070312 C 230.546875 744.195312 229.414062 742.441406 227.632812 741.558594 C 227.152344 741.324219 226.609375 741.167969 225.988281 741.078125 C 226.855469 733.570312 227.460938 726 227.753906 718.429688 C 229.367188 717.777344 230.980469 717.050781 232.5625 716.242188 L 246.855469 475.808594 L 247.488281 465.292969 L 247.488281 464.980469 C 246.25 444.863281 244.761719 424.1875 243.054688 403.527344 L 242.992188 402.734375 L 243.597656 402.222656 L 243.847656 402.023438 C 243.925781 401.960938 244 401.898438 244.203125 401.820312 C 244.171875 401.789062 244.109375 401.757812 243.972656 401.710938 L 242.917969 401.433594 L 242.824219 400.347656 C 242.15625 392.40625 241.460938 384.464844 240.730469 376.539062 L 240.621094 375.328125 L 263.890625 367.214844 L 252.046875 313.65625 L 251.9375 312.757812 L 252.527344 312.152344 C 252.929688 311.703125 253.164062 311.097656 253.394531 310.335938 C 254.449219 306.910156 254.589844 303.25 253.816406 299.773438 L 253.644531 299.078125 C 253.378906 298.039062 253.164062 297.027344 253.195312 295.941406 C 253.226562 295.261719 253.367188 294.65625 253.535156 293.925781 C 253.613281 293.570312 253.707031 293.230469 253.769531 292.871094 C 254.125 290.652344 253.503906 288.265625 252.125 286.527344 L 251.816406 286.15625 C 251.457031 285.707031 251.054688 285.210938 250.886719 284.605469 C 250.621094 283.796875 250.761719 282.960938 250.839844 282.464844 L 250.871094 282.09375 C 251.070312 280.679688 250.855469 278.789062 249.597656 278.089844 C 249.273438 277.902344 248.886719 277.8125 248.464844 277.8125 C 247.9375 277.8125 247.367188 277.964844 246.792969 278.261719 C 246.636719 278.339844 246.558594 278.386719 246.542969 278.414062 L 244.605469 279.96875 L 238.730469 253.367188 L 224.019531 258.5 L 223.335938 257.707031 C 218.359375 252.03125 211.382812 248.605469 204.546875 245.253906 C 200.097656 243.066406 195.554688 240.769531 191.496094 237.871094 C 191.496094 237.699219 191.496094 237.527344 191.480469 237.375 C 191.417969 236.769531 191.246094 236.195312 191.03125 235.652344 C 190.8125 235.078125 190.535156 234.535156 190.269531 234.007812 L 190.160156 233.804688 C 188.191406 229.914062 186.734375 225.800781 185.742188 221.582031 L 186.238281 221.613281 C 187.03125 221.660156 187.835938 221.675781 188.625 221.675781 C 190.410156 221.675781 192.191406 221.582031 193.898438 221.414062 C 202.363281 220.511719 205.167969 211.9375 207.617188 204.382812 C 207.835938 203.683594 208.066406 202.984375 208.285156 202.335938 C 209.664062 198.238281 210.902344 193.898438 209.695312 189.894531 C 208.871094 187.101562 206.875 184.746094 204.964844 182.480469 L 204.75 182.246094 C 204.65625 182.234375 203.539062 182.109375 203.539062 182.109375 L 203.152344 181.628906 C 203.058594 181.519531 202.964844 181.394531 202.875 181.269531 C 202.996094 181.285156 203.136719 181.300781 203.261719 181.316406 C 203.867188 181.378906 204.5 181.441406 205.121094 181.566406 C 203.167969 179.269531 201.308594 176.925781 200.46875 174.058594 C 199.898438 172.042969 199.914062 169.917969 199.789062 167.839844 C 199.523438 163.820312 198.703125 159.851562 197.339844 156.082031 C 196.316406 153.289062 195.027344 150.621094 193.480469 148.109375 C 193.042969 147.410156 192.578125 146.710938 192.113281 146.03125 C 192.191406 142.554688 190.9375 138.957031 188.503906 135.902344 C 185.617188 132.289062 181.078125 129.324219 175.386719 127.339844 C 170.582031 125.679688 165.527344 124.828125 160.351562 124.828125 C 156.070312 124.828125 151.871094 125.398438 147.839844 126.546875 C 143.15625 127.867188 138.304688 130.085938 133.421875 133.171875 C 130.894531 134.753906 128.722656 136.320312 126.785156 137.996094 C 119.128906 144.585938 113.59375 153.988281 111.207031 164.488281 C 109.082031 173.839844 109.316406 184.125 111.875 195.011719 C 112.414062 197.324219 113.222656 200.316406 114.664062 202.941406 C 117.578125 208.167969 123.328125 212.199219 130.042969 213.71875 C 132.167969 214.199219 134.460938 214.449219 136.863281 214.449219 C 139.886719 214.449219 142.972656 214.046875 146.023438 213.238281 L 146.085938 213.222656 C 146.195312 213.734375 146.320312 214.230469 146.414062 214.742188 C 147.21875 218.929688 147.730469 223.179688 147.949219 227.476562 C 147.980469 228.128906 147.996094 228.765625 148.007812 229.417969 C 134.691406 239.808594 122.585938 251.832031 112.058594 265.214844 C 109.484375 268.503906 107.4375 271.3125 105.859375 274.414062 C 102.167969 281.582031 100.929688 290.636719 102.246094 300.613281 C 103.175781 307.636719 105.207031 314.339844 107.253906 320.542969 C 107.859375 322.375 108.710938 324.21875 109.5625 326.050781 C 110.308594 327.648438 111.066406 329.355469 111.6875 331.058594 L 112.664062 333.449219 L 111.625 333.308594 C 111.996094 334.410156 112.429688 335.621094 112.957031 336.96875 L 113.035156 337.15625 L 113.050781 337.359375 C 114.058594 346.414062 113.269531 356.484375 112.570312 365.355469 L 112.554688 365.617188 C 112.199219 370.304688 111.84375 374.738281 111.71875 379.035156 C 110.882812 407.296875 109.78125 436.550781 108.445312 465.988281 C 110.042969 466.859375 111.71875 467.695312 113.421875 468.457031 L 114.355469 468.875 L 111.316406 730.996094 C 112.742188 731.507812 117.113281 732.933594 123.949219 734.066406 C 124.246094 741.835938 124.246094 749.640625 123.933594 757.378906 C 123.933594 757.550781 123.933594 757.71875 123.933594 757.890625 C 123.207031 758.183594 122.570312 758.652344 122.214844 759.238281 C 121.035156 761.148438 121.285156 763.535156 121.6875 766.25 C 122.304688 770.378906 121.902344 775.109375 121.515625 779.699219 C 121.144531 784.183594 120.757812 788.804688 121.34375 792.757812 C 122.335938 799.445312 127.917969 803.554688 138.398438 805.324219 C 144.210938 806.300781 149.667969 806.796875 154.644531 806.796875 C 166.085938 806.796875 175.742188 804.222656 184.160156 798.902344 C 184.90625 798.4375 185.601562 797.863281 186.316406 797.179688 C 188.550781 794.992188 188.8125 792.214844 188.890625 789.066406 L 189.015625 784.335938 L 191.710938 788.230469 C 191.914062 788.507812 192.097656 788.742188 192.300781 788.945312 C 193.867188 790.496094 196.363281 790.835938 198.578125 791.039062 C 201.941406 791.332031 205.371094 791.488281 208.765625 791.488281 C 210.8125 791.488281 212.886719 791.425781 214.917969 791.316406 L 216.238281 791.238281 C 217.632812 791.160156 219.089844 791.070312 220.546875 791.070312 C 221.570312 791.070312 222.484375 791.117188 223.335938 791.191406 C 225.289062 791.394531 227.195312 791.84375 229.105469 792.292969 L 230.1875 792.542969 C 238.53125 794.480469 247.179688 795.457031 255.890625 795.457031 C 263.117188 795.457031 270.308594 794.777344 277.300781 793.425781 C 278.046875 793.285156 278.898438 793.101562 279.535156 792.726562 C 279.78125 792.589844 279.984375 792.417969 280.136719 792.230469 C 280.617188 791.65625 280.789062 790.804688 280.882812 790.121094 C 281.71875 784.011719 278.695312 777.808594 276.261719 772.828125 Z M 190.144531 777.929688 L 187.386719 774.671875 C 186.519531 773.648438 185.292969 772.625 183.542969 771.476562 C 181.417969 770.066406 179 769.074219 176.675781 768.113281 C 172.765625 766.5 167.945312 760.914062 165.835938 757.78125 C 165.621094 757.472656 165.433594 757.128906 165.25 756.789062 L 166.488281 733.863281 C 171.234375 733.105469 176.023438 732.128906 180.765625 730.949219 L 180.765625 721.953125 L 182.671875 722.402344 C 183.742188 722.648438 185.945312 723.113281 188.96875 723.503906 C 190.78125 729.707031 191.121094 736.347656 191.449219 742.796875 C 191.527344 744.320312 191.601562 745.871094 191.710938 747.421875 L 190.890625 746.597656 C 190.300781 755.457031 190.050781 764.558594 190.113281 773.664062 Z M 190.144531 777.929688 " fill-opacity="1" fill-rule="nonzero"/><path fill="#ffdab9" d="M 722.503906 266.164062 C 720.257812 259.863281 716.242188 252.992188 712.304688 248.636719 L 712.132812 248.449219 C 695.886719 230.519531 679.082031 211.996094 659.71875 196.8125 L 657.640625 195.199219 L 657.5625 194.5625 C 655.875 181.519531 650.605469 169.328125 642.355469 159.324219 C 641.890625 158.765625 641.441406 158.238281 640.960938 157.679688 L 640.773438 157.445312 C 639.363281 155.769531 637.921875 154.035156 636.730469 152.15625 L 636.09375 151.132812 L 636.914062 150.265625 C 644.292969 142.445312 648.355469 132.316406 648.355469 121.753906 C 648.371094 99.496094 629.628906 82.699219 604.777344 82.699219 C 581.136719 82.699219 564.78125 95.867188 562.890625 115.875 C 562.625 116 562.378906 116.125 562.175781 116.234375 C 562.066406 116.28125 561.992188 116.386719 561.960938 116.511719 C 561.695312 117.878906 561.585938 119.273438 561.648438 120.652344 C 561.679688 122.019531 561.898438 123.351562 562.253906 124.65625 C 562.519531 125.664062 562.875 126.65625 563.230469 127.617188 C 563.511719 128.394531 563.804688 129.183594 564.035156 129.992188 C 565.449219 134.675781 565.152344 139.792969 564.71875 144.632812 C 564.71875 144.742188 564.75 144.851562 564.828125 144.945312 C 564.953125 145.066406 565.089844 145.082031 565.339844 145.054688 C 565.648438 144.992188 565.945312 144.914062 566.253906 144.851562 L 566.207031 145.410156 L 565.804688 145.410156 L 565.726562 146.277344 C 565.183594 152.421875 564.625 158.75 567.136719 164.269531 C 568.097656 166.378906 569.449219 168.273438 571.167969 170.445312 C 572.9375 172.664062 574.703125 174.726562 576.4375 176.570312 C 577.695312 177.90625 579.105469 179.253906 580.765625 180.046875 C 582.082031 180.664062 583.585938 180.960938 585.320312 180.960938 C 586.996094 180.960938 588.640625 180.664062 589.894531 180.417969 C 591.894531 180.015625 593.910156 179.472656 595.894531 178.804688 L 596.375 178.648438 C 596.484375 181.285156 596.234375 183.984375 595.863281 186.777344 C 595.785156 187.445312 595.679688 188.125 595.585938 188.808594 C 593.925781 189.957031 592.390625 191.289062 591.121094 192.4375 L 588.808594 194.53125 L 588.65625 192.78125 C 585.988281 194.703125 583.105469 196.425781 580.5 197.976562 C 575.074219 201.203125 569.464844 204.554688 565.585938 209.546875 C 563.167969 212.664062 561.542969 216.261719 559.820312 220.28125 C 550.984375 240.941406 543.773438 262.5 538.363281 284.386719 L 538.273438 284.777344 L 537.867188 285.210938 L 538.054688 285.800781 L 536.148438 287.039062 L 535.777344 287.148438 L 535.808594 287.273438 L 534.859375 287.894531 C 516.210938 299.945312 493.886719 311.6875 474.136719 322.078125 L 470.726562 323.878906 C 471.144531 324.667969 471.625 325.507812 472.214844 326.484375 L 472.355469 326.761719 C 471.75 326.996094 471.160156 327.230469 470.480469 327.414062 C 464.898438 328.886719 460.339844 330.253906 456.125 331.679688 C 455.535156 331.882812 454.960938 332.070312 454.371094 332.253906 C 450.914062 333.386719 447.628906 334.457031 444.820312 337.078125 C 443.039062 338.738281 441.566406 340.707031 440.125 342.601562 C 439.378906 343.578125 438.652344 344.554688 437.878906 345.484375 L 437.519531 345.886719 C 436.730469 346.820312 435.984375 347.703125 435.566406 349.039062 C 435.117188 350.402344 434.945312 351.796875 434.808594 353.132812 L 432.839844 371.929688 C 432.792969 372.335938 433.070312 372.707031 433.472656 372.785156 C 433.847656 372.863281 434.234375 372.894531 434.621094 372.894531 C 434.960938 372.894531 435.304688 372.863281 435.660156 372.800781 C 436.1875 372.722656 436.714844 372.566406 437.226562 372.351562 L 437.132812 374.800781 C 437.085938 375.546875 437.039062 376.367188 437.242188 377.097656 C 437.441406 377.792969 437.863281 378.335938 438.390625 378.523438 C 438.527344 378.585938 438.667969 378.617188 438.855469 378.617188 C 439.519531 378.617188 440.371094 378.167969 441.226562 377.34375 C 441.785156 376.800781 442.25 376.273438 442.667969 375.761719 L 443.785156 374.320312 L 445.023438 375.652344 C 445.242188 375.886719 445.597656 376.074219 445.859375 376.136719 C 446.308594 376.273438 446.792969 376.335938 447.273438 376.335938 C 448.25 376.335938 449.226562 376.058594 450.015625 375.546875 C 451.242188 374.753906 452.078125 373.421875 452.292969 371.960938 C 452.386719 371.359375 452.511719 370.769531 452.667969 370.210938 L 452.699219 370.148438 C 453.148438 370.425781 453.628906 370.613281 454.171875 370.628906 C 455.300781 370.675781 456.652344 370.164062 458.015625 369.109375 C 461.054688 366.75 463.671875 363.773438 465.609375 360.453125 C 466 359.816406 466.355469 359.152344 466.710938 358.484375 C 467.59375 356.824219 468.449219 355.257812 469.625 353.9375 C 471.472656 351.90625 473.953125 350.664062 476.570312 349.363281 C 477.734375 348.789062 478.957031 348.183594 480.089844 347.5 C 482.507812 346.058594 484.679688 344.230469 486.523438 342.105469 C 493.113281 346.988281 500.664062 350.355469 508.382812 351.859375 C 524.644531 344.847656 540.117188 336.070312 554.394531 325.753906 L 556.796875 324.019531 L 556.84375 326.996094 C 556.953125 333.652344 557.648438 340.351562 558.332031 346.820312 C 559.542969 358.390625 560.78125 370.347656 558.75 382.058594 C 558.300781 384.652344 557.835938 387.226562 557.355469 389.816406 L 556.8125 392.824219 L 556.316406 392.902344 L 556.6875 393.585938 L 556.597656 394.113281 C 553.605469 410.476562 550.457031 426.578125 547.203125 442.988281 C 541.574219 471.496094 535.746094 500.96875 531.328125 530.609375 C 533.730469 534.175781 536.753906 537.402344 540.347656 540.179688 L 541.046875 540.722656 L 519.667969 711.15625 C 520.242188 711.871094 521.605469 713.484375 523.839844 715.5 C 523.046875 724.308594 520.988281 732.933594 517.636719 741.230469 L 517.078125 742.597656 C 516.179688 744.785156 515.515625 746.460938 515.3125 748.195312 C 515.140625 748.226562 514.972656 748.257812 514.816406 748.304688 L 514.675781 748.351562 L 514.539062 748.367188 C 511.761719 748.785156 508.863281 750.832031 506.351562 752.710938 C 504.972656 753.75 503.4375 754.851562 501.6875 756.074219 L 501.359375 756.261719 L 501.34375 756.324219 L 500.785156 756.695312 C 494.167969 761.226562 487.175781 765.226562 479.996094 768.59375 L 478.230469 769.414062 C 474.230469 771.261719 470.089844 773.167969 466.929688 776.101562 C 463.734375 779.046875 461.175781 784.027344 462.621094 788.492188 C 464.648438 794.792969 473.007812 796.636719 476.492188 797.117188 C 479.269531 797.503906 482.183594 797.707031 485.421875 797.707031 C 491.050781 797.707031 496.726562 797.117188 502.210938 796.558594 L 550.96875 791.550781 C 551.882812 791.457031 552.628906 791.363281 553.078125 791.023438 C 553.695312 790.558594 553.960938 789.472656 554.175781 788.476562 C 556.175781 778.753906 556.503906 768.824219 555.121094 758.992188 C 554.921875 757.488281 554.640625 755.921875 553.898438 754.710938 C 553.480469 754.042969 552.859375 753.5 552.207031 753.238281 L 552.085938 753.191406 C 553.804688 749.746094 555.402344 745.976562 556.890625 741.726562 C 556.96875 741.511719 557.152344 740.921875 557.417969 740.101562 C 558.875 735.460938 560.054688 731.988281 560.921875 729.660156 C 561.246094 729.675781 561.570312 729.675781 561.898438 729.675781 C 561.929688 729.675781 561.960938 729.675781 561.992188 729.675781 C 566.609375 729.675781 571.460938 729.164062 576.40625 728.171875 L 605.785156 615.5 L 606.09375 614.617188 L 606.949219 614.367188 L 609.242188 612.210938 L 620.589844 728.28125 C 621.816406 728.761719 626.109375 730.34375 632.371094 731.722656 C 632.992188 742.8125 633.363281 753.996094 633.457031 765.101562 C 630.714844 767.492188 628.34375 770.390625 626.25 773 C 622.871094 777.21875 618.652344 782.460938 617.039062 788.386719 C 615.691406 793.316406 616.375 800.21875 621.070312 803.726562 C 623.226562 805.339844 626.015625 806.082031 628.480469 806.59375 C 631.582031 807.246094 634.777344 807.664062 637.96875 807.835938 C 639.148438 807.898438 640.339844 807.929688 641.535156 807.929688 C 648.246094 807.929688 654.835938 806.890625 661.160156 804.859375 C 664.183594 803.878906 667.53125 802.53125 669.515625 799.878906 C 671.128906 797.722656 671.703125 794.835938 672.074219 792.046875 C 673.300781 783.140625 672.398438 775.621094 669.46875 769.664062 C 670.183594 768.734375 670.617188 767.601562 670.570312 766.140625 C 670.371094 759.8125 670.554688 751.296875 670.773438 741.433594 C 670.835938 738.300781 670.910156 735.011719 670.972656 731.644531 C 675.53125 730.4375 679.886719 728.761719 683.933594 726.621094 L 688.058594 552.449219 L 689.234375 552.183594 C 693.855469 551.128906 698.257812 549.828125 702.367188 548.320312 C 698.585938 526.28125 697.390625 503.308594 696.242188 481.097656 L 695.59375 469.046875 C 694.507812 449.515625 692.972656 426.824219 688.445312 404.816406 L 688.257812 403.558594 C 688.664062 404.085938 689.25 404.425781 689.964844 404.503906 C 690.074219 404.519531 690.183594 404.535156 690.289062 404.535156 C 690.289062 404.535156 690.304688 404.535156 690.320312 404.535156 C 691.609375 404.535156 692.894531 403.792969 693.46875 402.722656 C 694.367188 401.078125 694.058594 399.167969 693.792969 397.476562 L 693.761719 397.292969 C 693.113281 393.136719 693.003906 388.792969 692.894531 384.589844 C 692.769531 379.019531 692.632812 373.25 691.1875 367.726562 C 690.691406 365.820312 690.042969 363.914062 689.40625 362.066406 C 688.648438 359.878906 687.917969 357.769531 687.4375 355.644531 C 687.28125 354.992188 687.160156 354.34375 687.066406 353.691406 L 688.167969 354.28125 C 689.375 354.929688 690.632812 355.519531 691.917969 356.015625 C 692.476562 356.234375 693.066406 356.359375 693.652344 356.359375 C 694.367188 356.359375 695.066406 356.203125 695.699219 355.878906 C 696.863281 355.304688 697.730469 354.234375 698.089844 352.945312 C 702.414062 336.953125 708.007812 321.179688 714.707031 306.027344 L 715.761719 303.667969 C 720.984375 291.894531 726.9375 278.570312 722.503906 266.164062 Z M 655.578125 306.675781 C 657.75 295.074219 660.386719 283.269531 663.410156 271.589844 L 663.964844 269.792969 L 665.5 270.535156 L 666.214844 270.226562 L 666.941406 270.816406 C 671.128906 274.226562 674.789062 276.789062 679.578125 279.640625 L 680.832031 280.386719 L 680.136719 281.71875 L 680.460938 281.71875 L 679.734375 283.796875 C 676.476562 293.136719 672.539062 301.898438 668.105469 311.546875 C 666.027344 316.078125 663.828125 320.914062 661.734375 325.816406 C 661.394531 326.59375 661.066406 327.429688 661.128906 328.175781 C 661.222656 329.261719 662.058594 330.253906 662.742188 331.042969 C 663.90625 332.410156 665.050781 333.757812 666.230469 335.09375 C 666.074219 335.652344 665.90625 336.242188 665.703125 336.859375 C 665.378906 337.808594 664.988281 338.785156 664.585938 339.761719 C 664.324219 340.351562 664.042969 340.941406 663.765625 341.515625 L 663.222656 340.492188 C 661.066406 336.410156 659.269531 332.671875 657.75 329.089844 C 656.449219 326.050781 654.898438 322.03125 654.542969 317.921875 C 654.214844 314.292969 654.820312 310.679688 655.578125 306.675781 Z M 655.578125 306.675781 " fill-opacity="1" fill-rule="nonzero"/><path fill="#168aa6" d="M 691.933594 452.371094 L 685.4375 727.085938 C 685.421875 727.378906 685.265625 727.644531 685.003906 727.785156 C 680.367188 730.28125 675.625 732.050781 670.910156 733.257812 C 664.539062 734.902344 658.230469 735.523438 652.324219 735.523438 C 644.804688 735.523438 637.9375 734.515625 632.449219 733.320312 C 624.683594 731.644531 619.691406 729.597656 619.566406 729.535156 C 619.289062 729.414062 619.101562 729.164062 619.070312 728.871094 L 607.816406 613.746094 L 577.773438 728.992188 C 577.695312 729.289062 577.460938 729.519531 577.152344 729.582031 C 571.710938 730.714844 566.65625 731.210938 561.976562 731.210938 C 561.433594 731.210938 560.890625 731.210938 560.363281 731.179688 C 542.210938 730.746094 530.023438 722.929688 523.605469 717.359375 C 520.039062 714.273438 518.257812 711.886719 518.195312 711.808594 C 518.070312 711.636719 518.027344 711.417969 518.054688 711.21875 L 544.675781 499.042969 C 544.675781 498.980469 544.691406 498.933594 544.707031 498.890625 L 547.292969 491.242188 C 552.101562 477.050781 557.0625 462.390625 562.394531 447.996094 C 563.757812 444.304688 565.121094 440.816406 566.75 437.636719 C 566.238281 436.675781 565.898438 435.636719 565.664062 434.550781 C 565.015625 431.554688 564.671875 428.453125 564.394531 425.398438 C 563.835938 419.179688 563.835938 412.910156 564.097656 406.675781 C 564.640625 393.972656 566.253906 381.332031 566.472656 368.628906 C 566.71875 355.753906 565.402344 342.941406 563.945312 330.175781 C 563.804688 328.933594 565.339844 328.082031 566.378906 328.113281 C 585.988281 328.53125 605.429688 325.273438 625.007812 324.667969 C 626.234375 324.625 626.960938 325.257812 627.210938 326.050781 C 627.320312 326.25 627.410156 326.484375 627.441406 326.75 C 628.558594 335.09375 629.84375 343.40625 631.226562 351.707031 C 633.566406 365.867188 636.015625 380.011719 638.605469 394.128906 C 641.179688 408.085938 643.488281 422.1875 643.023438 436.425781 C 642.992188 437.636719 641.765625 438.582031 640.589844 438.503906 C 638.621094 438.363281 636.667969 438.332031 634.714844 438.378906 L 690.351562 452.152344 C 690.445312 451.796875 690.738281 451.535156 691.128906 451.535156 L 691.144531 451.535156 C 691.59375 451.550781 691.949219 451.921875 691.933594 452.371094 Z M 254.855469 310.804688 C 254.605469 311.609375 254.296875 312.460938 253.675781 313.175781 C 253.628906 313.222656 253.582031 313.269531 253.535156 313.316406 C 252.945312 313.921875 252.203125 314.308594 251.582031 314.617188 C 246.917969 317.039062 242.109375 319.472656 237.226562 321.878906 L 237.492188 335.746094 C 237.925781 335.730469 238.28125 336.039062 238.328125 336.457031 C 242.824219 379.082031 246.4375 422.386719 249.054688 465.167969 C 249.054688 465.214844 249.054688 465.246094 249.039062 465.277344 L 249.039062 465.292969 C 249.039062 465.308594 249.039062 465.308594 249.039062 465.308594 L 248.464844 474.894531 L 248.40625 475.886719 L 234.078125 716.738281 C 234.066406 717.035156 233.894531 717.28125 233.628906 717.421875 C 231.644531 718.445312 229.660156 719.347656 227.691406 720.121094 C 212.390625 726.324219 198.003906 726.125 189.417969 725.117188 C 186.070312 724.726562 183.605469 724.214844 182.300781 723.90625 L 182.300781 731.507812 C 182.300781 731.878906 182.054688 732.203125 181.679688 732.296875 C 176.347656 733.648438 171.234375 734.671875 166.394531 735.429688 C 158.039062 736.71875 150.472656 737.214844 143.792969 737.214844 C 135.917969 737.214844 129.25 736.53125 124.011719 735.664062 C 115.238281 734.238281 110.402344 732.3125 110.277344 732.265625 C 109.964844 732.125 109.765625 731.832031 109.765625 731.492188 L 112.664062 479.46875 L 112.773438 469.914062 C 110.882812 469.0625 109.050781 468.144531 107.285156 467.167969 C 107.003906 467.027344 106.851562 466.734375 106.867188 466.425781 C 108.167969 437.574219 109.285156 408.179688 110.152344 379.035156 C 110.292969 374.613281 110.648438 370.070312 111.019531 365.277344 C 111.8125 355.179688 112.617188 344.757812 111.253906 335.449219 C 110.820312 332.519531 109.46875 329.570312 108.152344 326.71875 C 107.300781 324.871094 106.417969 322.964844 105.78125 321.039062 C 103.703125 314.757812 101.65625 307.964844 100.710938 300.828125 C 99.347656 290.546875 100.648438 281.160156 104.476562 273.714844 C 106.121094 270.488281 108.214844 267.605469 110.835938 264.269531 C 121.640625 250.542969 134.105469 238.164062 147.949219 227.492188 C 147.996094 228.484375 148.023438 229.480469 148.039062 230.472656 C 148.054688 231.652344 148.085938 233 148.707031 234.179688 C 149.171875 235.09375 149.902344 235.730469 150.722656 236.414062 C 162.675781 246.277344 174.222656 251.273438 185.09375 251.273438 C 186.269531 251.273438 187.433594 251.210938 188.578125 251.101562 C 188.9375 251.054688 189.230469 250.789062 189.292969 250.433594 L 191.199219 240.179688 C 191.371094 239.328125 191.539062 238.367188 191.449219 237.390625 C 191.386719 236.785156 191.214844 236.210938 191 235.667969 C 195.277344 239.003906 200.332031 241.484375 205.277344 243.917969 C 212.703125 247.566406 220.375 251.332031 225.523438 257.925781 C 229.785156 263.402344 231.800781 270.257812 233.210938 276.261719 C 233.910156 279.191406 234.484375 282.167969 235.042969 285.148438 C 237.582031 283.535156 240.203125 281.734375 243.195312 279.332031 C 243.535156 279.066406 243.832031 278.757812 244.140625 278.445312 C 244.574219 278.027344 245.023438 277.578125 245.550781 277.222656 C 245.707031 277.097656 245.894531 276.988281 246.078125 276.894531 C 247.535156 276.121094 249.132812 276.074219 250.34375 276.757812 C 252.265625 277.828125 252.667969 280.339844 252.386719 282.324219 L 252.359375 282.636719 C 252.265625 283.191406 252.1875 283.71875 252.328125 284.140625 C 252.433594 284.511719 252.730469 284.867188 253.039062 285.257812 L 253.289062 285.550781 C 254.960938 287.660156 255.707031 290.5 255.273438 293.152344 C 255.210938 293.539062 255.117188 293.925781 255.023438 294.316406 C 254.882812 294.917969 254.761719 295.476562 254.730469 296.050781 C 254.699219 296.90625 254.898438 297.789062 255.132812 298.71875 L 255.304688 299.417969 C 256.140625 303.1875 255.984375 307.109375 254.855469 310.804688 Z M 222.191406 333.199219 C 222.160156 332.9375 222.003906 332.71875 221.769531 332.597656 C 214.640625 328.78125 209.789062 321.085938 209.414062 312.988281 C 209.398438 312.710938 209.261719 312.476562 209.027344 312.324219 C 208.796875 312.183594 208.515625 312.167969 208.285156 312.277344 C 194.019531 318.433594 179.914062 324.792969 166.273438 331.214844 C 163.929688 332.316406 161.605469 333.417969 159.296875 334.519531 C 158.675781 333.882812 158.023438 333.277344 157.390625 332.71875 C 156.351562 333.292969 155.3125 334.007812 154.335938 334.675781 C 153.933594 334.9375 153.527344 335.21875 153.15625 335.464844 C 150.148438 337.449219 147.683594 340.257812 145.4375 342.988281 C 141.761719 347.425781 138.195312 352.0625 134.878906 356.777344 C 133.824219 358.265625 132.570312 360.050781 131.003906 361.507812 C 132.242188 363.417969 133.578125 365.246094 135.035156 367 C 137.980469 370.503906 141.25 373.375 144.800781 375.484375 C 147.683594 377.207031 150.925781 378.089844 154.179688 378.089844 C 156.96875 378.089844 159.761719 377.453125 162.347656 376.164062 C 166.566406 374.101562 170.707031 371.902344 174.765625 369.589844 C 191.945312 359.800781 207.773438 347.828125 221.957031 333.898438 C 222.144531 333.710938 222.21875 333.449219 222.191406 333.199219 Z M 189.710938 134.957031 C 186.640625 131.109375 181.867188 127.976562 175.898438 125.898438 C 166.8125 122.746094 156.691406 122.453125 147.421875 125.089844 C 142.554688 126.457031 137.578125 128.75 132.601562 131.882812 C 129.996094 133.511719 127.761719 135.140625 125.777344 136.847656 C 117.871094 143.609375 112.152344 153.320312 109.703125 164.148438 C 107.53125 173.71875 107.75 184.234375 110.371094 195.371094 C 110.972656 197.960938 111.8125 200.96875 113.316406 203.699219 C 116.429688 209.285156 122.554688 213.609375 129.699219 215.238281 C 131.996094 215.765625 134.398438 216.015625 136.863281 216.015625 C 139.996094 216.015625 143.21875 215.597656 146.414062 214.757812 C 145.855469 211.859375 145.140625 208.988281 144.304688 206.164062 C 139.996094 206.460938 135.609375 205.761719 131.609375 204.117188 C 125.777344 201.699219 120.554688 193.414062 123.761719 187.257812 C 124.800781 185.242188 127.019531 183.90625 129.28125 183.832031 C 131.097656 183.753906 132.878906 184.433594 134.226562 185.644531 C 134.367188 185.242188 134.507812 184.839844 134.660156 184.402344 C 137.328125 187.320312 138.941406 190.113281 141.871094 191.570312 C 140.613281 184.078125 140.335938 177.5625 141.003906 170.523438 C 144.988281 163.695312 150.117188 157.632812 156.738281 153.398438 C 166.691406 147.039062 178.84375 145.425781 190.5625 143.996094 C 191.617188 145.316406 192.59375 146.695312 193.480469 148.125 C 194.207031 143.765625 192.859375 138.910156 189.710938 134.957031 Z M 189.710938 134.957031 " fill-opacity="1" fill-rule="nonzero"/><path fill="#f2efeb" d="M 282.417969 790.355469 C 282.292969 791.253906 282.0625 792.386719 281.316406 793.269531 C 281.039062 793.597656 280.710938 793.875 280.324219 794.09375 C 279.472656 794.605469 278.480469 794.824219 277.597656 794.992188 C 270.480469 796.359375 263.179688 797.039062 255.890625 797.039062 C 247.117188 797.039062 238.34375 796.046875 229.847656 794.078125 L 228.761719 793.828125 C 226.949219 793.394531 225.058594 792.945312 223.195312 792.757812 C 220.933594 792.527344 218.59375 792.667969 216.328125 792.804688 L 215.011719 792.882812 C 209.507812 793.179688 203.941406 793.085938 198.457031 792.589844 C 195.976562 792.371094 193.152344 791.96875 191.214844 790.058594 C 190.921875 789.765625 190.671875 789.457031 190.441406 789.128906 C 190.347656 792.527344 190.050781 795.707031 187.402344 798.3125 C 186.625 799.074219 185.835938 799.707031 185 800.234375 C 176.332031 805.695312 166.472656 808.363281 154.644531 808.363281 C 149.527344 808.363281 144.042969 807.867188 138.132812 806.875 C 126.910156 804.980469 120.925781 800.453125 119.808594 793.007812 C 119.191406 788.867188 119.59375 784.152344 119.964844 779.574219 C 120.335938 775.09375 120.726562 770.453125 120.136719 766.515625 C 119.703125 763.613281 119.4375 760.820312 120.878906 758.464844 C 121.792969 756.976562 123.640625 756.03125 125.46875 756.074219 C 126.878906 756.121094 128.011719 756.789062 128.617188 757.90625 L 128.832031 758.308594 C 129.546875 756.464844 130.570312 754.929688 131.902344 753.75 C 135.3125 750.738281 140.148438 750.414062 144.894531 750.476562 C 149.527344 750.554688 154.210938 750.832031 158.847656 751.296875 C 161.015625 751.515625 163.265625 751.855469 164.84375 753.4375 C 165.527344 754.121094 165.976562 754.929688 166.410156 755.71875 C 166.628906 756.121094 166.859375 756.527344 167.109375 756.914062 C 169.277344 760.125 173.867188 765.273438 177.261719 766.683594 C 179.664062 767.679688 182.144531 768.71875 184.394531 770.191406 C 186.253906 771.417969 187.585938 772.53125 188.566406 773.679688 C 188.488281 764.078125 188.78125 754.417969 189.449219 744.875 C 189.464844 744.566406 189.679688 744.289062 189.976562 744.179688 C 190.269531 744.070312 190.609375 744.132812 190.828125 744.363281 L 191.058594 744.597656 C 196.75 750.273438 203.199219 756.695312 211.136719 756.914062 C 211.476562 756.929688 211.878906 756.914062 212.050781 756.757812 C 212.328125 756.527344 212.269531 755.796875 212.222656 755.222656 C 211.710938 749.515625 214.871094 743.605469 219.910156 740.859375 C 222.824219 739.277344 225.972656 739.015625 228.328125 740.175781 C 230.5 741.246094 231.800781 743.277344 233.058594 745.25 L 233.582031 746.070312 C 239.054688 754.445312 248.234375 760.292969 258.125 761.722656 C 259.179688 761.875 260.28125 761.984375 261.363281 762.109375 C 265.859375 762.589844 270.511719 763.070312 273.8125 766.234375 C 275.582031 767.925781 276.679688 770.175781 277.65625 772.175781 C 280.183594 777.308594 283.316406 783.746094 282.417969 790.355469 Z M 229.925781 325.679688 C 227.398438 328.40625 224.714844 331.167969 221.957031 333.898438 C 207.773438 347.828125 191.945312 359.800781 174.765625 369.589844 L 180.796875 396.875 C 180.84375 397.105469 181 397.292969 181.199219 397.417969 C 181.308594 397.476562 181.449219 397.507812 181.589844 397.507812 C 181.679688 397.507812 181.773438 397.492188 181.851562 397.460938 L 264.992188 368.457031 C 265.378906 368.316406 265.613281 367.914062 265.519531 367.511719 L 253.535156 313.316406 C 252.945312 313.921875 252.203125 314.308594 251.582031 314.617188 C 244.902344 318.09375 237.925781 321.582031 230.871094 324.964844 C 230.515625 325.136719 230.1875 325.367188 229.925781 325.679688 Z M 155.3125 281.609375 L 166.273438 331.214844 C 179.914062 324.792969 194.019531 318.433594 208.285156 312.277344 L 212.375 310.492188 C 213.832031 309.855469 214.824219 308.507812 214.964844 306.941406 L 215.878906 296.703125 C 216.128906 293.894531 216.390625 290.996094 217.570312 288.296875 C 218.097656 287.085938 218.777344 285.96875 219.460938 284.882812 C 219.957031 284.0625 220.484375 283.222656 220.917969 282.355469 C 222.082031 280.058594 222.65625 277.46875 222.578125 274.894531 C 222.546875 273.484375 222.484375 271.605469 223.941406 270.691406 C 225.554688 269.667969 227.445312 270.785156 228.5625 272.054688 C 230.515625 274.257812 231.707031 277.082031 231.925781 280.027344 C 232.050781 281.828125 231.816406 283.644531 231.585938 285.394531 C 231.492188 286.078125 231.414062 286.730469 231.335938 287.382812 C 235.117188 285.164062 238.746094 282.898438 243.195312 279.332031 C 243.535156 279.066406 243.832031 278.757812 244.140625 278.445312 C 244.574219 278.027344 245.023438 277.578125 245.550781 277.222656 L 240.03125 252.25 C 239.988281 252.015625 239.847656 251.816406 239.644531 251.707031 C 239.445312 251.597656 239.195312 251.566406 238.980469 251.644531 L 155.839844 280.664062 C 155.449219 280.804688 155.234375 281.207031 155.3125 281.609375 Z M 132.957031 185.398438 C 135.25 186.15625 137.21875 187.566406 139.265625 188.808594 C 141.328125 190.050781 143.4375 191.199219 145.621094 192.238281 C 149.375 194.019531 153.480469 195.804688 157.589844 196.78125 C 157.464844 197.292969 157.417969 197.820312 157.402344 198.316406 C 157.359375 199.605469 157.359375 200.890625 157.449219 202.179688 C 157.683594 206.523438 158.644531 210.820312 160.273438 214.898438 C 160.039062 214.804688 159.808594 214.726562 159.589844 214.648438 C 157.683594 213.890625 155.855469 212.992188 154.054688 211.996094 C 152.304688 211.019531 150.503906 210.152344 148.816406 209.082031 C 148.289062 208.742188 147.761719 208.414062 147.234375 208.058594 C 146.894531 207.839844 146.550781 207.625 146.210938 207.390625 C 145.4375 206.863281 144.613281 206.105469 143.667969 205.980469 C 143.25 205.933594 142.566406 206.179688 142.769531 206.738281 C 143.09375 207.625 144.042969 208.089844 144.753906 208.632812 C 145.589844 209.269531 146.429688 209.886719 147.28125 210.507812 C 148.738281 211.59375 150.164062 212.726562 151.683594 213.71875 C 151.949219 213.921875 152.226562 214.09375 152.503906 214.261719 C 154.304688 215.332031 156.148438 216.324219 158.070312 217.148438 C 159.046875 217.582031 160.054688 217.9375 161.078125 218.265625 C 161.371094 218.359375 161.667969 218.464844 161.945312 218.542969 C 162.054688 218.667969 162.179688 218.777344 162.335938 218.824219 C 168.753906 220.761719 177.464844 222.839844 186.113281 223.179688 C 186.9375 223.226562 187.773438 223.242188 188.59375 223.242188 C 190.425781 223.242188 192.253906 223.148438 194.035156 222.964844 C 203.507812 221.957031 206.59375 212.480469 209.074219 204.863281 C 209.292969 204.179688 209.507812 203.496094 209.742188 202.847656 C 211.199219 198.503906 212.5 193.898438 211.167969 189.476562 C 210.253906 186.375 208.144531 183.875 206.113281 181.472656 L 205.742188 181.054688 C 205.617188 180.914062 205.460938 180.804688 205.277344 180.773438 C 204.65625 180.664062 204.019531 180.589844 203.339844 180.527344 C 200.222656 180.199219 197.136719 179.890625 194.007812 179.582031 C 192.609375 179.425781 190.875 179.238281 189.199219 179.6875 C 186.765625 180.355469 185.078125 182.171875 183.433594 183.9375 C 182.65625 184.777344 181.851562 185.628906 181 186.328125 C 179.140625 187.863281 176.875 188.761719 174.332031 189.691406 C 169.835938 191.335938 165.21875 192.8125 160.628906 194.097656 C 160.132812 194.238281 159.542969 194.410156 159 194.734375 C 156.921875 194.113281 154.832031 193.617188 152.769531 192.933594 C 150.429688 192.160156 148.132812 191.246094 145.871094 190.234375 C 143.730469 189.273438 141.636719 188.234375 139.589844 187.101562 C 137.5625 185.984375 135.59375 184.808594 133.34375 184.171875 C 132.476562 183.921875 132.042969 185.085938 132.957031 185.398438 Z M 723.960938 265.636719 C 721.652344 259.183594 717.527344 252.09375 713.449219 247.59375 C 697.109375 229.570312 680.214844 210.914062 660.679688 195.601562 C 660.199219 195.230469 659.671875 194.8125 659.113281 194.378906 C 653.410156 189.941406 643.6875 182.730469 636.976562 182.09375 L 636.496094 182.046875 L 636.0625 182.699219 L 635.566406 183.425781 C 630.589844 190.824219 625.367188 198.628906 620.574219 206.679688 C 613.242188 218.960938 606.917969 231.820312 604.097656 244.773438 C 602.746094 250.976562 601.941406 257.847656 601.644531 265.804688 C 601.089844 280.789062 602.46875 295.957031 603.785156 310.617188 C 604.3125 316.339844 604.839844 322.171875 605.242188 328.019531 C 605.492188 331.402344 605.691406 334.78125 605.832031 338.148438 C 606.40625 351.875 606.699219 365.789062 606.980469 379.238281 C 607.320312 395.105469 607.675781 411.5 608.46875 427.722656 C 608.839844 435.015625 609.027344 445.671875 609.242188 458.015625 C 609.816406 491.628906 610.605469 537.652344 616 551.78125 L 616.09375 552.027344 L 616.328125 552.183594 C 622.109375 555.78125 629.226562 556.464844 636.03125 556.851562 C 641.332031 557.148438 647.085938 557.378906 653.097656 557.378906 C 669.003906 557.378906 686.800781 555.765625 703.4375 549.546875 L 704.070312 549.316406 L 703.949219 548.648438 C 700.132812 526.699219 698.910156 503.480469 697.746094 481.003906 C 697.53125 476.988281 697.3125 472.96875 697.097656 468.953125 C 695.917969 447.78125 694.304688 425.847656 689.917969 404.488281 C 689.050781 404.394531 688.351562 403.929688 687.980469 403.203125 C 687.59375 402.425781 687.160156 401.710938 686.722656 401 C 685.777344 399.433594 684.785156 397.804688 684.398438 395.820312 L 680.816406 378.105469 C 680.167969 374.925781 679.515625 371.652344 677.839844 368.875 C 676.230469 366.207031 673.6875 364.425781 670.867188 363.988281 C 668.957031 363.710938 667.890625 364.796875 667.035156 367.914062 C 666.199219 371.03125 665.175781 374.304688 662.972656 376.894531 C 660.898438 379.347656 657.191406 381.316406 653.609375 380.136719 C 652.679688 379.84375 652.0625 379.363281 651.75 378.726562 C 651.363281 377.917969 651.550781 377.035156 651.6875 376.460938 L 655.953125 356.949219 C 656.402344 354.929688 656.851562 352.867188 657.796875 350.929688 C 658.523438 349.457031 659.5 348.152344 660.449219 346.882812 C 660.914062 346.261719 661.363281 345.65625 661.796875 345.019531 C 662.757812 343.609375 663.734375 341.714844 664.585938 339.792969 C 662.632812 336.101562 660.789062 332.332031 659.160156 328.5 C 657.8125 325.367188 656.402344 321.628906 656.074219 317.8125 C 655.78125 314.324219 656.371094 310.832031 657.097656 306.957031 C 659.332031 295.027344 662.011719 283.054688 665.066406 271.3125 C 669.332031 274.832031 673.191406 277.671875 679.050781 281.160156 C 675.59375 291.523438 671.285156 300.953125 666.710938 310.925781 C 664.585938 315.566406 662.402344 320.375 660.324219 325.226562 C 659.90625 326.191406 659.5 327.230469 659.59375 328.347656 C 659.734375 329.914062 660.789062 331.167969 661.5625 332.082031 C 662.945312 333.710938 664.308594 335.308594 665.703125 336.890625 C 666.074219 335.761719 666.386719 334.675781 666.554688 333.742188 C 666.585938 333.496094 666.742188 333.292969 666.957031 333.183594 C 667.160156 333.078125 667.410156 333.0625 667.640625 333.167969 C 677.917969 337.699219 682.335938 343.175781 686.664062 349.332031 C 686.769531 349.472656 686.816406 349.640625 686.800781 349.828125 C 686.695312 351.796875 686.941406 353.722656 687.390625 355.628906 C 688.664062 356.3125 689.964844 356.917969 691.296875 357.445312 C 692.941406 358.097656 694.769531 358.035156 696.351562 357.242188 C 697.917969 356.46875 699.078125 355.039062 699.546875 353.332031 C 703.855469 337.433594 709.421875 321.722656 716.085938 306.644531 L 717.140625 304.289062 C 722.519531 292.265625 728.613281 278.632812 723.960938 265.636719 Z M 629.582031 149.84375 C 629.039062 150.527344 628.464844 151.070312 628.046875 151.847656 C 627.800781 152.28125 627.566406 152.746094 627.335938 153.195312 C 627.179688 153.539062 627.007812 153.878906 626.824219 154.21875 C 625.96875 155.832031 625.007812 157.398438 623.984375 158.902344 C 622.359375 161.246094 620.496094 163.726562 618.328125 165.699219 C 618.328125 165.761719 618.328125 165.820312 618.3125 165.867188 L 618.28125 166.132812 L 618.09375 166.316406 C 612.03125 172.691406 604.5 177.5 596.421875 180.246094 C 594.375 180.945312 592.3125 181.503906 590.222656 181.921875 C 588.765625 182.21875 587.074219 182.496094 585.335938 182.496094 C 583.585938 182.496094 581.804688 182.21875 580.128906 181.441406 C 578.207031 180.527344 576.6875 179.066406 575.324219 177.625 C 573.507812 175.703125 571.710938 173.609375 569.960938 171.40625 C 568.160156 169.125 566.75 167.140625 565.726562 164.90625 C 563.046875 158.996094 563.632812 152.421875 564.191406 146.0625 L 564.378906 143.859375 L 565.136719 143.859375 C 567.742188 143.363281 570.347656 142.398438 572.875 141.453125 C 576.625 140.058594 580.515625 138.601562 584.609375 138.691406 C 588.390625 138.769531 591.941406 140.136719 595.367188 141.453125 C 597.289062 142.199219 599.273438 142.957031 601.257812 143.46875 C 604.886719 144.417969 608.746094 144.585938 612.4375 143.96875 C 612.933594 143.875 613.445312 143.796875 613.972656 143.921875 C 614.015625 143.9375 614.078125 143.96875 614.125 143.984375 C 614.605469 143.332031 615.054688 142.679688 615.476562 142.027344 C 616.636719 140.261719 617.613281 138.382812 618.574219 136.523438 C 620.945312 131.867188 623.367188 127.027344 626.480469 122.824219 C 626.746094 122.46875 627.613281 122.625 627.425781 123.167969 C 626.464844 125.835938 625.210938 128.222656 623.894531 130.71875 C 622.652344 133.0625 621.441406 135.4375 620.125 137.730469 C 618.960938 139.734375 617.753906 141.703125 616.296875 143.5 C 615.957031 143.921875 615.597656 144.324219 615.226562 144.679688 C 615.738281 145.253906 616.03125 145.96875 616.1875 146.371094 C 618.25 151.722656 619.070312 157.539062 618.605469 163.324219 C 618.933594 162.953125 619.257812 162.59375 619.566406 162.222656 C 620.761719 160.78125 621.878906 159.277344 622.914062 157.710938 C 623.96875 156.097656 624.945312 154.40625 625.816406 152.667969 C 626.496094 151.289062 627.132812 149.425781 628.761719 148.945312 C 629.242188 148.804688 629.96875 149.347656 629.582031 149.84375 Z M 590.578125 196.609375 C 590.40625 194.921875 590.238281 193.167969 590.082031 191.320312 L 590.082031 191.273438 L 589.957031 189.832031 L 588.777344 190.746094 C 585.941406 192.902344 582.78125 194.796875 579.710938 196.625 C 574.160156 199.929688 568.410156 203.359375 564.363281 208.585938 C 561.820312 211.875 560.097656 215.691406 558.394531 219.660156 C 549.402344 240.691406 542.085938 262.625 536.644531 284.851562 C 517.542969 297.480469 494.105469 309.792969 473.425781 320.667969 L 468.664062 323.179688 L 469.023438 323.894531 C 476.632812 338.941406 491.671875 350.246094 508.289062 353.394531 L 508.539062 353.441406 L 508.753906 353.347656 C 525.171875 346.292969 540.8125 337.433594 555.277344 326.980469 C 555.386719 333.652344 556.085938 340.398438 556.765625 346.941406 C 557.960938 358.421875 559.183594 370.304688 557.199219 381.75 C 553.648438 402.117188 549.589844 422.730469 545.652344 442.660156 C 539.976562 471.386719 534.117188 501.105469 529.714844 530.640625 L 529.667969 530.933594 L 529.839844 531.199219 C 537.171875 542.289062 550.007812 549.75 563.324219 550.695312 L 563.976562 550.742188 L 564.160156 550.121094 C 568.066406 537.167969 572.113281 523.800781 574.828125 510.027344 C 578.40625 491.816406 579.554688 473.558594 580.253906 456.558594 C 581.367188 429.507812 581.382812 402.070312 580.300781 375.003906 C 579.742188 361.304688 578.902344 347.441406 577.789062 333.773438 C 577.679688 332.535156 577.570312 331.308594 577.429688 330.082031 C 576.964844 325.847656 576.316406 321.660156 575.679688 317.597656 C 574.796875 311.875 573.882812 305.949219 573.492188 300.007812 C 572.050781 278.324219 574.703125 259.105469 581.367188 242.863281 C 584.546875 235.125 588.421875 225.246094 590.144531 217.550781 C 591.894531 209.734375 591.289062 203.652344 590.578125 196.609375 Z M 498.726562 763.335938 C 498.304688 762.992188 497.886719 762.636719 497.484375 762.28125 C 496.664062 761.566406 495.886719 760.808594 495.113281 760.03125 C 494.878906 759.78125 494.414062 759.675781 494.089844 759.675781 C 493.75 759.675781 493.3125 759.796875 493.066406 760.03125 C 492.832031 760.25 492.617188 760.558594 492.648438 760.898438 C 492.664062 761.273438 492.832031 761.503906 493.066406 761.769531 C 493.855469 762.621094 494.664062 763.445312 495.515625 764.25 C 495.933594 764.636719 496.351562 765.027344 496.785156 765.398438 C 497.003906 765.585938 497.207031 765.753906 497.421875 765.941406 C 497.871094 766.3125 498.382812 766.53125 498.941406 766.5 C 498.925781 766.5 498.910156 766.5 498.894531 766.515625 C 498.941406 766.515625 498.988281 766.515625 499.035156 766.515625 C 499.546875 766.5 500.167969 766.15625 500.273438 765.613281 C 500.273438 765.613281 500.273438 765.601562 500.273438 765.601562 C 500.414062 765.320312 500.289062 764.839844 500.121094 764.605469 C 499.761719 764.078125 499.207031 763.722656 498.726562 763.335938 Z M 637.828125 767.460938 C 640.683594 767.027344 643.613281 766.546875 646.496094 766.625 C 647.734375 766.65625 648.960938 766.824219 650.136719 767.167969 C 651.394531 767.523438 652.386719 768.253906 653.550781 768.78125 C 654.585938 769.246094 656.015625 768.175781 655.007812 767.183594 C 654.03125 766.203125 652.324219 765.675781 651.023438 765.335938 C 649.6875 764.996094 648.277344 764.839844 646.914062 764.824219 C 643.675781 764.808594 640.621094 765.691406 637.566406 766.640625 C 636.945312 766.839844 637.242188 767.554688 637.828125 767.460938 Z M 655.039062 773.496094 C 647.582031 770.222656 638.882812 770.40625 631.769531 774.488281 C 631.085938 774.875 631.753906 775.605469 632.355469 775.355469 C 639.101562 772.609375 646.945312 772.5625 653.609375 775.542969 C 655.066406 776.179688 656.679688 774.222656 655.039062 773.496094 Z M 505.917969 758.945312 C 505.390625 758.511719 504.863281 758.0625 504.351562 757.613281 C 503.839844 757.160156 503.34375 756.726562 502.816406 756.308594 C 502.273438 755.890625 501.761719 755.425781 501.25 754.960938 C 500.972656 754.710938 500.507812 754.695312 500.199219 754.914062 C 499.917969 755.097656 499.761719 755.488281 499.996094 755.796875 C 500.398438 756.324219 500.816406 756.851562 501.191406 757.394531 C 501.609375 757.984375 502.105469 758.527344 502.585938 759.054688 C 503.035156 759.535156 503.484375 760.03125 503.949219 760.496094 C 504.179688 760.746094 504.429688 760.976562 504.675781 761.210938 C 504.863281 761.378906 505.050781 761.566406 505.28125 761.675781 C 505.515625 761.800781 505.746094 761.847656 505.996094 761.894531 C 506.769531 762.015625 507.5625 761.566406 507.40625 760.699219 C 507.25 759.921875 506.492188 759.425781 505.917969 758.945312 Z M 505.917969 758.945312 " fill-opacity="1" fill-rule="nonzero"/><path fill="#3b365f" d="M 659.113281 194.378906 C 653.410156 189.941406 643.6875 182.730469 636.976562 182.09375 L 636.496094 182.046875 L 636.0625 182.699219 C 634.898438 181.96875 633.675781 181.347656 632.339844 180.914062 C 630.699219 180.355469 629.023438 180.046875 627.351562 179.90625 C 626.0625 175.375 626.667969 169.328125 626.992188 164.734375 C 627.335938 160.035156 627.675781 155.335938 628.03125 150.652344 C 628.25 150.1875 628.433594 149.722656 628.621094 149.242188 C 629.503906 149.007812 630.355469 148.882812 631.164062 148.773438 C 633.242188 148.480469 635.210938 148.203125 637.132812 146.109375 C 639.953125 143.066406 641.765625 139.019531 642.261719 134.722656 C 642.742188 130.472656 641.707031 126.175781 639.394531 122.964844 C 638.03125 121.058594 636.464844 119.910156 634.777344 119.523438 C 632.820312 119.085938 630.574219 119.738281 628.761719 121.273438 C 628.496094 121.492188 628.265625 121.722656 628.046875 121.957031 C 626.386719 123.648438 625.351562 126.113281 625.148438 128.890625 C 625.054688 130.394531 624.929688 131.820312 624.792969 133.203125 C 623.023438 119.210938 616.125 106.136719 605.523438 96.859375 C 605.445312 96.796875 605.335938 96.75 605.226562 96.765625 C 605.117188 96.765625 605.027344 96.828125 604.949219 96.90625 C 598.761719 104.121094 590.238281 109.097656 580.871094 110.960938 C 580.996094 110.648438 581.136719 110.371094 581.277344 110.105469 C 581.355469 109.953125 581.324219 109.75 581.199219 109.625 C 579.339844 107.765625 566.175781 114.203125 562.175781 116.234375 C 562.070312 116.28125 561.992188 116.386719 561.960938 116.511719 C 561.695312 117.878906 561.585938 119.273438 561.648438 120.652344 C 561.574219 120.5625 561.496094 120.484375 561.417969 120.40625 C 561.246094 120.25 561.152344 120.019531 561.152344 119.800781 C 561.152344 96.691406 578.6875 81.148438 604.777344 81.148438 C 630.511719 81.148438 649.921875 98.613281 649.921875 121.769531 C 649.921875 133.171875 645.425781 143.546875 638.0625 151.351562 C 639.238281 153.226562 640.726562 154.980469 642.171875 156.703125 C 642.636719 157.246094 643.101562 157.789062 643.566406 158.34375 C 652.046875 168.628906 657.410156 181.238281 659.113281 194.378906 Z M 521.964844 727.117188 C 521.886719 727.457031 522.039062 727.816406 522.351562 727.96875 C 531.328125 732.777344 540.953125 734.222656 549.230469 734.222656 C 552.8125 734.222656 556.128906 733.941406 559.046875 733.570312 C 559.339844 733.539062 559.585938 733.335938 559.695312 733.042969 C 559.929688 732.359375 560.144531 731.738281 560.363281 731.179688 C 542.210938 730.746094 530.023438 722.929688 523.605469 717.359375 C 523.234375 720.617188 522.691406 723.875 521.964844 727.117188 Z M 556.625 758.757812 C 558.007812 768.71875 557.679688 778.90625 555.664062 788.757812 C 555.402344 790.042969 555.03125 791.441406 553.976562 792.230469 C 553.167969 792.835938 552.101562 792.960938 551.09375 793.070312 C 534.847656 794.746094 518.582031 796.40625 502.335938 798.078125 C 493.65625 798.964844 484.882812 799.863281 476.246094 798.636719 C 469.984375 797.753906 463.054688 794.976562 461.117188 788.945312 C 459.519531 783.996094 462.03125 778.472656 465.859375 774.9375 C 469.671875 771.402344 474.601562 769.367188 479.316406 767.167969 C 488.507812 762.855469 497.265625 757.582031 505.390625 751.453125 C 508.042969 749.453125 511.140625 747.28125 514.273438 746.816406 C 517.730469 745.605469 521.621094 747.808594 524.242188 750.460938 C 526.984375 753.238281 529.296875 756.664062 532.875 758.214844 C 537.386719 760.171875 542.921875 758.433594 546.363281 754.914062 C 547.714844 753.53125 549.015625 751.78125 550.9375 751.53125 C 552.628906 751.3125 554.285156 752.429688 555.183594 753.875 C 556.101562 755.316406 556.394531 757.054688 556.625 758.757812 Z M 652.324219 735.523438 C 658.230469 735.523438 664.539062 734.902344 670.910156 733.257812 C 670.851562 736.050781 670.804688 738.765625 670.742188 741.386719 C 670.726562 741.710938 670.523438 742.007812 670.214844 742.117188 C 663.332031 744.550781 656.542969 745.777344 650.167969 745.777344 C 644.0625 745.777344 638.339844 744.660156 633.300781 742.410156 C 633.023438 742.285156 632.851562 742.023438 632.835938 741.726562 C 632.714844 738.75 632.589844 735.957031 632.449219 733.320312 C 637.9375 734.515625 644.804688 735.523438 652.324219 735.523438 Z M 665.394531 761.472656 C 674.367188 769.988281 674.910156 782.414062 673.578125 792.230469 C 673.160156 795.242188 672.539062 798.34375 670.726562 800.792969 C 668.554688 803.695312 665.035156 805.214844 661.59375 806.316406 C 653.953125 808.78125 645.859375 809.789062 637.84375 809.355469 C 634.574219 809.167969 631.332031 808.75 628.125 808.085938 C 625.289062 807.496094 622.417969 806.671875 620.109375 804.949219 C 615.117188 801.226562 613.878906 793.96875 615.519531 787.964844 C 617.164062 781.949219 621.117188 776.875 625.023438 772.019531 C 627.953125 768.375 630.945312 764.699219 634.777344 762.03125 C 640.976562 757.703125 647.640625 756.710938 654.835938 756.960938 C 658.632812 758.0625 662.476562 758.710938 665.394531 761.472656 Z M 458.449219 345.8125 C 458.511719 345.996094 458.464844 346.089844 458.433594 346.121094 C 458.371094 346.246094 458.339844 346.371094 458.339844 346.507812 C 458.371094 349.9375 456.683594 353.117188 454.882812 356.484375 C 453.285156 359.492188 451.628906 362.609375 451.226562 366.039062 C 451.023438 367.789062 451.378906 369.09375 452.292969 369.882812 C 452.820312 370.332031 453.457031 370.582031 454.15625 370.597656 C 454.015625 371.09375 453.90625 371.621094 453.828125 372.148438 C 453.566406 374.027344 452.464844 375.761719 450.867188 376.800781 C 449.285156 377.824219 447.242188 378.121094 445.425781 377.578125 C 444.945312 377.4375 444.339844 377.128906 443.90625 376.664062 C 443.425781 377.28125 442.898438 377.855469 442.328125 378.414062 C 441.148438 379.53125 439.953125 380.121094 438.871094 380.121094 C 438.496094 380.121094 438.15625 380.058594 437.816406 379.917969 C 436.855469 379.5625 436.09375 378.632812 435.769531 377.46875 C 435.503906 376.523438 435.550781 375.546875 435.597656 374.675781 L 435.675781 372.753906 C 437.582031 372.457031 439.488281 371.34375 440.867188 369.621094 C 442.652344 367.402344 443.410156 364.5625 443.890625 362.347656 C 444.03125 361.695312 444.15625 361.058594 444.28125 360.40625 C 444.605469 358.625 444.960938 356.777344 445.597656 355.085938 C 447.316406 350.449219 451.347656 346.742188 456.09375 345.40625 C 456.683594 345.238281 457.363281 345.082031 457.90625 345.285156 C 458.140625 345.359375 458.355469 345.578125 458.449219 345.8125 Z M 605.242188 328.019531 C 595.972656 328.8125 586.640625 329.742188 577.429688 330.082031 C 576.964844 325.847656 576.316406 321.660156 575.679688 317.597656 C 574.796875 311.875 573.882812 305.949219 573.492188 300.007812 C 572.050781 278.324219 574.703125 259.105469 581.367188 242.863281 C 581.570312 242.351562 581.789062 241.824219 582.003906 241.296875 C 581.121094 242.042969 579.167969 241.453125 579.523438 240.042969 C 581.011719 234.164062 580.734375 228.546875 579.617188 222.652344 C 579.398438 221.539062 580.421875 220.949219 581.429688 221.117188 C 582.625 221.320312 583.632812 221.027344 584.578125 220.46875 C 582.625 215.890625 580.082031 211.75 577.695312 207.390625 C 577.523438 207.066406 577.476562 206.738281 577.695312 206.429688 C 580.40625 202.414062 582.886719 198.191406 584.824219 193.742188 C 585.011719 193.292969 585.878906 193.429688 585.710938 193.941406 C 584.253906 198.488281 582.421875 202.722656 579.972656 206.800781 C 583.554688 210.710938 586.144531 215.707031 588.128906 220.558594 C 588.3125 221.011719 588.097656 221.644531 587.710938 221.910156 C 586.253906 222.949219 584.609375 223.492188 582.886719 223.617188 C 584.160156 228.90625 583.863281 234.613281 582.609375 239.855469 C 585.507812 232.675781 588.65625 224.28125 590.160156 217.550781 C 591.910156 209.734375 591.304688 203.652344 590.59375 196.609375 C 590.421875 194.921875 590.253906 193.167969 590.097656 191.320312 L 590.097656 191.273438 C 591.585938 189.925781 593.105469 188.621094 594.761719 187.492188 C 595.136719 187.242188 595.507812 186.996094 595.894531 186.761719 C 595.738281 187.988281 595.554688 189.226562 595.367188 190.5 C 595.089844 192.40625 596.296875 195.027344 596.671875 196.890625 C 597.492188 201.15625 597.320312 205.390625 596.980469 209.6875 C 601.460938 203.824219 606.296875 198.675781 611.523438 193.914062 C 613.351562 192.238281 615.210938 190.625 617.132812 189.042969 C 617.816406 188.484375 618.480469 187.925781 619.179688 187.382812 C 621.910156 185.195312 624.746094 183.054688 627.691406 180.929688 C 627.566406 180.605469 627.457031 180.246094 627.367188 179.90625 C 629.039062 180.046875 630.714844 180.355469 632.355469 180.914062 C 633.691406 181.347656 634.914062 181.96875 636.078125 182.699219 L 635.582031 183.425781 C 630.605469 190.824219 625.382812 198.628906 620.589844 206.679688 C 613.257812 218.960938 606.933594 231.820312 604.109375 244.773438 C 602.761719 250.976562 601.957031 257.847656 601.660156 265.804688 C 601.105469 280.789062 602.484375 295.957031 603.800781 310.617188 C 604.3125 316.339844 604.839844 322.171875 605.242188 328.019531 Z M 249.039062 465.308594 L 248.464844 474.894531 L 248.40625 475.886719 C 248.390625 475.886719 248.359375 475.902344 248.34375 475.902344 C 248.21875 475.917969 248.09375 475.902344 247.984375 475.855469 C 243.101562 478.195312 238.15625 480.398438 233.085938 482.277344 C 227.988281 484.277344 222.640625 486.03125 217.121094 487.148438 C 212.328125 488.109375 207.523438 488.605469 202.410156 488.976562 C 202.332031 502.875 201.726562 516.742188 200.734375 530.625 C 199.601562 546.570312 198.066406 562.484375 196.625 578.398438 C 195.214844 593.863281 193.976562 609.34375 192.316406 624.792969 C 190.546875 641.324219 188.535156 657.84375 186.765625 674.378906 C 185.898438 682.476562 185.03125 690.574219 184.285156 698.667969 C 183.542969 706.71875 183.214844 714.832031 182.300781 722.867188 C 182.191406 723.78125 180.628906 723.828125 180.628906 722.867188 C 180.535156 713.855469 181.214844 704.8125 181.914062 695.832031 C 182.625 686.492188 183.574219 677.1875 184.582031 667.878906 C 186.378906 651.40625 188.378906 634.949219 189.960938 618.445312 C 191.449219 603.074219 192.53125 587.671875 194.003906 572.300781 C 195.539062 556.324219 197.152344 540.347656 198.46875 524.359375 C 199.449219 512.617188 200.425781 500.859375 200.949219 489.070312 C 199.882812 489.148438 198.828125 489.226562 197.726562 489.289062 C 188.765625 489.863281 179.449219 490.375 170.054688 490.375 C 163.558594 490.375 157.015625 490.125 150.503906 489.488281 C 136.445312 488.078125 123.855469 484.867188 113.097656 479.964844 C 112.894531 479.871094 112.773438 479.703125 112.695312 479.5 C 112.679688 479.484375 112.648438 479.484375 112.632812 479.46875 L 112.742188 469.914062 C 123.640625 474.957031 136.304688 478.210938 150.503906 479.625 C 156.984375 480.261719 163.527344 480.507812 170.039062 480.507812 C 179.417969 480.507812 188.734375 479.996094 197.726562 479.421875 C 198.9375 479.34375 200.097656 479.265625 201.261719 479.191406 C 201.261719 478.816406 201.277344 478.460938 201.292969 478.089844 C 201.308594 477.5 202.347656 477.5 202.363281 478.089844 C 202.363281 478.429688 202.363281 478.769531 202.363281 479.113281 C 207.492188 478.738281 212.328125 478.242188 217.105469 477.28125 C 228.113281 475.046875 238.636719 470.253906 247.691406 465.867188 C 247.863281 465.988281 248.09375 466.066406 248.3125 466.035156 C 248.730469 465.972656 248.992188 465.679688 249.039062 465.308594 Z M 596.421875 180.246094 C 604.5 177.5 612.03125 172.691406 618.09375 166.316406 L 618.28125 166.132812 L 618.3125 165.867188 C 618.328125 165.820312 618.328125 165.761719 618.328125 165.699219 C 620.496094 163.726562 622.359375 161.246094 623.984375 158.902344 C 625.007812 157.398438 625.96875 155.832031 626.824219 154.21875 C 627.007812 153.878906 627.179688 153.539062 627.335938 153.195312 C 623.210938 168.738281 610.019531 180.078125 595.941406 186.390625 C 596.203125 184.28125 596.390625 182.234375 596.421875 180.246094 Z M 116.804688 349.519531 C 114.105469 343.855469 111.421875 338.179688 109.59375 332.160156 C 109.421875 331.617188 110.308594 331.386719 110.570312 331.804688 C 113.828125 337.125 116.523438 342.738281 119.421875 348.246094 C 120.894531 351.054688 122.429688 353.816406 123.964844 356.574219 C 124.664062 357.816406 125.34375 359.074219 126.027344 360.328125 C 126.679688 361.507812 127.808594 362.71875 127.222656 364.097656 C 126.957031 364.703125 126.242188 365.089844 125.578125 364.890625 C 123.996094 364.394531 123.640625 363.277344 122.910156 361.878906 C 122.183594 360.5 121.453125 359.121094 120.773438 357.722656 C 119.4375 355.007812 118.121094 352.261719 116.804688 349.519531 Z M 149.328125 408.351562 C 148.566406 407.746094 149.511719 407 150.179688 407.109375 C 152.257812 407.4375 154.210938 408.085938 156.210938 408.691406 C 158.132812 409.28125 160.070312 409.792969 161.992188 410.335938 C 163.914062 410.894531 165.867188 411.390625 167.820312 411.824219 C 169.835938 412.292969 171.929688 412.554688 173.914062 413.128906 C 174.875 413.40625 175.652344 414.152344 175.511719 415.207031 C 175.386719 416.167969 174.285156 416.945312 173.324219 416.851562 C 169.0625 416.449219 164.738281 415.019531 160.675781 413.6875 C 156.816406 412.414062 152.503906 410.910156 149.328125 408.351562 Z M 232.109375 409.855469 C 232.21875 409.296875 232.808594 408.738281 233.195312 408.367188 C 233.597656 407.964844 234.050781 407.605469 234.484375 407.21875 C 235.320312 406.472656 236.21875 405.792969 237.085938 405.078125 C 237.988281 404.347656 238.871094 403.605469 239.753906 402.859375 C 240.636719 402.117188 241.476562 401.261719 242.40625 400.597656 C 243.242188 399.992188 244.328125 399.945312 245.148438 400.597656 C 245.941406 401.214844 245.816406 402.285156 245.148438 402.9375 C 244.296875 403.761719 243.257812 404.457031 242.3125 405.171875 C 241.382812 405.886719 240.453125 406.582031 239.507812 407.28125 C 238.484375 408.039062 237.460938 408.785156 236.375 409.453125 C 235.414062 410.042969 234.25 410.941406 233.074219 410.925781 C 232.453125 410.910156 232.003906 410.476562 232.109375 409.855469 Z M 151.683594 213.71875 C 151.949219 213.921875 152.226562 214.09375 152.503906 214.261719 C 154.304688 215.332031 156.148438 216.324219 158.070312 217.148438 C 159.046875 217.582031 160.054688 217.9375 161.078125 218.265625 C 161.371094 218.359375 161.667969 218.464844 161.945312 218.542969 C 162.054688 218.667969 162.179688 218.777344 162.335938 218.824219 C 168.753906 220.761719 177.464844 222.839844 186.113281 223.179688 C 186.921875 226.253906 188.007812 229.246094 189.339844 232.132812 C 174.488281 230.207031 161.125 224.191406 151.683594 213.71875 Z M 134.660156 184.417969 C 136.351562 179.65625 138.429688 174.925781 141.003906 170.539062 C 140.335938 177.5625 140.628906 184.09375 141.871094 191.585938 C 138.941406 190.113281 137.3125 187.320312 134.660156 184.417969 Z M 157.929688 171.683594 C 158.117188 170.429688 158.457031 169.25 159.09375 168.148438 C 159.714844 167.078125 160.503906 166.117188 161.402344 165.261719 C 163.265625 163.480469 165.652344 162.269531 168.210938 161.960938 C 169.1875 161.835938 170.363281 162.144531 170.535156 163.277344 C 170.722656 164.425781 169.667969 164.984375 168.707031 165.078125 C 168.691406 165.078125 168.675781 165.078125 168.660156 165.078125 C 168.644531 165.078125 168.644531 165.078125 168.628906 165.078125 C 168.488281 165.09375 168.332031 165.125 168.195312 165.15625 C 167.929688 165.203125 167.667969 165.261719 167.417969 165.324219 C 167.15625 165.386719 166.90625 165.464844 166.660156 165.542969 C 166.519531 165.589844 166.378906 165.621094 166.242188 165.667969 C 166.210938 165.683594 166.054688 165.730469 166.007812 165.746094 C 165.945312 165.773438 165.867188 165.804688 165.835938 165.804688 C 165.699219 165.867188 165.574219 165.914062 165.433594 165.976562 C 165.1875 166.085938 164.953125 166.210938 164.707031 166.332031 C 164.472656 166.457031 164.242188 166.597656 164.007812 166.738281 C 163.960938 166.769531 163.945312 166.785156 163.914062 166.785156 C 163.898438 166.800781 163.867188 166.816406 163.835938 166.84375 C 163.730469 166.921875 163.636719 166.984375 163.542969 167.0625 C 162.691406 167.683594 161.914062 168.414062 161.28125 169.21875 C 160.628906 170.039062 160.007812 170.910156 159.542969 171.855469 C 159.375 172.210938 159.046875 172.398438 158.644531 172.351562 C 158.335938 172.335938 157.871094 172.074219 157.929688 171.683594 Z M 189.496094 158.5 C 189.496094 158.050781 189.789062 157.757812 190.144531 157.539062 C 190.207031 157.476562 190.253906 157.429688 190.316406 157.367188 C 190.546875 157.167969 190.8125 157.042969 191.105469 156.980469 C 191.308594 156.917969 191.292969 156.917969 191.074219 157.011719 C 191.695312 156.746094 192.332031 156.71875 192.984375 156.734375 C 193.882812 156.746094 194.78125 156.839844 195.664062 157.011719 C 196.082031 157.105469 196.546875 157.199219 196.9375 157.382812 C 197.308594 157.554688 197.664062 157.832031 197.960938 158.113281 C 198.238281 158.359375 198.5 158.640625 198.734375 158.917969 C 198.9375 159.167969 198.996094 159.398438 199.027344 159.664062 C 199.074219 159.742188 199.121094 159.804688 199.167969 159.882812 C 199.476562 160.394531 198.8125 160.78125 198.363281 160.5625 C 198.300781 160.53125 198.238281 160.5 198.175781 160.484375 C 197.960938 160.484375 197.632812 160.46875 197.402344 160.410156 C 197.261719 160.378906 197.136719 160.363281 196.996094 160.347656 C 196.96875 160.347656 196.796875 160.332031 196.78125 160.332031 C 196.363281 160.316406 195.960938 160.316406 195.539062 160.253906 C 195.324219 160.222656 195.074219 160.144531 194.84375 160.113281 C 194.875 160.113281 194.84375 160.113281 194.703125 160.097656 C 194.625 160.097656 194.546875 160.082031 194.472656 160.082031 C 194.285156 160.066406 194.113281 160.066406 193.929688 160.066406 C 193.570312 160.066406 193.199219 160.066406 192.84375 160.097656 C 192.082031 160.144531 190.921875 160.097656 190.269531 159.554688 C 190.238281 159.539062 190.191406 159.523438 190.160156 159.507812 C 189.773438 159.308594 189.496094 158.886719 189.496094 158.5 Z M 172.101562 173.59375 C 172.890625 173.871094 173.386719 174.460938 173.789062 175.160156 C 174.457031 176.277344 175.046875 177.546875 175.277344 178.851562 C 175.433594 179.6875 175.417969 180.480469 175 181.238281 C 174.628906 181.90625 173.976562 182.386719 173.21875 182.511719 C 172.363281 182.667969 171.511719 182.402344 170.859375 181.859375 C 170.332031 181.410156 169.992188 180.820312 169.714844 180.199219 C 169.464844 179.671875 169.292969 179.113281 169.203125 178.539062 C 169.140625 178.230469 169.078125 177.921875 169.03125 177.609375 C 168.828125 176.726562 168.796875 175.703125 169.140625 174.894531 C 169.621094 173.734375 170.9375 173.175781 172.101562 173.59375 Z M 198.378906 168.550781 C 197.882812 168.132812 197.105469 167.871094 196.472656 168.085938 C 196.160156 168.195312 195.867188 168.351562 195.648438 168.566406 C 195.648438 168.566406 195.648438 168.566406 195.632812 168.566406 C 195.507812 168.566406 195.386719 168.582031 195.277344 168.597656 C 195.042969 168.644531 194.796875 168.785156 194.609375 168.941406 C 194.316406 169.203125 194.035156 169.558594 193.945312 169.949219 C 193.804688 170.507812 193.804688 171.082031 193.804688 171.652344 C 193.804688 172.832031 193.945312 173.996094 194.503906 175.035156 C 194.859375 175.703125 195.464844 176.277344 196.222656 176.460938 C 197.183594 176.695312 198.238281 176.277344 198.78125 175.46875 C 199.183594 174.878906 199.214844 174.136719 199.214844 173.453125 C 199.214844 172.847656 199.261719 172.242188 199.246094 171.636719 C 199.246094 170.957031 199.277344 170.179688 199.042969 169.558594 C 198.890625 169.171875 198.6875 168.816406 198.378906 168.550781 Z M 196.097656 174.089844 C 196.082031 174.089844 196.097656 174.089844 196.097656 174.089844 C 196.097656 174.074219 196.097656 174.089844 196.097656 174.089844 C 196.097656 174.089844 196.097656 174.074219 196.097656 174.089844 Z M 196.160156 173.871094 C 196.160156 173.855469 196.160156 173.839844 196.175781 173.839844 C 196.160156 173.839844 196.160156 173.855469 196.160156 173.871094 Z M 127.359375 192.207031 C 127.746094 190.5625 129.113281 189.226562 130.785156 188.964844 C 132.210938 188.730469 134.136719 189.136719 134.894531 190.5 C 135.746094 192.019531 134.089844 193.261719 134.089844 194.765625 C 134.089844 195.308594 134.304688 196.007812 134.878906 196.207031 C 134.957031 196.238281 135.019531 196.222656 135.050781 196.222656 C 135.097656 196.191406 135.15625 196.144531 135.1875 196.128906 C 135.730469 195.835938 136.335938 195.695312 136.957031 195.851562 C 137.855469 196.082031 138.628906 196.765625 139.234375 197.464844 C 139.886719 198.207031 140.226562 198.96875 139.996094 199.960938 C 139.792969 200.84375 138.476562 200.921875 137.886719 200.425781 C 137.1875 199.835938 136.816406 199 136.195312 198.488281 C 136.179688 198.472656 136.121094 198.410156 136.058594 198.363281 C 136.042969 198.363281 136.042969 198.363281 136.027344 198.363281 C 135.515625 198.472656 134.972656 198.441406 134.476562 198.285156 C 132.648438 197.710938 131.714844 195.960938 132.179688 194.113281 C 132.414062 193.214844 133.003906 192.609375 133.421875 191.832031 C 133.855469 191.011719 133.097656 190.46875 132.382812 190.21875 C 130.632812 189.617188 128.878906 190.761719 128.367188 192.453125 C 128.214844 192.996094 127.222656 192.796875 127.359375 192.207031 Z M 189.0625 212.167969 C 191.539062 210.027344 193.355469 207.28125 194.828125 204.382812 C 195.585938 202.894531 196.222656 201.359375 196.8125 199.789062 C 197.339844 198.378906 197.617188 196.582031 198.65625 195.480469 C 198.996094 195.105469 199.632812 195.402344 199.695312 195.851562 C 199.820312 196.71875 199.433594 197.496094 199.136719 198.300781 C 198.84375 199.09375 198.546875 199.882812 198.222656 200.675781 C 197.601562 202.210938 196.90625 203.714844 196.113281 205.1875 C 194.53125 208.121094 192.441406 210.773438 189.773438 212.804688 C 189.339844 213.128906 188.550781 212.601562 189.0625 212.167969 Z M 199.011719 207.3125 C 199.339844 206.460938 199.554688 205.546875 200.082031 204.800781 C 200.332031 204.445312 200.964844 204.566406 201.011719 205.019531 C 201.027344 205.25 200.996094 205.46875 200.964844 205.699219 C 200.933594 205.949219 200.90625 206.210938 200.8125 206.460938 C 200.65625 206.878906 200.46875 207.296875 200.269531 207.703125 C 199.867188 208.554688 199.402344 209.375 198.890625 210.183594 C 198.5625 210.695312 197.617188 210.308594 197.929688 209.703125 C 198.347656 208.925781 198.703125 208.136719 199.011719 207.3125 Z M 556.070312 255.523438 C 558.671875 242.695312 566.6875 232.148438 573.460938 221.273438 C 573.789062 220.746094 574.78125 221.148438 574.453125 221.769531 C 570.980469 228.128906 567.152344 234.378906 564.066406 240.941406 C 561.292969 246.851562 559.105469 253.054688 558.300781 259.554688 C 557.402344 266.707031 557.355469 273.933594 557.449219 281.128906 C 557.648438 295.867188 557.726562 310.664062 557.136719 325.382812 C 557.09375 326.578125 555.152344 326.53125 555.046875 325.382812 C 554.175781 316.773438 554.472656 308.121094 554.566406 299.464844 C 554.6875 284.960938 553.152344 269.855469 556.070312 255.523438 Z M 647.023438 255.085938 C 650.402344 257.570312 653.703125 260.175781 656.914062 262.875 C 658.511719 264.207031 660.011719 265.605469 661.53125 267.03125 C 662.929688 268.332031 664.371094 269.558594 666.121094 270.382812 C 667.4375 271 666.136719 272.597656 664.988281 272.027344 C 661.378906 270.257812 658.710938 266.96875 655.890625 264.207031 C 652.820312 261.199219 649.597656 258.421875 646.199219 255.800781 C 645.597656 255.335938 646.511719 254.714844 647.023438 255.085938 Z M 618.40625 236.472656 C 615.722656 240.042969 613.210938 243.886719 610.25 247.222656 C 609.289062 248.308594 606.871094 247.550781 607.816406 246.011719 C 610.140625 242.230469 613.117188 238.738281 615.785156 235.171875 C 618.28125 231.820312 620.792969 228.484375 623.242188 225.105469 C 622.046875 223.925781 620.25 223.398438 619.320312 221.847656 C 618.421875 220.34375 618.652344 218.761719 619.894531 217.535156 C 621.628906 215.84375 623.863281 214.496094 625.800781 213.039062 C 627.859375 211.484375 629.921875 209.917969 632 208.382812 C 636.292969 205.25 640.621094 202.132812 644.992188 199.09375 C 646.09375 198.332031 647.550781 197.773438 647.332031 196.128906 C 647.191406 195.027344 646.417969 193.851562 645.96875 192.859375 C 644.945312 190.53125 643.984375 188.1875 642.992188 185.863281 C 642.695312 185.179688 643.96875 184.824219 644.277344 185.398438 C 645.550781 187.769531 646.867188 190.113281 648.125 192.484375 C 648.929688 194.003906 650.246094 195.804688 649.8125 197.636719 C 649.425781 199.277344 647.613281 200.304688 646.386719 201.28125 C 644.386719 202.894531 642.371094 204.492188 640.355469 206.074219 C 636.292969 209.253906 632.1875 212.371094 628.046875 215.457031 C 627.007812 216.234375 625.984375 217.007812 624.945312 217.785156 C 624.15625 218.371094 622.125 219.335938 622.480469 220.589844 C 622.714844 221.429688 624.15625 222.003906 624.824219 222.484375 C 625.550781 223.011719 626.125 223.601562 626.574219 224.359375 C 626.824219 224.777344 626.898438 225.335938 626.574219 225.757812 C 623.800781 229.292969 621.117188 232.890625 618.40625 236.472656 Z M 606.328125 597.335938 C 607.011719 603.042969 608.109375 608.800781 608.390625 614.539062 C 608.46875 616.230469 605.414062 616.507812 605.058594 614.925781 C 603.628906 608.738281 603.226562 602.191406 602.5 595.878906 C 601.769531 589.535156 601.089844 583.191406 600.4375 576.847656 C 598.082031 553.921875 595.632812 530.964844 594.050781 507.960938 C 592.46875 484.757812 591.832031 461.507812 590.933594 438.273438 C 590.59375 438.242188 590.265625 438.148438 589.941406 437.976562 C 589.570312 437.792969 589.214844 437.574219 588.855469 437.355469 C 588.082031 436.890625 587.335938 436.394531 586.609375 435.851562 C 585.972656 435.371094 585.398438 434.796875 584.839844 434.222656 C 584.3125 433.664062 583.351562 432.65625 583.832031 431.820312 C 584.128906 431.324219 584.917969 431.523438 585.320312 431.695312 C 585.773438 431.898438 586.175781 432.144531 586.578125 432.425781 C 586.734375 432.53125 586.886719 432.640625 587.042969 432.75 C 587.105469 432.796875 587.183594 432.84375 587.246094 432.890625 C 587.273438 432.90625 587.351562 432.96875 587.382812 432.984375 C 587.554688 433.089844 587.742188 433.199219 587.910156 433.308594 C 588.003906 433.355469 588.097656 433.417969 588.175781 433.464844 C 588.207031 433.480469 588.328125 433.570312 588.40625 433.617188 C 589.089844 434.054688 589.785156 434.457031 590.5 434.828125 C 591.351562 435.261719 592.359375 435.542969 592.839844 436.441406 C 593.042969 436.8125 593.105469 437.140625 592.917969 437.527344 C 592.746094 437.882812 592.390625 438.164062 591.988281 438.242188 C 591.941406 438.242188 591.910156 438.257812 591.863281 438.257812 C 592.484375 451.300781 593.445312 464.300781 594.515625 477.3125 C 596.4375 500.59375 598.59375 523.875 600.980469 547.113281 C 602.125 558.25 603.226562 569.402344 604.421875 580.539062 C 605.027344 586.136719 605.660156 591.738281 606.328125 597.335938 Z M 593.601562 121.570312 C 593.105469 120.25 594.296875 118.996094 595.507812 118.714844 C 598.328125 118.0625 601.414062 118.1875 604.21875 118.902344 C 605.753906 119.289062 607.179688 119.910156 608.484375 120.792969 C 609.476562 121.460938 611.179688 122.5 611.148438 123.832031 C 611.132812 124.453125 610.605469 125.058594 609.988281 125.136719 C 609.085938 125.261719 608.453125 125.042969 607.644531 124.671875 C 607.382812 124.546875 607.101562 124.4375 606.824219 124.316406 C 606.578125 124.222656 606.546875 124.207031 606.730469 124.269531 C 606.589844 124.222656 606.453125 124.175781 606.3125 124.128906 C 605.195312 123.757812 604.082031 123.429688 602.933594 123.183594 C 602.652344 123.121094 602.359375 123.058594 602.066406 123.011719 C 601.988281 122.996094 601.644531 122.949219 601.507812 122.933594 C 600.980469 122.886719 600.453125 122.855469 599.925781 122.855469 C 599.632812 122.855469 599.335938 122.871094 599.042969 122.886719 C 598.980469 122.886719 598.730469 122.902344 598.578125 122.917969 C 598.035156 122.964844 597.476562 123.089844 596.949219 123.183594 C 595.601562 123.445312 594.128906 122.933594 593.601562 121.570312 Z M 565.480469 125.199219 C 565.089844 124.78125 565.121094 124.300781 565.371094 123.816406 C 565.757812 123.058594 566.59375 122.578125 567.261719 122.082031 C 567.992188 121.539062 568.796875 121.105469 569.632812 120.761719 C 571.433594 120.019531 573.570312 119.769531 575.492188 119.910156 C 576.828125 120.003906 578.097656 120.730469 578.175781 122.191406 C 578.238281 123.492188 576.703125 124.59375 575.492188 124.46875 C 574.71875 124.390625 573.914062 124.359375 573.136719 124.390625 C 572.980469 124.390625 572.828125 124.40625 572.671875 124.421875 C 572.625 124.421875 572.5625 124.4375 572.515625 124.4375 C 572.363281 124.484375 572.160156 124.484375 572.019531 124.515625 C 571.664062 124.578125 571.339844 124.625 570.964844 124.671875 C 571.757812 124.578125 570.996094 124.671875 570.828125 124.703125 C 570.671875 124.734375 570.515625 124.75 570.363281 124.78125 C 570.003906 124.859375 569.632812 124.933594 569.277344 124.996094 C 569.074219 125.042969 568.875 125.089844 568.671875 125.152344 C 568.625 125.167969 568.363281 125.261719 568.285156 125.277344 C 568.253906 125.292969 568.253906 125.292969 568.207031 125.308594 C 568.019531 125.386719 567.835938 125.445312 567.648438 125.507812 C 567.449219 125.570312 567.261719 125.617188 567.058594 125.648438 C 566.441406 125.726562 565.898438 125.648438 565.480469 125.199219 Z M 570.160156 135.808594 C 570.640625 136.785156 571.679688 137.34375 572.75 137.359375 C 573.757812 137.375 574.828125 136.863281 575.308594 135.949219 C 575.554688 135.484375 575.664062 135.109375 575.726562 134.582031 C 575.757812 134.304688 575.757812 134.007812 575.742188 133.730469 C 575.726562 133 575.710938 132.242188 575.539062 131.527344 C 575.261719 130.332031 574.066406 129.496094 572.859375 129.527344 C 571.570312 129.542969 570.207031 130.332031 569.929688 131.667969 C 569.820312 132.148438 569.820312 132.566406 570.019531 132.984375 C 569.988281 133.21875 569.945312 133.433594 569.914062 133.667969 C 569.820312 134.414062 569.820312 135.140625 570.160156 135.808594 Z M 573.183594 134.273438 C 573.183594 134.273438 573.183594 134.257812 573.183594 134.273438 C 573.246094 134.304688 573.308594 134.351562 573.386719 134.398438 C 573.324219 134.351562 573.261719 134.320312 573.183594 134.273438 Z M 573.710938 132.707031 C 573.710938 132.691406 573.726562 132.675781 573.742188 132.660156 C 573.726562 132.675781 573.726562 132.691406 573.710938 132.707031 Z M 599.351562 136.242188 C 599.351562 136.242188 599.335938 136.242188 599.335938 136.226562 C 598.34375 135.375 597.925781 133.871094 597.941406 132.613281 C 597.957031 131.277344 598.40625 129.929688 599.382812 128.984375 C 600.128906 128.253906 601.414062 128.066406 602.34375 128.550781 C 603.027344 128.90625 603.507812 129.527344 603.753906 130.253906 C 603.816406 130.457031 603.863281 130.691406 603.894531 130.90625 C 603.910156 130.96875 603.941406 131.03125 603.972656 131.09375 C 604.097656 131.464844 604.15625 131.851562 604.203125 132.242188 C 604.28125 132.90625 604.203125 133.605469 604.035156 134.273438 C 603.847656 135 603.476562 135.792969 602.902344 136.289062 C 602.28125 136.832031 601.460938 136.972656 600.683594 136.816406 C 600.265625 136.800781 599.847656 136.691406 599.523438 136.429688 C 599.414062 136.367188 599.398438 136.304688 599.351562 136.242188 Z M 628.929688 131.03125 C 628.929688 129.867188 629.566406 128.859375 630.371094 128.066406 C 631.800781 126.671875 634.867188 125.136719 636.015625 127.632812 C 636.171875 127.960938 635.675781 128.082031 635.457031 128.007812 C 634.761719 127.726562 633.660156 128.066406 633.085938 128.472656 C 632.496094 128.890625 631.921875 129.449219 631.628906 130.117188 C 631.394531 130.613281 631.273438 131.371094 631.691406 131.820312 C 631.921875 132.070312 632.339844 132.085938 632.636719 132.179688 C 633.039062 132.300781 633.441406 132.472656 633.769531 132.769531 C 635.085938 133.992188 634.683594 136.382812 633.984375 137.839844 C 633.566406 138.722656 632.898438 139.328125 632.339844 140.121094 C 632.25 140.261719 632.15625 140.398438 632.09375 140.554688 C 632.078125 140.585938 632.0625 140.757812 632.046875 140.863281 C 632.203125 140.894531 632.371094 140.925781 632.402344 140.925781 C 632.898438 141.066406 633.535156 141.625 633.273438 142.230469 C 632.621094 143.671875 630.621094 143.425781 629.738281 142.324219 C 628.914062 141.300781 629.195312 139.902344 629.921875 138.910156 C 630.699219 137.871094 631.597656 137.171875 631.875 135.855469 C 631.953125 135.511719 632.140625 134.550781 631.859375 134.273438 C 631.753906 134.164062 631.472656 134.148438 631.332031 134.101562 C 631.054688 134.007812 630.792969 133.929688 630.542969 133.792969 C 629.503906 133.25 628.929688 132.148438 628.929688 131.03125 Z M 577.089844 160.035156 C 578.003906 162.082031 579.183594 164.039062 580.46875 165.882812 C 581.105469 166.800781 581.804688 167.699219 582.5625 168.519531 C 582.933594 168.925781 583.308594 169.328125 583.679688 169.714844 C 583.863281 169.902344 584.082031 170.085938 584.191406 170.335938 C 584.300781 170.566406 584.390625 170.785156 584.53125 171.019531 C 584.75 171.390625 584.269531 171.652344 583.957031 171.5 C 583.367188 171.203125 582.886719 171.003906 582.421875 170.539062 C 582.003906 170.132812 581.617188 169.714844 581.246094 169.265625 C 580.5 168.382812 579.820312 167.464844 579.199219 166.488281 C 577.941406 164.519531 577.105469 162.410156 576.546875 160.144531 C 576.453125 159.835938 576.964844 159.757812 577.089844 160.035156 Z M 583.136719 163.308594 C 582.949219 163.03125 583.089844 162.6875 583.367188 162.550781 C 583.664062 162.394531 584.050781 162.488281 584.253906 162.75 C 584.808594 163.496094 585.367188 164.222656 585.941406 164.96875 C 586.222656 165.339844 586.5 165.714844 586.78125 166.070312 C 587.058594 166.441406 587.382812 166.90625 587.398438 167.386719 C 587.429688 167.839844 586.824219 167.976562 586.515625 167.824219 C 586.066406 167.605469 585.710938 167.140625 585.445312 166.738281 C 585.183594 166.347656 584.933594 165.976562 584.671875 165.589844 C 584.160156 164.84375 583.648438 164.070312 583.136719 163.308594 Z M 566.222656 400.097656 C 566.671875 400.625 566.503906 401.449219 566.066406 401.914062 C 565.601562 402.425781 564.71875 402.722656 564.035156 402.503906 C 562.8125 402.101562 561.742188 401.152344 560.75 400.347656 C 559.945312 399.679688 559.136719 399 558.425781 398.253906 C 557.632812 397.417969 556.875 396.546875 556.160156 395.648438 C 555.511719 394.824219 555.03125 393.863281 554.550781 392.933594 C 553.960938 391.816406 555.574219 390.886719 556.410156 391.707031 C 557.167969 392.46875 558.007812 393.167969 558.78125 393.925781 C 559.511719 394.65625 560.269531 395.335938 561.0625 396.003906 C 561.867188 396.6875 562.65625 397.371094 563.496094 398.003906 C 563.929688 398.332031 564.363281 398.640625 564.8125 398.953125 C 564.890625 399.011719 564.984375 399.058594 565.058594 399.121094 C 565.074219 399.136719 565.074219 399.136719 565.089844 399.152344 C 565.105469 399.167969 565.136719 399.183594 565.167969 399.199219 C 565.617188 399.480469 565.914062 399.710938 566.222656 400.097656 Z M 666.929688 389.289062 C 666.402344 390.933594 664.648438 391.460938 663.222656 392.203125 C 661.75 392.964844 660.292969 393.738281 658.820312 394.5 C 656.136719 395.894531 653.441406 397.308594 650.710938 398.609375 C 645.378906 401.136719 639.488281 403.417969 633.535156 403.574219 C 632.046875 403.621094 631.769531 401.742188 633.179688 401.339844 C 638.820312 399.757812 644.0625 397.679688 649.253906 395.011719 C 651.78125 393.707031 654.277344 392.328125 656.757812 390.949219 C 658.199219 390.140625 659.640625 389.351562 661.082031 388.542969 C 662.632812 387.691406 663.71875 386.929688 665.546875 387.210938 C 666.460938 387.347656 667.222656 388.359375 666.929688 389.289062 Z M 690.988281 355.816406 C 689.839844 354.046875 688.769531 352.234375 687.484375 350.558594 C 686.199219 348.882812 684.847656 347.253906 683.453125 345.65625 C 683.191406 345.359375 683.792969 345.035156 684.027344 345.285156 C 685.484375 346.835938 686.878906 348.433594 688.242188 350.078125 C 689.640625 351.765625 691.097656 353.347656 692.414062 355.101562 C 692.988281 355.894531 691.484375 356.558594 690.988281 355.816406 Z M 534.410156 285.90625 C 535.046875 285.707031 535.699219 285.535156 536.332031 285.347656 C 536.179688 285.132812 536.117188 284.804688 536.304688 284.589844 C 536.953125 283.828125 537.667969 283.117188 538.363281 282.402344 C 538.753906 282.015625 539.265625 281.71875 539.730469 281.425781 C 539.820312 281.363281 539.929688 281.285156 540.039062 281.238281 C 540.164062 281.175781 540.984375 280.914062 541.109375 281.054688 C 541.140625 281.054688 541.1875 281.039062 541.1875 281.039062 C 541.292969 281.023438 541.386719 281.023438 541.496094 281.007812 C 542.039062 280.960938 542.503906 281.550781 542.195312 282.03125 C 542.132812 282.125 542.070312 282.230469 542.007812 282.339844 C 541.960938 282.480469 541.914062 282.605469 541.804688 282.726562 C 541.683594 282.867188 541.558594 282.960938 541.402344 283.070312 C 541.203125 283.207031 540.984375 283.332031 540.769531 283.472656 C 540.753906 283.488281 540.707031 283.519531 540.675781 283.535156 C 540.597656 283.597656 540.503906 283.644531 540.425781 283.707031 C 540.179688 283.875 539.945312 284 539.683594 284.140625 C 539.574219 284.203125 539.480469 284.25 539.371094 284.308594 C 539.324219 284.339844 539.28125 284.355469 539.234375 284.386719 C 539.203125 284.402344 539.21875 284.402344 539.203125 284.402344 C 539.03125 284.511719 538.875 284.621094 538.722656 284.746094 C 538.566406 284.851562 538.425781 284.960938 538.289062 285.070312 C 538.550781 285.070312 538.800781 285.054688 539.046875 285.070312 C 539.898438 285.148438 540.753906 285.257812 541.574219 285.519531 C 542.503906 285.816406 543.417969 286.125 544.179688 286.746094 C 544.707031 287.164062 544.78125 287.894531 544.441406 288.453125 C 544.085938 289.027344 543.1875 289.289062 542.566406 289.101562 C 542.085938 288.964844 541.652344 288.777344 541.203125 288.574219 C 541.0625 288.511719 540.9375 288.453125 540.796875 288.40625 C 540.738281 288.375 540.164062 288.171875 540.519531 288.296875 C 540.289062 288.21875 540.070312 288.125 539.835938 288.046875 C 540.195312 288.171875 539.605469 287.96875 539.542969 287.957031 C 539.21875 287.847656 538.890625 287.769531 538.550781 287.691406 C 537.898438 287.535156 537.25 287.367188 536.613281 287.164062 C 535.914062 286.945312 535.296875 286.914062 534.582031 286.945312 C 533.882812 286.945312 533.792969 286.09375 534.410156 285.90625 Z M 684.585938 274.027344 C 682.414062 276.925781 680.414062 279.984375 678.617188 283.132812 C 678.382812 283.550781 677.609375 283.222656 677.855469 282.757812 C 679.59375 279.46875 681.207031 276.167969 683.34375 273.109375 C 684.367188 271.667969 685.34375 270.117188 686.554688 268.816406 C 687.191406 268.132812 687.839844 267.480469 688.523438 266.859375 C 689.191406 266.253906 689.902344 265.511719 690.722656 265.152344 C 691.453125 264.84375 692.988281 265.496094 692.242188 266.441406 C 691.683594 267.15625 690.832031 267.652344 690.152344 268.242188 C 689.484375 268.816406 688.847656 269.417969 688.226562 270.054688 C 686.941406 271.34375 685.671875 272.554688 684.585938 274.027344 Z M 143.792969 737.214844 C 150.476562 737.214844 158.039062 736.71875 166.394531 735.429688 L 165.992188 742.9375 C 165.960938 743.308594 165.714844 743.621094 165.355469 743.699219 C 158.367188 745.265625 151.902344 746.054688 145.886719 746.054688 C 138.089844 746.054688 131.050781 744.738281 124.648438 742.085938 C 124.335938 741.960938 124.152344 741.667969 124.152344 741.339844 C 124.121094 739.449219 124.089844 737.539062 124.011719 735.664062 C 129.25 736.53125 135.917969 737.214844 143.792969 737.214844 Z M 227.691406 720.121094 C 227.554688 723.023438 227.367188 725.984375 227.136719 728.976562 C 227.121094 729.289062 226.917969 729.550781 226.625 729.675781 C 220.066406 732.265625 212.097656 734.855469 203.648438 734.855469 C 199.570312 734.855469 195.386719 734.253906 191.183594 732.746094 C 190.890625 732.640625 190.6875 732.390625 190.65625 732.082031 C 190.347656 729.503906 189.945312 727.226562 189.417969 725.117188 C 198.003906 726.125 212.390625 726.324219 227.691406 720.121094 Z M 227.691406 720.121094 " fill-opacity="1" fill-rule="nonzero"/></svg>