<svg xmlns="http://www.w3.org/2000/svg" xmlns:xlink="http://www.w3.org/1999/xlink" width="500" zoomAndPan="magnify" viewBox="0 0 375 374.999991" height="500" preserveAspectRatio="xMidYMid meet" version="1.0"><defs><clipPath id="5cd00e3cea"><path d="M 66.488281 43 L 294.488281 43 L 294.488281 337.722656 L 66.488281 337.722656 Z M 66.488281 43 " clip-rule="nonzero"/></clipPath></defs><g clip-path="url(#5cd00e3cea)"><path fill="#ffffff" d="M 294.488281 315.425781 C 294.488281 236.792969 243.410156 173.089844 180.488281 173.089844 C 117.570312 173.089844 66.488281 236.792969 66.488281 315.425781 C 66.488281 327.6875 117.570312 337.679688 180.488281 337.679688 C 243.410156 337.679688 294.488281 327.6875 294.488281 315.425781 Z M 180.488281 43.015625 C 214.808594 43.015625 242.609375 70.867188 242.609375 105.253906 C 242.609375 139.636719 214.808594 167.492188 180.488281 167.492188 C 146.171875 167.492188 118.367188 139.636719 118.367188 105.253906 C 118.367188 70.867188 146.171875 43.015625 180.488281 43.015625 Z M 180.488281 43.015625 " fill-opacity="1" fill-rule="evenodd"/></g></svg>