<svg xmlns="http://www.w3.org/2000/svg" xmlns:xlink="http://www.w3.org/1999/xlink" width="500" zoomAndPan="magnify" viewBox="0 0 375 374.999991" height="500" preserveAspectRatio="xMidYMid meet" version="1.0"><defs><clipPath id="9842eba1b5"><path d="M 12.351562 72.996094 L 356.601562 72.996094 L 356.601562 297.996094 L 12.351562 297.996094 Z M 12.351562 72.996094 " clip-rule="nonzero"/></clipPath></defs><g clip-path="url(#9842eba1b5)"><path fill="#ffffff" d="M 162.351562 298.003906 C 162.328125 298.003906 162.289062 298.003906 162.265625 298.003906 C 159.761719 297.957031 157.640625 296.144531 157.214844 293.679688 L 124.933594 107.710938 L 98.914062 248.058594 C 98.5 250.292969 96.695312 251.996094 94.441406 252.28125 C 92.199219 252.578125 90.015625 251.363281 89.058594 249.300781 L 56.171875 178.464844 L 48.457031 198.691406 C 47.679688 200.707031 45.738281 202.042969 43.582031 202.042969 L 17.617188 202.042969 C 14.738281 202.042969 12.402344 199.707031 12.402344 196.832031 C 12.402344 193.953125 14.738281 191.617188 17.617188 191.617188 L 39.988281 191.617188 L 50.832031 163.214844 C 51.585938 161.261719 53.429688 159.9375 55.523438 159.863281 C 57.492188 159.882812 59.546875 160.984375 60.4375 162.882812 L 91.636719 230.101562 L 119.980469 77.25 C 120.433594 74.78125 122.59375 72.988281 125.105469 72.988281 C 125.113281 72.988281 125.125 72.988281 125.132812 72.988281 C 127.660156 73.003906 129.808594 74.824219 130.242188 77.3125 L 162.835938 265.085938 L 182.480469 171.386719 C 182.984375 169.019531 185.046875 167.300781 187.46875 167.246094 C 187.507812 167.246094 187.550781 167.246094 187.582031 167.246094 C 189.960938 167.246094 192.046875 168.855469 192.636719 171.167969 L 203.542969 213.941406 L 213.21875 194.511719 C 214.101562 192.738281 215.914062 191.617188 217.890625 191.617188 L 248.703125 191.617188 L 256.601562 173.429688 C 257.511719 171.324219 259.699219 170.105469 261.972656 170.328125 C 264.253906 170.585938 266.09375 172.308594 266.507812 174.5625 L 273.097656 210.308594 L 277.6875 193.90625 C 278.320312 191.652344 280.378906 190.097656 282.710938 190.097656 L 351.308594 190.097656 C 354.1875 190.097656 356.523438 192.433594 356.523438 195.3125 C 356.523438 198.1875 354.1875 200.523438 351.308594 200.523438 L 286.667969 200.523438 L 277.070312 234.796875 C 276.414062 237.128906 274.453125 238.9375 271.808594 238.597656 C 269.386719 238.488281 267.355469 236.726562 266.925781 234.335938 L 259.351562 193.269531 L 256.902344 198.90625 C 256.082031 200.808594 254.199219 202.042969 252.121094 202.042969 L 221.117188 202.042969 L 206.632812 231.140625 C 205.65625 233.085938 203.574219 234.242188 201.410156 234.003906 C 199.25 233.773438 197.449219 232.21875 196.914062 230.105469 L 188.082031 195.492188 L 167.457031 293.863281 C 166.945312 296.28125 164.816406 298.003906 162.351562 298.003906 " fill-opacity="1" fill-rule="nonzero"/></g></svg>