<svg xmlns="http://www.w3.org/2000/svg" xmlns:xlink="http://www.w3.org/1999/xlink" width="500" zoomAndPan="magnify" viewBox="0 0 375 374.999991" height="500" preserveAspectRatio="xMidYMid meet" version="1.0"><defs><clipPath id="0c7dd5d06f"><path d="M 80 184 L 344.367188 184 L 344.367188 199 L 80 199 Z M 80 184 " clip-rule="nonzero"/></clipPath><clipPath id="18b03c522f"><path d="M 206 81 L 344.367188 81 L 344.367188 96 L 206 96 Z M 206 81 " clip-rule="nonzero"/></clipPath><clipPath id="1cfb1c4ea3"><path d="M 156 58.414062 L 219 58.414062 L 219 121 L 156 121 Z M 156 58.414062 " clip-rule="nonzero"/></clipPath><clipPath id="9290aec96f"><path d="M 30.867188 160 L 94 160 L 94 223 L 30.867188 223 Z M 30.867188 160 " clip-rule="nonzero"/></clipPath><clipPath id="69bc880d22"><path d="M 281 262 L 344.367188 262 L 344.367188 325.414062 L 281 325.414062 Z M 281 262 " clip-rule="nonzero"/></clipPath></defs><g clip-path="url(#0c7dd5d06f)"><path fill="#ffffff" d="M 337.4375 184.421875 C 339.261719 184.421875 341.007812 185.148438 342.296875 186.433594 C 343.582031 187.722656 344.304688 189.464844 344.304688 191.285156 C 344.304688 193.105469 343.582031 194.851562 342.296875 196.136719 C 341.007812 197.421875 339.261719 198.144531 337.4375 198.144531 L 87.847656 198.144531 C 86.03125 198.144531 84.28125 197.421875 82.988281 196.136719 C 81.703125 194.851562 80.980469 193.105469 80.980469 191.285156 C 80.980469 189.464844 81.703125 187.722656 82.988281 186.433594 C 84.28125 185.148438 86.03125 184.421875 87.847656 184.421875 Z M 337.4375 184.421875 " fill-opacity="1" fill-rule="nonzero"/></g><g clip-path="url(#18b03c522f)"><path fill="#ffffff" d="M 337.4375 81.566406 C 339.261719 81.566406 341.007812 82.289062 342.296875 83.574219 C 343.582031 84.859375 344.304688 86.605469 344.304688 88.425781 C 344.304688 90.246094 343.582031 91.992188 342.296875 93.277344 C 341.007812 94.5625 339.261719 95.285156 337.4375 95.285156 L 213.269531 95.285156 C 211.445312 95.285156 209.699219 94.5625 208.414062 93.277344 C 207.128906 91.992188 206.402344 90.246094 206.402344 88.425781 C 206.402344 86.605469 207.128906 84.859375 208.414062 83.574219 C 209.699219 82.289062 211.445312 81.566406 213.269531 81.566406 Z M 337.4375 81.566406 " fill-opacity="1" fill-rule="nonzero"/></g><path fill="#ffffff" d="M 285.0625 287.28125 C 286.878906 287.28125 288.625 288.003906 289.917969 289.289062 C 291.203125 290.582031 291.929688 292.320312 291.929688 294.140625 C 291.929688 295.964844 291.203125 297.710938 289.917969 298.996094 C 288.625 300.28125 286.878906 301.003906 285.0625 301.003906 L 37.90625 301.003906 C 36.089844 301.003906 34.339844 300.28125 33.046875 298.996094 C 31.761719 297.710938 31.039062 295.964844 31.039062 294.140625 C 31.039062 292.320312 31.761719 290.582031 33.046875 289.289062 C 34.339844 288.003906 36.089844 287.28125 37.90625 287.28125 Z M 285.0625 287.28125 " fill-opacity="1" fill-rule="nonzero"/><g clip-path="url(#1cfb1c4ea3)"><path fill="#ffffff" d="M 156.4375 89.597656 C 156.4375 81.320312 159.726562 73.382812 165.582031 67.53125 C 171.4375 61.675781 179.390625 58.390625 187.675781 58.390625 C 195.957031 58.390625 203.90625 61.675781 209.761719 67.53125 C 215.617188 73.382812 218.914062 81.320312 218.914062 89.597656 C 218.914062 97.875 215.617188 105.8125 209.761719 111.664062 C 203.90625 117.519531 195.957031 120.808594 187.675781 120.808594 C 179.390625 120.808594 171.4375 117.519531 165.582031 111.664062 C 159.726562 105.8125 156.4375 97.875 156.4375 89.597656 Z M 170.171875 89.597656 C 170.171875 84.964844 172.011719 80.511719 175.296875 77.230469 C 178.578125 73.957031 183.03125 72.109375 187.675781 72.109375 C 192.3125 72.109375 196.769531 73.957031 200.054688 77.230469 C 203.332031 80.511719 205.179688 84.964844 205.179688 89.597656 C 205.179688 94.234375 203.332031 98.6875 200.054688 101.964844 C 196.769531 105.242188 192.3125 107.085938 187.675781 107.085938 C 183.03125 107.085938 178.578125 105.242188 175.296875 101.964844 C 172.011719 98.6875 170.171875 94.234375 170.171875 89.597656 Z M 170.171875 89.597656 " fill-opacity="1" fill-rule="evenodd"/></g><g clip-path="url(#9290aec96f)"><path fill="#ffffff" d="M 30.929688 191.308594 C 30.929688 183.039062 34.222656 175.09375 40.078125 169.242188 C 45.933594 163.394531 53.886719 160.101562 62.171875 160.101562 C 70.449219 160.101562 78.402344 163.394531 84.257812 169.242188 C 90.113281 175.09375 93.410156 183.039062 93.410156 191.308594 C 93.410156 199.585938 90.113281 207.53125 84.257812 213.382812 C 78.402344 219.230469 70.449219 222.519531 62.171875 222.519531 C 53.886719 222.519531 45.933594 219.230469 40.078125 213.382812 C 34.222656 207.53125 30.929688 199.585938 30.929688 191.308594 Z M 44.664062 191.308594 C 44.664062 186.675781 46.507812 182.222656 49.789062 178.941406 C 53.074219 175.667969 57.527344 173.820312 62.171875 173.820312 C 66.808594 173.820312 71.265625 175.667969 74.550781 178.941406 C 77.828125 182.222656 79.675781 186.675781 79.675781 191.308594 C 79.675781 195.949219 77.828125 200.394531 74.550781 203.675781 C 71.265625 206.957031 66.808594 208.796875 62.171875 208.796875 C 57.527344 208.796875 53.074219 206.957031 49.789062 203.675781 C 46.507812 200.394531 44.664062 195.949219 44.664062 191.308594 Z M 44.664062 191.308594 " fill-opacity="1" fill-rule="evenodd"/></g><g clip-path="url(#69bc880d22)"><path fill="#ffffff" d="M 281.828125 294.167969 C 281.828125 285.890625 285.125 277.953125 290.980469 272.101562 C 296.835938 266.246094 304.789062 262.957031 313.066406 262.957031 C 321.351562 262.957031 329.304688 266.246094 335.160156 272.101562 C 341.015625 277.953125 344.304688 285.890625 344.304688 294.167969 C 344.304688 302.445312 341.015625 310.382812 335.160156 316.234375 C 329.304688 322.089844 321.351562 325.375 313.066406 325.375 C 304.789062 325.375 296.835938 322.089844 290.980469 316.234375 C 285.125 310.382812 281.828125 302.445312 281.828125 294.167969 Z M 295.5625 294.167969 C 295.5625 289.535156 297.410156 285.082031 300.6875 281.800781 C 303.972656 278.527344 308.429688 276.679688 313.066406 276.679688 C 317.710938 276.679688 322.164062 278.527344 325.445312 281.800781 C 328.730469 285.082031 330.570312 289.535156 330.570312 294.167969 C 330.570312 298.800781 328.730469 303.253906 325.445312 306.535156 C 322.164062 309.808594 317.710938 311.65625 313.066406 311.65625 C 308.429688 311.65625 303.972656 309.808594 300.6875 306.535156 C 297.410156 303.253906 295.5625 298.800781 295.5625 294.167969 Z M 295.5625 294.167969 " fill-opacity="1" fill-rule="evenodd"/></g><path fill="#ffffff" d="M 161.457031 81.566406 C 163.273438 81.566406 165.019531 82.289062 166.3125 83.574219 C 167.597656 84.859375 168.320312 86.605469 168.320312 88.425781 C 168.320312 90.246094 167.597656 91.992188 166.3125 93.277344 C 165.019531 94.5625 163.273438 95.285156 161.457031 95.285156 L 37.90625 95.285156 C 36.089844 95.285156 34.339844 94.5625 33.046875 93.277344 C 31.761719 91.992188 31.039062 90.246094 31.039062 88.425781 C 31.039062 86.605469 31.761719 84.859375 33.046875 83.574219 C 34.339844 82.289062 36.089844 81.566406 37.90625 81.566406 Z M 161.457031 81.566406 " fill-opacity="1" fill-rule="nonzero"/></svg>